<svg width="429" height="406" viewBox="0 0 429 406" fill="none" xmlns="http://www.w3.org/2000/svg">
<path d="M119.579 341.79C117.03 342.592 111.09 341.79 111.09 341.79C111.09 341.79 112.799 338.033 112.935 337.811C114.538 335.223 119.164 331.166 122.477 332.016C123.022 332.169 123.529 332.434 123.966 332.795C124.402 333.156 124.757 333.605 125.008 334.112C125.26 334.62 125.402 335.174 125.425 335.74C125.448 336.306 125.352 336.87 125.143 337.396C124.322 339.656 121.753 341.114 119.579 341.79Z" fill="#263238"/>
<path d="M64.2538 340.129C64.1959 340.129 63.6067 336.063 63.5971 335.793C63.5101 332.75 65.1327 326.82 68.3489 325.68C68.8879 325.506 69.4577 325.447 70.021 325.508C70.5843 325.568 71.1285 325.747 71.618 326.032C72.1075 326.318 72.5313 326.703 72.8617 327.163C73.1921 327.624 73.4217 328.148 73.5354 328.703C74.1052 331.041 72.7627 333.677 71.3333 335.464C69.6431 337.512 64.2538 340.129 64.2538 340.129Z" fill="#263238"/>
<path d="M65.2861 383.968C67.2757 384.219 71.2163 383.099 72.3173 382.771C72.5008 384.47 72.7133 386.141 73.0127 387.783C73.148 388.488 73.2445 389.222 73.4184 389.889C73.5922 390.555 73.7468 391.241 73.9013 391.907C74.278 393.269 74.616 394.534 75.0023 395.771C75.1858 396.418 75.379 397.007 75.5722 397.625C75.0989 396.659 74.3263 395.114 74.2393 394.979C72.7713 392.738 68.6279 389.271 65.7401 390.062C65.2642 390.206 64.8239 390.448 64.4478 390.773C64.0716 391.098 63.768 391.499 63.5567 391.949C63.3454 392.399 63.2311 392.888 63.2212 393.385C63.2113 393.882 63.3061 394.376 63.4994 394.834C64.2624 396.765 66.561 398.04 68.483 398.591C70.5982 399.199 75.2438 398.533 75.8233 398.446C76.3062 399.953 76.7891 401.421 77.2527 402.782C77.5618 403.681 77.8612 404.521 78.1509 405.342H80.0826C79.6962 404.376 79.3003 403.304 78.8849 402.184C78.4696 401.063 77.9771 399.663 77.5135 398.32C78.035 398.098 82.0722 396.389 83.6948 394.814C84.9799 395.612 86.312 396.331 87.6836 396.968C87.2393 398.494 86.8337 399.981 86.4763 401.372C86.119 402.763 85.7906 404.086 85.5105 405.342H87.4422C87.6836 404.212 87.9444 403.053 88.2341 401.797C88.5239 400.542 88.8716 399.19 89.2 397.818C89.7698 397.924 94.3961 398.784 96.5306 398.262C98.4622 397.789 100.819 396.64 101.649 394.698C101.856 394.251 101.968 393.764 101.976 393.271C101.984 392.778 101.889 392.288 101.697 391.834C101.506 391.379 101.221 390.97 100.862 390.631C100.503 390.293 100.077 390.034 99.6116 389.869C96.7141 388.971 92.4741 392.265 90.9191 394.447C90.8225 394.592 89.8374 396.379 89.3545 397.287C89.567 396.456 89.7891 395.635 90.0306 394.776C90.3686 393.539 90.7646 392.236 91.1509 390.98L91.8173 389.048C92.0298 388.372 92.3196 387.764 92.5707 387.117C92.957 386.151 93.4013 385.185 93.8456 384.219C95.0818 384.635 98.7423 385.813 100.674 385.649C102.606 385.484 105.155 384.683 106.276 382.906C106.555 382.493 106.744 382.026 106.831 381.535C106.918 381.045 106.901 380.541 106.781 380.057C106.66 379.574 106.44 379.121 106.133 378.728C105.827 378.335 105.441 378.011 105.001 377.777C102.306 376.454 97.5833 379.071 95.7193 380.993C95.6517 381.051 95.304 381.496 94.8887 382.036C95.3523 381.071 95.8545 380.182 96.3084 379.265C97.7185 376.657 99.2059 374.049 100.751 371.422L101.717 369.78C102.76 370.138 106.72 371.441 108.739 371.268C110.757 371.094 113.22 370.302 114.34 368.525C114.619 368.113 114.808 367.646 114.895 367.156C114.982 366.666 114.965 366.164 114.845 365.681C114.724 365.198 114.504 364.746 114.197 364.354C113.891 363.962 113.505 363.639 113.065 363.406C110.371 362.083 105.648 364.69 103.784 366.612C103.716 366.68 103.291 367.221 102.818 367.82C103.62 366.38 104.402 364.922 105.136 363.483C106.404 360.983 107.504 358.402 108.43 355.756C108.797 355.892 113.404 357.524 115.644 357.321C117.644 357.147 120.126 356.355 121.256 354.578C121.534 354.165 121.723 353.699 121.809 353.208C121.895 352.718 121.877 352.215 121.756 351.732C121.635 351.249 121.413 350.797 121.106 350.405C120.798 350.014 120.412 349.691 119.971 349.459C117.286 348.136 112.554 350.744 110.69 352.666C110.554 352.801 109.057 354.742 108.545 355.457V355.37C109.396 352.756 110.007 350.069 110.371 347.344C110.716 344.918 110.916 342.473 110.97 340.023C111.047 337.744 110.97 335.667 110.902 333.822C110.854 332.857 110.786 331.891 110.719 331.06H110.767C110.767 331.06 112.022 327.651 112.071 327.429C112.66 324.821 112.264 319.432 109.685 317.896C109.25 317.655 108.768 317.509 108.273 317.466C107.777 317.424 107.278 317.486 106.808 317.649C106.338 317.812 105.907 318.072 105.544 318.413C105.181 318.753 104.894 319.166 104.701 319.625C103.813 321.557 104.518 324.048 105.464 325.816C106.411 327.583 109.743 330.259 110.574 330.906C110.632 331.794 110.68 332.741 110.709 333.803C110.709 335.648 110.767 337.724 110.641 339.994C110.641 340.593 110.554 341.24 110.506 341.868C110.361 340.796 110.149 339.318 110.11 339.183C109.434 336.594 106.594 331.987 103.61 331.823C103.108 331.808 102.609 331.898 102.145 332.09C101.682 332.282 101.264 332.57 100.92 332.935C100.575 333.3 100.313 333.734 100.149 334.209C99.9848 334.683 99.9235 335.187 99.9689 335.687C100.065 337.802 101.852 339.704 103.504 340.834C105.155 341.964 109.492 342.834 110.429 342.998C110.303 344.389 110.139 345.818 109.888 347.296C109.483 349.982 108.836 352.626 107.956 355.196H107.792C107.792 354.23 107.705 352.077 107.686 351.903C107.29 349.247 104.982 344.36 102.026 343.867C101.533 343.799 101.031 343.836 100.553 343.975C100.075 344.113 99.6315 344.351 99.2516 344.673C98.8716 344.995 98.5637 345.393 98.3478 345.841C98.1319 346.29 98.0129 346.779 97.9986 347.276C97.8538 349.392 99.4281 351.468 100.896 352.782C102.644 354.279 107.522 355.679 107.705 355.747C106.749 358.273 105.629 360.735 104.354 363.116C103.388 364.883 102.422 366.641 101.36 368.389C101.36 367.684 101.273 364.903 101.244 364.7C100.857 362.054 98.5491 357.166 95.5937 356.674C95.1069 356.616 94.6133 356.66 94.1441 356.802C93.675 356.945 93.2403 357.182 92.8675 357.501C92.4947 357.819 92.1918 358.211 91.9778 358.652C91.7638 359.093 91.6434 359.574 91.6242 360.064C91.489 362.169 93.0536 364.256 94.57 365.56C96.2698 367.028 100.944 368.399 101.331 368.515C100.857 369.307 100.365 370.109 99.9013 370.901C98.3367 373.489 96.7527 376.068 95.275 378.675C94.7631 379.574 94.3092 380.481 93.8069 381.389C93.8069 380.327 93.7297 378.395 93.7007 378.231C93.3144 375.585 91.0061 370.698 88.0506 370.195C87.557 370.128 87.0546 370.164 86.576 370.303C86.0975 370.442 85.6534 370.68 85.2728 371.001C84.8921 371.323 84.5832 371.72 84.3663 372.169C84.1493 372.618 84.0291 373.107 84.0135 373.605C83.8783 375.72 85.4429 377.797 86.911 379.11C88.379 380.424 92.3292 381.65 93.4303 382.008C92.648 383.524 91.9043 385.04 91.2475 386.566C90.9674 387.233 90.6487 387.899 90.4266 388.556C90.2044 389.213 89.9533 389.86 89.7118 390.487C89.2772 391.83 88.8619 393.076 88.4853 394.351C88.2921 394.988 88.1279 395.587 87.9444 396.215C88.0893 395.133 88.2921 393.424 88.2921 393.269C88.2921 390.584 86.7661 385.407 83.9169 384.47C83.4401 384.328 82.9386 384.287 82.445 384.351C81.9515 384.416 81.477 384.583 81.0525 384.843C80.6279 385.102 80.2628 385.448 79.9808 385.859C79.6989 386.269 79.5065 386.734 79.4162 387.223C79.3602 387.48 79.3279 387.742 79.3196 388.005C78.0289 389.976 77.2611 392.243 77.0885 394.592C77.0885 394.756 77.243 396.794 77.3493 397.828C77.0692 397.016 76.7988 396.205 76.5283 395.355C76.1227 394.138 75.746 392.834 75.3693 391.569L74.8478 389.57C74.6546 388.894 74.5484 388.218 74.4035 387.542C74.2007 386.576 74.0365 385.484 73.882 384.441C75.1472 384.113 78.856 383.07 80.3723 381.872C81.8887 380.675 83.5789 378.608 83.5306 376.493C83.5353 375.997 83.4362 375.507 83.2397 375.052C83.0431 374.598 82.7535 374.189 82.3896 373.854C82.0256 373.518 81.5953 373.262 81.1264 373.103C80.6575 372.943 80.1605 372.884 79.6673 372.929C76.6925 373.296 74.191 378.086 73.6888 380.723C73.6888 380.81 73.6309 381.37 73.5826 382.046C73.457 381.022 73.3315 379.999 73.2349 378.955C72.9741 376 72.8003 372.987 72.6167 369.964C72.6167 369.336 72.5298 368.698 72.4912 368.032C73.5536 367.762 77.5811 366.67 79.165 365.405C80.749 364.14 82.3812 362.14 82.3329 360.025C82.3362 359.531 82.2361 359.041 82.039 358.587C81.842 358.133 81.5524 357.725 81.1887 357.39C80.8251 357.054 80.3954 356.798 79.9272 356.639C79.459 356.479 78.9625 356.418 78.4696 356.461C75.4949 356.838 72.9934 361.629 72.4912 364.256C72.4912 364.352 72.4236 365.028 72.3656 365.791C72.2401 364.149 72.0952 362.507 71.902 360.895C71.5746 358.118 71.0648 355.366 70.376 352.656C70.7527 352.559 75.4949 351.372 77.2527 349.971C78.8173 348.725 80.4689 346.707 80.4206 344.591C80.4238 344.097 80.3237 343.607 80.1267 343.153C79.9297 342.699 79.6401 342.291 79.2764 341.956C78.9128 341.62 78.4831 341.365 78.0148 341.205C77.5466 341.045 77.0502 340.985 76.5573 341.028C73.5826 341.404 71.0811 346.195 70.5789 348.822C70.5789 349.015 70.3664 351.458 70.3277 352.337C70.3322 352.305 70.3322 352.273 70.3277 352.241C69.598 349.583 68.6282 346.997 67.4303 344.514C66.3733 342.301 65.1899 340.15 63.8857 338.072C62.6881 336.14 61.4808 334.431 60.3991 332.934C59.8099 332.123 59.2594 331.398 58.7282 330.732H58.7861C58.7861 330.732 57.9459 327.207 57.8203 326.994C56.8545 324.493 53.5707 320.233 50.5766 320.359C50.08 320.398 49.5971 320.541 49.1592 320.779C48.7214 321.016 48.3385 321.343 48.0352 321.739C47.7319 322.134 47.5151 322.588 47.3989 323.073C47.2827 323.557 47.2695 324.061 47.3604 324.551C47.6791 326.637 49.6591 328.337 51.4169 329.293C53.1747 330.249 57.4436 330.635 58.4867 330.713C59.0276 331.427 59.5878 332.19 60.1866 333.05C61.2297 334.566 62.3983 336.285 63.5476 338.236C63.8471 338.758 64.1561 339.337 64.4652 339.888C63.7505 339.067 62.7653 337.956 62.6494 337.86C60.6598 336.073 55.7534 333.794 53.1747 335.31C52.7495 335.57 52.3837 335.916 52.101 336.327C51.8184 336.737 51.6253 337.203 51.5342 337.693C51.4431 338.183 51.4561 338.686 51.5724 339.171C51.6886 339.656 51.9054 340.111 52.2089 340.506C53.4548 342.216 55.9949 342.814 58.0038 342.853C60.0127 342.892 64.0982 341.211 64.9771 340.844C65.6435 342.071 66.2906 343.346 66.9087 344.707C68.0393 347.197 68.9443 349.783 69.613 352.434L69.4585 352.502C68.8887 351.671 67.6621 349.942 67.5268 349.817C65.7401 347.817 61.1234 344.987 58.3805 346.233C57.932 346.45 57.5341 346.758 57.2124 347.138C56.8907 347.518 56.6525 347.962 56.5132 348.44C56.3739 348.918 56.3366 349.42 56.4037 349.913C56.4708 350.407 56.6408 350.88 56.9028 351.304C57.9459 353.139 60.4087 354.018 62.3887 354.269C64.6777 354.559 69.5164 353.042 69.7 352.984C70.3132 355.635 70.752 358.322 71.0135 361.03C71.2066 363.029 71.3225 365.048 71.4191 367.085C71.0424 366.487 69.4295 364.188 69.2943 364.072C67.5075 362.073 62.8909 359.243 60.1479 360.489C59.6995 360.705 59.3015 361.014 58.9799 361.394C58.6582 361.774 58.42 362.217 58.2807 362.695C58.1413 363.173 58.104 363.675 58.1711 364.169C58.2382 364.662 58.4083 365.136 58.6702 365.56C59.7133 367.395 62.1762 368.273 64.1561 368.525C66.3872 368.814 71.0424 367.375 71.4288 367.25C71.4288 368.216 71.5254 369.094 71.5543 370.022C71.6799 373.045 71.7861 376.077 71.9793 379.062C72.0469 380.105 72.1531 381.119 72.2594 382.143C71.6606 381.264 70.5402 379.69 70.4243 379.564C68.6375 377.565 64.0209 374.735 61.278 375.99C60.8288 376.205 60.4298 376.511 60.1074 376.89C59.7849 377.27 59.5461 377.712 59.4066 378.19C59.2671 378.668 59.23 379.17 59.2979 379.663C59.3657 380.156 59.5369 380.629 59.8002 381.051C60.8433 382.838 63.3062 383.717 65.2861 383.968Z" fill="#263238"/>
<path d="M264.185 97.1455C261.609 95.7934 259.201 93.3466 256.961 89.8052C254.633 86.0391 253.455 81.6755 253.571 77.2495C253.571 72.5878 254.813 69.0883 257.299 66.751C259.784 64.4137 263.435 62.643 268.251 61.439L285.858 57.1797C293.392 55.248 297.155 51.6358 297.149 46.3431C297.149 43.4843 295.758 40.9989 292.976 38.8869C290.195 36.775 285.414 35.7223 278.634 35.7287C272.756 35.6899 266.902 36.4866 261.249 38.095C256.649 39.3253 252.241 41.1878 248.152 43.6292C245.572 41.6556 243.356 39.2467 241.604 36.511C239.733 33.4981 238.79 30.0018 238.89 26.4568C238.843 22.7609 240.044 19.1571 242.299 16.2287C244.799 13.1056 248.012 10.6281 251.668 9.00433C256.195 6.96192 260.982 5.55462 265.895 4.8223C271.907 3.88287 277.986 3.43068 284.071 3.47015C301.823 3.44439 315.264 7.3753 324.395 15.2629C333.525 23.1504 338.077 33.5009 338.051 46.3141C338.051 70.4018 321.04 85.8325 287.017 92.6061L264.185 97.1455ZM256.729 126.729C256.729 120.56 258.661 115.48 262.524 111.488C266.387 107.496 271.696 105.5 278.45 105.5C285.217 105.5 290.523 107.496 294.367 111.488C298.211 115.48 300.143 120.56 300.162 126.729C300.162 132.91 298.23 137.99 294.367 141.969C290.504 145.949 285.198 147.945 278.45 147.958C271.67 147.958 266.361 145.962 262.524 141.969C258.686 137.977 256.755 132.897 256.729 126.729Z" fill="#263238"/>
<path d="M278.406 148.441C271.529 148.441 266.053 146.374 262.131 142.308C258.21 138.242 256.24 133.007 256.24 126.729C256.24 120.451 258.22 115.216 262.131 111.15C266.043 107.084 271.529 105.017 278.406 105.017C285.282 105.017 290.759 107.084 294.67 111.15C298.582 115.216 300.562 120.461 300.562 126.729C300.562 132.997 298.582 138.251 294.67 142.308C290.759 146.364 285.282 148.441 278.406 148.441ZM278.406 105.944C271.799 105.944 266.555 107.876 262.827 111.739C259.099 115.603 257.206 120.635 257.206 126.642C257.206 132.65 259.137 137.672 262.827 141.554C266.516 145.437 271.799 147.349 278.406 147.349C285.012 147.349 290.247 145.418 293.975 141.554C297.703 137.691 299.596 132.659 299.596 126.642C299.596 120.625 297.712 115.709 293.975 111.846C290.237 107.982 285.012 105.983 278.406 105.983V105.944ZM264.179 97.5901C264.098 97.5893 264.019 97.5695 263.947 97.5322C261.33 96.151 258.838 93.6689 256.539 90.0277C254.18 86.1869 252.979 81.7467 253.082 77.2402C253.082 72.4593 254.386 68.8085 256.945 66.3843C259.504 63.9601 263.242 62.183 268.12 60.966L285.756 56.7067C293.096 54.7751 296.669 51.4044 296.669 46.3434C296.669 43.6584 295.337 41.2728 292.69 39.2736C290.044 37.2743 285.273 36.2119 278.637 36.2119C272.806 36.1766 266.998 36.9667 261.388 38.5589C256.834 39.7821 252.469 41.6247 248.417 44.0351C248.333 44.0895 248.236 44.1185 248.137 44.1185C248.037 44.1185 247.94 44.0895 247.857 44.0351C245.239 42.0245 242.988 39.5772 241.202 36.8011C239.285 33.7023 238.322 30.1087 238.43 26.4667C238.369 22.6525 239.597 18.9293 241.917 15.9006C244.455 12.7094 247.72 10.1725 251.44 8.5024C256.007 6.44274 260.837 5.02249 265.792 4.28175C271.83 3.33944 277.935 2.88404 284.046 2.91994C301.846 2.91994 315.513 6.94742 324.678 14.8962C333.844 22.8449 338.499 33.4303 338.499 46.3145C338.499 70.547 321.201 86.2803 287.079 93.0797L264.266 97.5901H264.179ZM278.666 35.2075C285.514 35.2075 290.44 36.2988 293.299 38.4623C296.157 40.6257 297.664 43.2914 297.664 46.3048C297.664 51.7907 293.753 55.596 286.016 57.6049L268.371 61.9415C263.657 63.1198 260.036 64.839 257.631 67.128C255.226 69.417 254.057 72.7684 254.057 77.2788C253.952 81.6048 255.103 85.8685 257.37 89.5544C259.524 92.9348 261.842 95.3494 264.266 96.6436L286.905 92.1622C320.506 85.469 337.543 70.0544 337.543 46.3434C337.543 33.7877 333.004 23.4244 324.022 15.6495C315.039 7.87462 301.585 3.91473 284.027 3.91473C277.967 3.87555 271.914 4.32775 265.927 5.26689C261.06 5.99191 256.315 7.38285 251.826 9.40062C248.243 10.9969 245.093 13.4276 242.641 16.4898C240.465 19.3542 239.321 22.8702 239.396 26.4667C239.298 29.9158 240.215 33.3177 242.033 36.2506C243.698 38.8332 245.784 41.1184 248.204 43.0113C252.257 40.6442 256.606 38.8254 261.137 37.6027C266.827 35.9957 272.715 35.2023 278.628 35.2461L278.666 35.2075Z" fill="#263238"/>
<path d="M184.43 250.848L186.342 405.515H261.995L255.775 252.76L184.43 250.848Z" fill="#263238"/>
<path d="M261.993 405.998H186.34C186.212 405.998 186.089 405.947 185.999 405.857C185.908 405.766 185.857 405.643 185.857 405.515L183.926 250.848C183.93 250.718 183.982 250.594 184.071 250.5C184.118 250.454 184.174 250.418 184.235 250.395C184.297 250.372 184.362 250.361 184.428 250.365L255.773 252.297C255.896 252.301 256.012 252.351 256.1 252.437C256.187 252.523 256.24 252.638 256.247 252.76L262.476 405.457C262.48 405.521 262.47 405.586 262.447 405.646C262.424 405.706 262.388 405.76 262.341 405.805C262.301 405.861 262.249 405.907 262.189 405.941C262.129 405.974 262.062 405.994 261.993 405.998ZM186.814 405.032H261.491L255.31 253.233L184.911 251.302L186.814 405.032Z" fill="#263238"/>
<path d="M184.43 195.593L186.342 350.26H261.995L255.775 197.505L184.43 195.593Z" fill="white"/>
<path d="M261.993 350.743H186.34C186.212 350.743 186.089 350.692 185.999 350.602C185.908 350.511 185.857 350.388 185.857 350.26L183.926 195.603C183.926 195.472 183.978 195.347 184.071 195.255C184.116 195.206 184.171 195.167 184.233 195.142C184.295 195.117 184.361 195.106 184.428 195.11L255.773 197.042C255.896 197.042 256.013 197.089 256.101 197.174C256.19 197.258 256.242 197.374 256.247 197.496L262.467 350.251C262.471 350.316 262.461 350.382 262.438 350.444C262.414 350.506 262.378 350.562 262.331 350.608C262.24 350.695 262.119 350.743 261.993 350.743ZM186.814 349.777H261.491L255.31 197.979L184.911 196.047L186.814 349.777Z" fill="#263238"/>
<path d="M210.749 212.273L218.63 225.408L204.848 324.54L225.632 345.335L239.202 319.296L223.662 226.065L231.543 215.344L222.793 201.33L210.749 212.273Z" fill="#263238"/>
<path d="M225.631 345.818C225.568 345.819 225.505 345.806 225.447 345.781C225.389 345.756 225.336 345.72 225.293 345.673L204.499 324.889C204.447 324.834 204.407 324.768 204.384 324.696C204.361 324.625 204.354 324.548 204.364 324.473L218.146 225.505L210.362 212.525C210.301 212.429 210.277 212.316 210.293 212.204C210.309 212.093 210.364 211.991 210.449 211.916L222.483 200.973C222.537 200.928 222.601 200.894 222.669 200.875C222.737 200.855 222.808 200.849 222.879 200.857C222.948 200.867 223.014 200.892 223.073 200.931C223.131 200.969 223.18 201.02 223.217 201.08L231.967 215.084C232.021 215.164 232.05 215.258 232.05 215.354C232.05 215.451 232.021 215.545 231.967 215.625L224.241 226.181L239.742 319.21C239.76 319.315 239.743 319.424 239.694 319.519L226.172 345.596C226.137 345.663 226.086 345.721 226.024 345.764C225.962 345.808 225.89 345.836 225.815 345.847L225.631 345.818ZM205.349 324.377L225.496 344.524L238.689 319.21L223.178 226.143C223.158 226.014 223.19 225.882 223.265 225.776L230.992 215.316L222.715 202.084L211.386 212.37L219.112 225.158C219.167 225.254 219.191 225.366 219.18 225.476L205.349 324.377Z" fill="#263238"/>
<path d="M218.628 225.409L218.328 227.582L227.117 221.362L231.541 215.345L227.32 208.584L214.137 217.914L218.628 225.409Z" fill="#3835ED"/>
<path d="M218.33 228.064C218.24 228.062 218.153 228.035 218.078 227.987C217.998 227.939 217.933 227.869 217.892 227.785C217.851 227.701 217.835 227.606 217.847 227.514L218.127 225.505L213.723 218.164C213.656 218.06 213.633 217.934 213.658 217.813C213.684 217.692 213.755 217.586 213.858 217.517L227.041 208.197C227.151 208.12 227.286 208.089 227.418 208.11C227.482 208.124 227.542 208.151 227.595 208.189C227.648 208.228 227.693 208.276 227.727 208.332L231.948 215.093C232.002 215.173 232.031 215.267 232.031 215.363C232.031 215.46 232.002 215.554 231.948 215.634L227.534 221.651C227.5 221.691 227.461 221.727 227.418 221.757L218.629 227.977C218.541 228.036 218.436 228.067 218.33 228.064ZM214.775 218.087L219.044 225.196C219.1 225.292 219.123 225.404 219.112 225.514L218.957 226.577L226.781 221.052L230.963 215.354L227.186 209.317L214.775 218.087Z" fill="#263238"/>
<path d="M214.07 258.217L227.447 248.752L225.564 237.452L216.012 244.203L214.07 258.217Z" fill="#3835ED"/>
<path d="M214.072 258.653C213.983 258.655 213.896 258.631 213.821 258.585C213.741 258.536 213.677 258.466 213.636 258.382C213.595 258.298 213.579 258.205 213.589 258.112L215.521 244.098C215.53 244.032 215.553 243.969 215.588 243.912C215.623 243.856 215.669 243.807 215.723 243.769L225.266 237.009C225.332 236.961 225.41 236.932 225.491 236.923C225.572 236.915 225.654 236.928 225.729 236.96C225.804 236.993 225.87 237.043 225.92 237.107C225.971 237.171 226.005 237.247 226.019 237.327L227.902 248.627C227.917 248.717 227.906 248.808 227.872 248.891C227.838 248.975 227.782 249.047 227.709 249.101L214.352 258.653C214.26 258.679 214.163 258.679 214.072 258.653ZM216.467 244.445L214.7 257.136L226.917 248.444L225.217 238.206L216.467 244.445Z" fill="#263238"/>
<path d="M226.024 344.591L236.445 324.589L217.969 337.666L225.367 345.064L226.024 344.591Z" fill="#3835ED"/>
<path d="M225.364 345.576C225.233 345.575 225.108 345.523 225.016 345.431L217.627 338.033C217.576 337.983 217.536 337.923 217.511 337.856C217.486 337.789 217.476 337.717 217.482 337.646C217.489 337.577 217.51 337.51 217.545 337.45C217.58 337.39 217.628 337.338 217.685 337.299L236.162 324.231C236.247 324.164 236.352 324.127 236.461 324.127C236.57 324.127 236.675 324.164 236.76 324.231C236.841 324.301 236.895 324.397 236.915 324.502C236.934 324.607 236.917 324.716 236.867 324.81L226.455 344.813C226.417 344.881 226.364 344.941 226.3 344.987L225.644 345.45C225.568 345.524 225.469 345.568 225.364 345.576ZM218.709 337.743L225.412 344.446L225.644 344.282L235.089 326.163L218.709 337.743Z" fill="#263238"/>
<path d="M229.676 262.158L211.75 274.839L209.809 288.844L231.559 273.458L229.676 262.158Z" fill="#3835ED"/>
<path d="M209.808 289.326C209.72 289.328 209.632 289.304 209.557 289.258C209.475 289.21 209.409 289.138 209.368 289.052C209.327 288.966 209.312 288.87 209.325 288.776L211.257 274.771C211.275 274.64 211.345 274.523 211.45 274.443L229.376 261.771C229.442 261.722 229.52 261.691 229.602 261.681C229.684 261.67 229.767 261.681 229.844 261.712C229.92 261.743 229.987 261.793 230.039 261.858C230.091 261.922 230.125 261.999 230.139 262.08L232.012 273.38C232.031 273.469 232.023 273.562 231.989 273.647C231.954 273.731 231.895 273.803 231.819 273.854L210.069 289.239C209.992 289.292 209.901 289.322 209.808 289.326ZM212.203 275.07L210.416 287.81L231.017 273.235L229.308 262.998L212.203 275.07Z" fill="#263238"/>
<path d="M234.692 292.225L206.576 312.111L204.848 324.541L205.678 325.372L236.575 303.525L234.692 292.225Z" fill="#3835ED"/>
<path d="M205.677 325.854C205.613 325.856 205.55 325.845 205.49 325.822C205.43 325.798 205.376 325.764 205.33 325.719L204.499 324.888C204.447 324.834 204.407 324.768 204.384 324.696C204.361 324.624 204.354 324.548 204.364 324.473L206.093 312.043C206.116 311.912 206.188 311.794 206.296 311.715L234.411 291.828C234.478 291.781 234.556 291.752 234.637 291.744C234.718 291.735 234.8 291.748 234.876 291.779C234.951 291.811 235.017 291.862 235.067 291.926C235.118 291.99 235.151 292.066 235.164 292.147L237.047 303.447C237.06 303.536 237.048 303.627 237.014 303.71C236.98 303.793 236.925 303.865 236.854 303.92L205.948 325.767C205.868 325.822 205.774 325.852 205.677 325.854ZM205.359 324.377L205.726 324.744L236.043 303.302L234.343 293.065L207.02 312.381L205.359 324.377Z" fill="#263238"/>
<path d="M221.916 205.928L202.657 226.722L196.09 199.805L198.147 191.557L221.916 205.928Z" fill="white"/>
<path d="M202.694 227.205H202.568C202.485 227.184 202.408 227.14 202.347 227.079C202.286 227.018 202.242 226.941 202.221 226.857L195.663 199.94C195.644 199.864 195.644 199.784 195.663 199.708L197.72 191.46C197.739 191.388 197.775 191.321 197.823 191.264C197.871 191.207 197.932 191.162 198 191.132C198.068 191.098 198.142 191.081 198.217 191.081C198.293 191.081 198.367 191.098 198.435 191.132L222.165 205.532C222.227 205.569 222.28 205.619 222.321 205.68C222.361 205.74 222.387 205.808 222.397 205.88C222.406 205.951 222.4 206.023 222.378 206.092C222.356 206.16 222.32 206.223 222.271 206.276L203.013 227.07C202.926 227.151 202.813 227.199 202.694 227.205ZM196.629 199.805L202.955 225.737L221.199 206.034L198.502 192.31L196.629 199.805Z" fill="#263238"/>
<path d="M221.914 205.929L236.575 225.187L243.578 198.714L241.173 192.581L221.914 205.929Z" fill="white"/>
<path d="M236.577 225.669C236.504 225.668 236.431 225.651 236.364 225.62C236.297 225.588 236.238 225.542 236.191 225.486L221.53 206.169C221.489 206.118 221.461 206.059 221.446 205.995C221.431 205.932 221.43 205.866 221.443 205.802C221.453 205.738 221.475 205.676 221.51 205.621C221.545 205.566 221.591 205.519 221.646 205.484L240.895 192.136C240.956 192.094 241.026 192.067 241.1 192.055C241.173 192.044 241.248 192.048 241.32 192.068C241.388 192.093 241.451 192.132 241.504 192.182C241.557 192.231 241.599 192.291 241.629 192.358L244.034 198.481C244.062 198.579 244.062 198.683 244.034 198.781L237.031 225.264C237.01 225.352 236.962 225.432 236.895 225.494C236.828 225.556 236.745 225.597 236.655 225.611L236.577 225.669ZM222.612 206.044L236.365 224.114L243.077 198.771L240.953 193.362L222.612 206.044Z" fill="#263238"/>
<path d="M84.4776 191.305C84.4776 191.305 77.91 177.938 74.6262 173.562C71.3424 169.187 68.0489 166.55 64.3305 165.894C60.6121 165.237 57.9754 165.459 55.1262 164.358C52.277 163.257 46.5786 161.731 45.0526 159.761C43.5266 157.79 40.6678 159.104 41.9813 162.388C43.2948 165.672 47.9018 167.864 47.9018 167.864L51.6203 169.612C51.6203 169.612 39.5764 171.37 38.6975 172.027C37.8186 172.683 27.3008 173.562 27.3008 173.562C27.3008 173.562 31.9078 181.666 38.4754 185.394C45.043 189.122 65.644 186.05 65.644 186.05L71.777 198.973L84.4776 191.305Z" fill="white"/>
<path d="M71.776 199.457H71.6311C71.5674 199.437 71.5086 199.403 71.4588 199.358C71.4089 199.313 71.3689 199.258 71.3414 199.197L65.3533 186.641C62.4558 187.047 44.4818 189.413 38.2425 185.878C31.6266 182.063 27.0776 174.134 26.9134 173.796C26.8754 173.724 26.8555 173.645 26.8555 173.564C26.8555 173.483 26.8754 173.403 26.9134 173.332C26.9511 173.261 27.0063 173.2 27.074 173.156C27.1416 173.112 27.2193 173.086 27.2998 173.081C32.3124 172.665 37.8562 172.009 38.455 171.642C39.218 171.062 46.1816 169.942 50.0449 169.372L47.7656 168.3C47.5724 168.213 42.9365 165.992 41.6133 162.573C40.773 160.467 41.4974 159.134 42.3763 158.632C42.909 158.363 43.5221 158.298 44.0991 158.452C44.676 158.605 45.1766 158.965 45.5056 159.463C46.6066 160.882 50.3347 162.167 53.0969 163.104C53.9469 163.394 54.7388 163.664 55.3763 163.905C57.0611 164.497 58.8192 164.855 60.6014 164.968C61.7797 165.084 63.0063 165.209 64.4067 165.46C68.1155 166.108 71.4766 168.609 75.0308 173.313C78.305 177.678 84.6891 190.582 84.9305 191.132C84.9843 191.241 84.9952 191.365 84.9612 191.482C84.9272 191.598 84.8508 191.697 84.747 191.76L72.0464 199.428C71.9599 199.46 71.8671 199.47 71.776 199.457ZM65.643 185.569C65.7337 185.568 65.823 185.592 65.9 185.64C65.9771 185.688 66.0387 185.757 66.0776 185.839L71.9788 198.279L83.8971 191.122C82.7767 188.872 77.1363 177.726 74.2388 173.853C70.8585 169.353 67.6906 166.977 64.2426 166.368C62.8711 166.127 61.6638 166.011 60.5048 165.895C58.6029 165.794 56.7242 165.43 54.9223 164.813C54.2946 164.572 53.5219 164.301 52.6816 164.021C49.6683 162.988 45.9209 161.703 44.6363 160.061C44.4487 159.75 44.1541 159.517 43.8075 159.407C43.4609 159.297 43.086 159.317 42.753 159.463C42.2024 159.781 41.7871 160.68 42.4053 162.206C43.6319 165.287 48.0264 167.411 48.0746 167.431L51.7931 169.179C51.8873 169.224 51.9649 169.298 52.0151 169.39C52.0653 169.482 52.0856 169.587 52.0732 169.691C52.0558 169.794 52.0063 169.888 51.9316 169.961C51.857 170.034 51.7611 170.081 51.6579 170.096C45.9691 170.927 39.585 172.028 38.9476 172.414C38.117 173.042 31.221 173.709 28.0917 173.979C29.3376 175.911 33.3844 181.966 38.7158 184.97C45.0709 188.573 65.3629 185.598 65.5657 185.569H65.643Z" fill="#263238"/>
<path d="M23.1519 171.4C23.1519 171.4 19.7716 164.205 20.0516 162.65C20.3317 161.095 23.2968 162.089 24.282 164.205C25.2671 166.32 28.6571 171.4 28.6571 171.4H23.1519Z" fill="white"/>
<path d="M28.6671 171.883H23.1619C23.0706 171.881 22.9816 171.854 22.9049 171.804C22.8281 171.755 22.7666 171.685 22.7272 171.603C22.1477 170.376 19.2889 164.185 19.5883 162.563C19.6334 162.262 19.7793 161.985 20.0022 161.778C20.225 161.571 20.5116 161.446 20.8149 161.423C21.6454 161.438 22.4546 161.689 23.1486 162.145C23.8426 162.601 24.3931 163.245 24.7362 164.002C25.702 166.068 29.0341 171.091 29.0727 171.139C29.1187 171.213 29.1445 171.297 29.1472 171.384C29.15 171.471 29.1298 171.557 29.0886 171.633C29.0474 171.71 28.9867 171.774 28.9127 171.82C28.8387 171.865 28.7539 171.89 28.6671 171.892V171.883ZM23.4709 170.917H27.7689C26.3558 168.815 25.0502 166.642 23.8573 164.407C23.6016 163.84 23.1975 163.352 22.6875 162.995C22.1775 162.638 21.5806 162.425 20.9598 162.379C20.6507 162.379 20.5831 162.572 20.5541 162.736C20.361 163.722 22.196 168.155 23.4709 170.917Z" fill="#263238"/>
<path d="M17.1602 167.971C17.1602 167.971 22.4142 179.146 25.9202 182.207C29.4261 185.269 36.438 185.501 36.438 185.501C36.438 185.501 28.1126 176.731 26.3645 173.447C24.6163 170.164 18.2226 162.273 17.1602 167.971Z" fill="white"/>
<path d="M36.4368 185.983C36.147 185.983 29.2124 185.722 25.6195 182.574C22.0267 179.425 16.9271 168.637 16.7436 168.173C16.7105 168.08 16.7105 167.977 16.7436 167.884C17.014 166.445 17.6418 165.643 18.598 165.498C21.3216 165.083 25.5423 170.781 26.8461 173.225C28.546 176.412 36.7652 185.075 36.8424 185.162C36.9048 185.232 36.9461 185.318 36.9615 185.41C36.9769 185.502 36.9656 185.597 36.9292 185.683C36.8927 185.769 36.8325 185.843 36.7556 185.896C36.6786 185.949 36.5882 185.98 36.4947 185.983H36.4368ZM17.6611 167.913C18.2889 169.226 23.0601 179.068 26.2377 181.85C28.7102 184.013 33.1047 184.747 35.2295 184.921C33.0467 182.584 27.3773 176.383 25.9286 173.679C24.4799 170.974 20.6069 166.155 18.6849 166.454C18.2213 166.532 17.864 167.014 17.6611 167.913Z" fill="#263238"/>
<path d="M21.3906 168.955C21.3906 168.955 26.6447 180.129 30.1507 183.201C33.6566 186.272 40.6685 186.485 40.6685 186.485C40.6685 186.485 32.3431 177.725 30.5949 174.431C28.8468 171.138 22.482 163.266 21.3906 168.955Z" fill="white"/>
<path d="M40.6672 186.969C40.3775 186.969 33.4525 186.708 29.85 183.559C26.2475 180.411 21.1576 169.623 20.9741 169.169C20.9409 169.072 20.9409 168.966 20.9741 168.869C21.2509 167.433 21.8691 166.641 22.8284 166.493C25.5617 166.068 29.7727 171.767 31.0766 174.22C32.7764 177.407 40.9956 186.07 41.0729 186.167C41.1392 186.234 41.1839 186.32 41.2011 186.413C41.2183 186.506 41.2073 186.602 41.1695 186.689C41.1256 186.782 41.0536 186.859 40.9635 186.91C40.8733 186.96 40.7697 186.981 40.6672 186.969ZM21.8916 168.898C22.5194 170.212 27.2906 180.053 30.4681 182.835C32.9503 184.998 37.3351 185.732 39.4696 185.906C37.2772 183.569 31.6078 177.378 30.1687 174.664C28.7296 171.95 24.8374 167.16 22.9154 167.449C22.4325 167.517 22.0848 168.01 21.8916 168.898Z" fill="#263238"/>
<path d="M68.9267 180.352C68.9267 180.352 67.8256 178.594 64.0975 176.19C60.3694 173.785 40.657 179.908 40.657 179.908C40.657 179.908 31.6748 168.743 30.3613 167.642C29.0477 166.541 26.6332 165.894 26.1986 168.086C25.7639 170.279 31.6748 179.676 33.2105 181.231C34.7461 182.786 40.657 186.485 40.657 186.485C44.25 187.721 48.0328 188.313 51.8316 188.233C56.4856 187.898 61.1028 187.168 65.6332 186.051" fill="white"/>
<path d="M50.9043 188.736C47.3597 188.701 43.844 188.094 40.4927 186.939L40.4348 186.891C40.1933 186.736 34.4563 183.124 32.911 181.569C31.5492 180.207 25.252 170.53 25.7639 167.99C25.8108 167.608 25.9618 167.247 26.2003 166.945C26.4387 166.644 26.7556 166.414 27.116 166.28C27.7486 166.145 28.4042 166.163 29.0288 166.33C29.6534 166.498 30.2293 166.812 30.7089 167.246C31.9452 168.28 39.4883 177.609 40.8694 179.329C43.989 178.363 60.7461 173.389 64.3969 175.755C68.0477 178.121 69.3129 179.995 69.3612 180.063C69.3963 180.116 69.4201 180.176 69.4313 180.239C69.4425 180.302 69.4408 180.367 69.4264 180.429C69.4119 180.491 69.385 180.55 69.3473 180.601C69.3095 180.653 69.2617 180.696 69.2067 180.729C69.154 180.764 69.0947 180.788 69.0325 180.799C68.9703 180.81 68.9065 180.808 68.845 180.794C68.7835 180.779 68.7256 180.752 68.6748 180.714C68.6241 180.677 68.5816 180.629 68.5499 180.575C67.244 178.956 65.6492 177.594 63.8464 176.557C60.9489 174.673 46.2297 178.643 40.8114 180.333C40.719 180.363 40.6199 180.364 40.5268 180.336C40.4338 180.309 40.3512 180.254 40.2899 180.179C37.1993 176.315 31.0759 168.82 30.0618 167.98C29.7107 167.65 29.2893 167.404 28.8292 167.26C28.3692 167.116 27.8825 167.078 27.4058 167.15C27.2092 167.23 27.038 167.363 26.9105 167.533C26.783 167.703 26.7038 167.904 26.6814 168.115C26.3144 169.931 31.8872 179.145 33.5581 180.816C34.9682 182.226 40.3189 185.645 40.8791 185.983C44.403 187.17 48.104 187.745 51.8219 187.683C56.4475 187.366 61.0384 186.662 65.5462 185.577C65.6743 185.547 65.8093 185.568 65.9216 185.637C66.0339 185.706 66.1143 185.816 66.145 185.944C66.1758 186.073 66.1544 186.208 66.0855 186.32C66.0167 186.432 65.9061 186.513 65.778 186.543C61.2157 187.668 56.5664 188.405 51.8798 188.745C51.5321 188.736 51.2134 188.736 50.9043 188.736Z" fill="#263238"/>
<path d="M92.1295 202.77L84.2387 188.813L65.125 200.345L69.9734 212.186L92.1295 202.77Z" fill="white"/>
<path d="M69.9708 212.669C69.91 212.678 69.8482 212.678 69.7873 212.669C69.6699 212.619 69.5764 212.526 69.5266 212.408L64.6974 200.567C64.6556 200.46 64.653 200.341 64.6901 200.231C64.7272 200.122 64.8016 200.029 64.9003 199.969L84.0139 188.437C84.0734 188.411 84.1375 188.397 84.2023 188.397C84.2671 188.397 84.3312 188.411 84.3906 188.437C84.5152 188.469 84.6224 188.549 84.69 188.659L92.5905 202.538C92.6165 202.599 92.6299 202.664 92.6299 202.731C92.6299 202.797 92.6165 202.863 92.5905 202.924C92.569 202.989 92.5337 203.048 92.487 203.098C92.4404 203.149 92.3834 203.188 92.32 203.214L70.164 212.63C70.102 212.653 70.0369 212.666 69.9708 212.669ZM65.7212 200.548L70.2316 211.549L91.4798 202.538L84.1009 189.48L65.7212 200.548Z" fill="#263238"/>
<path d="M196.088 199.804L188.642 405.525H134.623L145.547 258.932C145.547 258.932 116.108 291.103 112.767 292.919C109.425 294.735 105.185 288.978 105.185 288.978L65.4219 210.969L89.0942 197.92L115.172 240.417L119.112 237.683L122.145 239.2C122.145 239.2 149.188 191.556 151.284 190.339C153.38 189.122 163.424 189.73 163.424 189.73L189.501 191.855L198.339 189.923L196.088 199.804Z" fill="#3835ED"/>
<path d="M188.642 405.998H134.624C134.557 405.998 134.491 405.984 134.429 405.957C134.368 405.931 134.312 405.892 134.266 405.843C134.217 405.792 134.178 405.732 134.153 405.665C134.128 405.599 134.117 405.528 134.121 405.457L144.939 260.255C139.801 265.857 116.051 291.644 112.98 293.315C109.319 295.314 104.954 289.452 104.77 289.23L64.9877 211.191C64.9322 211.078 64.9223 210.947 64.96 210.827C64.9978 210.706 65.0803 210.605 65.1905 210.544L88.8629 197.496C88.9717 197.437 89.0986 197.421 89.2185 197.451C89.3384 197.482 89.4425 197.556 89.51 197.66L115.336 239.721L118.871 237.278C118.945 237.235 119.028 237.213 119.113 237.213C119.197 237.213 119.281 237.235 119.354 237.278L121.981 238.591C125.642 232.14 148.947 191.16 151.072 189.952C153.197 188.745 162.439 189.218 163.483 189.276L189.56 191.401L198.32 189.47C198.398 189.451 198.481 189.452 198.558 189.474C198.636 189.496 198.707 189.538 198.764 189.595C198.821 189.654 198.863 189.727 198.885 189.806C198.907 189.885 198.908 189.969 198.89 190.049L196.61 199.871L189.173 405.525C189.171 405.591 189.155 405.656 189.127 405.716C189.099 405.777 189.059 405.83 189.009 405.875C188.959 405.919 188.901 405.952 188.838 405.974C188.775 405.995 188.709 406.003 188.642 405.998ZM135.145 405.032H188.208L195.635 199.785C195.631 199.752 195.631 199.72 195.635 199.688L197.75 190.561L189.666 192.319H189.521L163.444 190.194C160.711 190.03 153.225 189.798 151.584 190.735C149.961 191.836 133.378 220.453 122.609 239.422C122.548 239.53 122.447 239.61 122.329 239.646C122.21 239.682 122.082 239.671 121.971 239.615L119.19 238.224L115.481 240.793C115.427 240.832 115.366 240.859 115.301 240.872C115.236 240.885 115.169 240.885 115.104 240.871C115.041 240.857 114.98 240.83 114.927 240.791C114.874 240.753 114.829 240.705 114.795 240.649L88.9209 198.558L66.0695 211.162L105.61 288.747C105.61 288.747 109.609 294.088 112.535 292.484C115.124 291.074 135.029 269.701 145.19 258.594C145.258 258.519 145.348 258.468 145.446 258.447C145.545 258.426 145.648 258.437 145.74 258.478C145.832 258.519 145.909 258.587 145.961 258.674C146.013 258.76 146.037 258.86 146.03 258.961L135.145 405.032Z" fill="#263238"/>
<path d="M145.845 254.364L147.729 235.627L133.676 271.362L145.546 258.923L145.845 254.364Z" fill="#263238"/>
<path d="M133.677 271.845C133.584 271.845 133.494 271.818 133.416 271.768C133.322 271.708 133.251 271.618 133.216 271.512C133.181 271.407 133.183 271.292 133.223 271.188L147.285 235.453C147.328 235.345 147.408 235.256 147.511 235.201C147.613 235.146 147.732 235.129 147.845 235.153C147.96 235.181 148.06 235.249 148.127 235.345C148.195 235.441 148.225 235.558 148.212 235.675L146.281 254.412L145.981 258.951C145.973 259.064 145.925 259.17 145.846 259.251L134.024 271.691C133.981 271.739 133.927 271.778 133.867 271.805C133.807 271.832 133.742 271.845 133.677 271.845ZM146.899 239.007L135.029 269.276L145.074 258.739L145.363 254.364L146.899 239.007Z" fill="#263238"/>
<path d="M144.326 241.499C144.211 241.498 144.099 241.455 144.013 241.379C143.926 241.303 143.869 241.198 143.853 241.083C143.544 238.968 141.506 210.399 141.419 209.211C141.415 209.148 141.423 209.084 141.443 209.024C141.463 208.964 141.495 208.908 141.537 208.86C141.621 208.763 141.74 208.704 141.868 208.695C141.996 208.686 142.123 208.728 142.22 208.812C142.317 208.896 142.376 209.016 142.385 209.144C142.385 209.443 144.51 238.891 144.809 241.016C144.826 241.143 144.791 241.271 144.713 241.372C144.635 241.474 144.521 241.54 144.394 241.557L144.326 241.499Z" fill="#263238"/>
<path d="M141.908 252.423C141.792 252.424 141.68 252.384 141.591 252.31C141.503 252.235 141.444 252.131 141.425 252.017L138.093 230.769C138.082 230.707 138.084 230.643 138.098 230.581C138.112 230.52 138.138 230.462 138.175 230.41C138.212 230.359 138.259 230.316 138.313 230.283C138.367 230.25 138.427 230.228 138.489 230.219C138.617 230.199 138.748 230.231 138.852 230.307C138.957 230.382 139.028 230.497 139.049 230.624L142.381 251.872C142.392 251.935 142.391 251.998 142.377 252.06C142.363 252.122 142.337 252.18 142.3 252.231C142.263 252.282 142.216 252.326 142.162 252.359C142.108 252.392 142.048 252.413 141.985 252.423H141.908Z" fill="#263238"/>
<path d="M106.992 259.706C106.922 259.724 106.849 259.724 106.78 259.706C106.667 259.649 106.58 259.551 106.539 259.432C106.497 259.313 106.504 259.182 106.557 259.068L114.448 242.649C114.472 242.587 114.509 242.531 114.556 242.484C114.603 242.437 114.659 242.401 114.721 242.376C114.782 242.352 114.848 242.341 114.915 242.343C114.981 242.345 115.046 242.361 115.106 242.39C115.166 242.419 115.219 242.459 115.262 242.509C115.306 242.559 115.339 242.618 115.358 242.681C115.378 242.744 115.385 242.811 115.378 242.877C115.371 242.943 115.35 243.007 115.317 243.064L107.427 259.483C107.382 259.557 107.318 259.617 107.241 259.656C107.164 259.696 107.078 259.713 106.992 259.706Z" fill="#263238"/>
<path d="M115.497 254.547C115.423 254.546 115.351 254.529 115.284 254.498C115.17 254.44 115.084 254.34 115.042 254.22C115.001 254.099 115.008 253.967 115.062 253.851L121.436 241.102C121.464 241.045 121.503 240.994 121.551 240.952C121.599 240.91 121.654 240.878 121.715 240.859C121.775 240.839 121.839 240.831 121.902 240.837C121.966 240.842 122.027 240.86 122.083 240.89C122.141 240.918 122.192 240.956 122.234 241.004C122.276 241.052 122.308 241.107 122.329 241.167C122.35 241.227 122.358 241.291 122.354 241.354C122.35 241.418 122.334 241.48 122.306 241.537L115.931 254.276C115.891 254.357 115.829 254.426 115.753 254.474C115.676 254.521 115.587 254.547 115.497 254.547Z" fill="#263238"/>
<path d="M186.218 294.909C186.119 294.912 186.02 294.883 185.939 294.825C185.857 294.768 185.796 294.685 185.765 294.59C181.1 281.542 177.584 261.327 175.45 246.656C175.433 246.531 175.466 246.404 175.542 246.303C175.618 246.202 175.73 246.135 175.855 246.116C175.982 246.099 176.11 246.132 176.212 246.207C176.315 246.283 176.384 246.396 176.406 246.521C178.53 261.144 182.036 281.291 186.672 294.272C186.694 294.331 186.703 294.394 186.699 294.458C186.695 294.521 186.679 294.582 186.651 294.639C186.623 294.696 186.584 294.746 186.536 294.788C186.489 294.829 186.433 294.861 186.373 294.88C186.324 294.899 186.271 294.909 186.218 294.909Z" fill="#263238"/>
<path d="M174.977 240.205C174.861 240.204 174.748 240.162 174.66 240.086C174.571 240.01 174.513 239.905 174.495 239.79C173.915 235.385 173.596 232.594 173.596 232.575C173.587 232.485 173.603 232.394 173.642 232.312C173.681 232.23 173.742 232.161 173.818 232.111L184.906 224.897L171.269 222.675C171.184 222.663 171.104 222.627 171.038 222.573C170.971 222.518 170.921 222.447 170.892 222.366C170.863 222.285 170.856 222.198 170.871 222.113C170.886 222.028 170.924 221.949 170.979 221.883C170.979 221.883 174.031 218.213 177.015 213.732C180 209.25 189.658 194.415 189.755 194.319C189.826 194.211 189.936 194.135 190.063 194.108C190.189 194.081 190.322 194.104 190.431 194.174C190.537 194.245 190.61 194.354 190.635 194.479C190.661 194.604 190.636 194.734 190.566 194.84C190.469 194.995 180.821 209.772 177.817 214.273C175.547 217.672 173.258 220.599 172.244 221.854L186.278 224.153C186.374 224.168 186.463 224.213 186.534 224.28C186.605 224.347 186.653 224.434 186.674 224.53C186.692 224.625 186.681 224.723 186.643 224.813C186.605 224.902 186.542 224.978 186.461 225.032L174.572 232.758C174.668 233.579 174.958 236.091 175.431 239.664C175.448 239.791 175.413 239.919 175.336 240.02C175.258 240.122 175.143 240.188 175.016 240.205H174.977Z" fill="#263238"/>
<path d="M355.035 191.305C355.035 191.305 361.603 177.938 364.896 173.562C368.19 169.187 371.464 166.55 375.192 165.894C378.92 165.237 381.537 165.459 384.387 164.358C387.236 163.257 392.934 161.731 394.47 159.761C396.005 157.79 398.845 159.104 397.531 162.388C396.218 165.672 391.621 167.864 391.621 167.864L387.893 169.612C387.893 169.612 399.946 171.37 400.815 172.027C401.684 172.683 412.212 173.562 412.212 173.562C412.212 173.562 407.605 181.666 401.037 185.394C394.47 189.122 373.878 186.05 373.878 186.05L367.745 198.973L355.035 191.305Z" fill="white"/>
<path d="M367.733 199.457C367.649 199.454 367.566 199.431 367.492 199.39L354.782 191.721C354.679 191.657 354.604 191.558 354.571 191.442C354.537 191.326 354.547 191.202 354.598 191.093C354.868 190.543 361.233 177.639 364.507 173.274C368.033 168.57 371.403 166.069 375.131 165.422C376.532 165.171 377.759 165.045 378.937 164.929C380.743 164.837 382.528 164.492 384.239 163.905C384.886 163.664 385.669 163.394 386.519 163.104C389.261 162.138 393.009 160.882 394.11 159.463C394.437 158.963 394.938 158.602 395.516 158.448C396.093 158.295 396.707 158.36 397.239 158.632C398.118 159.134 398.852 160.467 398.012 162.573C396.64 165.992 392.043 168.213 391.85 168.3L389.571 169.372C393.357 169.942 400.359 171.062 401.16 171.642C401.75 172.009 407.293 172.665 412.306 173.081C412.387 173.086 412.465 173.112 412.533 173.156C412.602 173.2 412.657 173.261 412.695 173.332C412.733 173.404 412.752 173.484 412.749 173.566C412.747 173.647 412.724 173.726 412.683 173.795C412.499 174.133 407.941 182.063 401.334 185.81C395.095 189.345 377.073 186.979 374.214 186.573L368.235 199.129C368.206 199.191 368.164 199.245 368.113 199.29C368.061 199.335 368.001 199.369 367.936 199.39L367.733 199.457ZM355.66 191.122L367.53 198.279L373.432 185.839C373.477 185.746 373.552 185.669 373.644 185.621C373.736 185.572 373.841 185.554 373.944 185.569C374.146 185.569 394.448 188.573 400.793 184.97C406.096 181.966 410.152 175.959 411.418 173.979C408.317 173.709 401.392 173.013 400.552 172.414C399.934 172.018 393.54 170.927 387.851 170.096C387.749 170.082 387.653 170.035 387.58 169.962C387.507 169.889 387.46 169.793 387.446 169.691C387.429 169.588 387.447 169.482 387.496 169.39C387.544 169.297 387.622 169.223 387.716 169.179L391.435 167.431C391.483 167.431 395.887 165.277 397.114 162.206C397.722 160.68 397.307 159.781 396.766 159.463C396.427 159.305 396.042 159.279 395.685 159.39C395.328 159.5 395.025 159.74 394.834 160.061C393.559 161.703 389.802 162.959 386.789 164.021C385.958 164.301 385.186 164.572 384.548 164.813C382.756 165.428 380.887 165.792 378.995 165.895C377.836 166.011 376.629 166.127 375.257 166.368C371.819 166.977 368.641 169.353 365.27 173.853C362.373 177.726 356.781 188.872 355.66 191.122Z" fill="#263238"/>
<path d="M416.353 171.4C416.353 171.4 419.733 164.205 419.453 162.65C419.173 161.095 416.208 162.089 415.223 164.205C414.238 166.32 410.848 171.4 410.848 171.4H416.353Z" fill="white"/>
<path d="M416.35 171.883H410.845C410.758 171.88 410.673 171.855 410.598 171.809C410.524 171.763 410.462 171.699 410.42 171.622C410.373 171.549 410.348 171.463 410.348 171.376C410.348 171.288 410.373 171.203 410.42 171.129C410.42 171.129 413.791 166.059 414.757 163.992C415.094 163.244 415.636 162.606 416.319 162.152C417.002 161.697 417.8 161.445 418.62 161.423C418.923 161.446 419.21 161.571 419.433 161.778C419.656 161.985 419.802 162.262 419.847 162.563C420.146 164.185 417.287 170.376 416.708 171.603C416.675 171.675 416.625 171.738 416.563 171.786C416.501 171.835 416.428 171.868 416.35 171.883ZM411.743 170.917H416.041C417.326 168.155 419.151 163.722 418.939 162.736C418.939 162.572 418.842 162.418 418.533 162.379C417.913 162.426 417.316 162.639 416.806 162.996C416.297 163.353 415.892 163.84 415.636 164.407C414.449 166.641 413.15 168.814 411.743 170.917Z" fill="#263238"/>
<path d="M422.348 167.971C422.348 167.971 417.094 179.146 413.588 182.207C410.082 185.269 403.07 185.501 403.07 185.501C403.07 185.501 411.396 176.731 413.154 173.447C414.911 170.164 421.257 162.273 422.348 167.971Z" fill="white"/>
<path d="M403.074 185.983C402.982 185.982 402.891 185.954 402.814 185.902C402.737 185.851 402.677 185.778 402.64 185.693C402.601 185.606 402.589 185.509 402.604 185.415C402.62 185.321 402.662 185.233 402.727 185.162C402.813 185.075 411.033 176.412 412.733 173.225C414.036 170.781 418.257 165.073 420.981 165.498C421.946 165.643 422.555 166.464 422.825 167.884C422.854 167.978 422.854 168.079 422.825 168.173C422.603 168.637 417.484 179.474 413.94 182.574C410.395 185.674 403.412 185.974 403.123 185.983H403.074ZM420.662 166.445C418.73 166.445 414.954 171.11 413.582 173.679C412.211 176.248 406.464 182.584 404.282 184.921C406.406 184.708 410.801 184.013 413.273 181.849C416.451 179.068 421.222 169.226 421.85 167.913C421.657 167.014 421.309 166.532 420.836 166.454L420.662 166.445Z" fill="#263238"/>
<path d="M418.118 168.955C418.118 168.955 412.864 180.129 409.358 183.201C405.852 186.272 398.84 186.485 398.84 186.485C398.84 186.485 407.165 177.725 408.923 174.431C410.681 171.138 417.026 163.266 418.118 168.955Z" fill="white"/>
<path d="M398.844 186.969C398.752 186.967 398.662 186.939 398.585 186.888C398.507 186.836 398.447 186.764 398.41 186.679C398.368 186.594 398.354 186.498 398.369 186.404C398.385 186.311 398.43 186.224 398.497 186.157C398.584 186.061 406.793 177.397 408.493 174.21C409.797 171.767 413.998 166.068 416.741 166.483C417.707 166.628 418.325 167.449 418.596 168.859C418.629 168.956 418.629 169.062 418.596 169.159C418.383 169.613 413.254 180.459 409.72 183.55C406.185 186.64 399.192 186.949 398.902 186.959L398.844 186.969ZM416.432 167.43C414.452 167.43 410.714 172.095 409.353 174.664C407.904 177.378 402.234 183.569 400.052 185.906C402.176 185.694 406.571 184.998 409.043 182.835C412.221 180.053 416.992 170.212 417.62 168.898C417.427 168.009 417.079 167.517 416.596 167.449L416.432 167.43Z" fill="#263238"/>
<path d="M370.586 180.352C370.586 180.352 371.687 178.594 375.415 176.19C379.143 173.785 398.856 179.908 398.856 179.908C398.856 179.908 407.838 168.743 409.151 167.642C410.465 166.541 412.879 165.894 413.314 168.086C413.749 170.279 407.838 179.676 406.302 181.231C404.766 182.786 398.856 186.485 398.856 186.485C395.263 187.721 391.48 188.313 387.681 188.233C383.03 187.899 378.416 187.169 373.889 186.051" fill="white"/>
<path d="M388.614 188.737C388.296 188.737 387.977 188.737 387.648 188.737C382.962 188.397 378.312 187.661 373.75 186.535C373.622 186.504 373.512 186.424 373.443 186.311C373.374 186.199 373.352 186.064 373.383 185.936C373.414 185.808 373.494 185.697 373.607 185.629C373.719 185.56 373.854 185.538 373.982 185.569C378.478 186.677 383.059 187.404 387.677 187.742C391.396 187.81 395.098 187.235 398.62 186.042C399.161 185.695 404.531 182.285 405.941 180.875C407.612 179.204 413.185 169.99 412.818 168.175C412.797 167.963 412.719 167.76 412.591 167.59C412.464 167.419 412.291 167.288 412.093 167.209C411.617 167.138 411.13 167.176 410.67 167.32C410.21 167.464 409.789 167.71 409.437 168.039C408.472 168.88 402.31 176.384 399.209 180.238C399.148 180.313 399.065 180.368 398.972 180.395C398.879 180.423 398.78 180.422 398.688 180.392C393.27 178.712 378.56 174.742 375.653 176.616C372.099 178.915 370.998 180.614 370.988 180.624C370.92 180.733 370.812 180.81 370.687 180.839C370.562 180.868 370.43 180.846 370.322 180.779C370.213 180.711 370.135 180.602 370.106 180.477C370.077 180.352 370.099 180.221 370.167 180.112C370.167 180.045 371.365 178.248 375.131 175.805C378.898 173.361 395.539 178.412 398.669 179.378C400.05 177.659 407.583 168.329 408.819 167.296C409.301 166.864 409.877 166.552 410.501 166.385C411.125 166.217 411.78 166.198 412.412 166.33C412.774 166.461 413.092 166.691 413.331 166.993C413.569 167.295 413.72 167.657 413.764 168.039C414.276 170.579 407.969 180.257 406.627 181.619C405.072 183.174 399.335 186.786 399.093 186.941L399.007 186.989C395.659 188.127 392.15 188.717 388.614 188.737Z" fill="#263238"/>
<path d="M347.383 202.77L355.274 188.813L374.397 200.345L369.539 212.186L347.383 202.77Z" fill="white"/>
<path d="M369.54 212.669C369.476 212.678 369.411 212.678 369.347 212.669L347.191 203.252C347.128 203.227 347.071 203.188 347.026 203.138C346.981 203.087 346.948 203.027 346.93 202.962C346.901 202.902 346.887 202.836 346.887 202.769C346.887 202.702 346.901 202.636 346.93 202.576L354.821 188.61C354.888 188.5 354.995 188.421 355.12 188.388C355.18 188.362 355.244 188.349 355.308 188.349C355.373 188.349 355.437 188.362 355.497 188.388L374.61 199.929C374.707 199.991 374.78 200.085 374.815 200.194C374.85 200.303 374.846 200.421 374.804 200.528L369.974 212.369C369.925 212.487 369.831 212.58 369.714 212.63C369.658 212.651 369.599 212.664 369.54 212.669ZM348.07 202.537L369.318 211.548L373.828 200.547L355.477 189.479L348.07 202.537Z" fill="#263238"/>
<path d="M243.423 199.804L250.87 405.525H304.898L293.965 258.922C293.965 258.922 323.403 291.094 326.745 292.909C330.087 294.725 334.336 288.969 334.336 288.969L374.09 210.969L350.466 197.92L324.388 240.417L320.438 237.683L317.405 239.2C317.405 239.2 290.362 191.556 288.267 190.339C286.171 189.122 276.126 189.73 276.126 189.73L250.049 191.855L240.391 189.923L243.423 199.804Z" fill="#3835ED"/>
<path d="M304.897 405.999H250.869C250.743 405.996 250.623 405.946 250.533 405.858C250.444 405.77 250.391 405.651 250.386 405.525L242.939 199.882L239.81 190.079C239.786 189.997 239.782 189.911 239.801 189.828C239.82 189.745 239.859 189.669 239.916 189.606C239.972 189.542 240.043 189.495 240.123 189.468C240.202 189.441 240.288 189.435 240.37 189.451L250.029 191.383L276.058 189.258C277.11 189.2 286.295 188.678 288.478 189.934C290.661 191.19 313.908 232.121 317.569 238.573L320.196 237.259C320.271 237.217 320.356 237.195 320.442 237.195C320.528 237.195 320.613 237.217 320.688 237.259L324.214 239.703L350.049 197.641C350.115 197.538 350.218 197.464 350.336 197.434C350.454 197.403 350.58 197.419 350.687 197.477L374.359 210.525C374.47 210.587 374.552 210.688 374.59 210.808C374.628 210.929 374.618 211.059 374.562 211.172L334.799 289.172C334.577 289.482 330.221 295.325 326.551 293.316C323.489 291.645 299.74 265.857 294.592 260.256L305.38 405.458C305.384 405.525 305.375 405.592 305.351 405.656C305.328 405.719 305.292 405.776 305.245 405.825C305.203 405.877 305.15 405.92 305.09 405.95C305.03 405.98 304.964 405.997 304.897 405.999ZM251.332 405.033H304.376L293.481 258.961C293.474 258.86 293.498 258.758 293.552 258.671C293.606 258.585 293.686 258.517 293.78 258.479C293.871 258.437 293.973 258.426 294.07 258.447C294.168 258.468 294.256 258.52 294.321 258.594C304.491 269.701 324.387 291.075 326.976 292.456C329.873 294.06 333.901 288.709 333.949 288.651L373.451 211.134L350.59 198.53L324.726 240.63C324.693 240.687 324.648 240.736 324.595 240.774C324.542 240.813 324.481 240.839 324.416 240.852C324.352 240.866 324.285 240.867 324.22 240.854C324.155 240.84 324.094 240.813 324.04 240.775L320.331 238.206L317.549 239.597C317.44 239.652 317.314 239.663 317.197 239.627C317.08 239.591 316.981 239.511 316.922 239.404C306.162 220.435 289.579 191.817 287.947 190.716C286.315 189.75 278.83 190.011 276.077 190.175L250 192.3H249.864L240.979 190.542L243.876 199.64C243.882 199.682 243.882 199.724 243.876 199.766L251.332 405.033Z" fill="#263238"/>
<path d="M293.965 258.922L293.598 244.116L305.313 270.483L293.965 258.922Z" fill="#263238"/>
<path d="M305.319 270.967C305.256 270.968 305.193 270.955 305.135 270.93C305.077 270.905 305.025 270.869 304.981 270.822L293.633 259.232C293.547 259.144 293.495 259.027 293.488 258.904L293.121 244.165C293.12 244.054 293.157 243.946 293.225 243.858C293.294 243.771 293.39 243.709 293.498 243.682C293.607 243.655 293.722 243.667 293.823 243.716C293.924 243.766 294.004 243.85 294.048 243.953L305.764 270.32C305.81 270.423 305.817 270.539 305.785 270.647C305.754 270.755 305.684 270.848 305.59 270.909C305.508 270.956 305.413 270.976 305.319 270.967ZM294.454 258.72L303.793 268.243L294.135 246.532L294.454 258.72Z" fill="#263238"/>
<path d="M293.671 254.847C293.549 254.847 293.432 254.802 293.342 254.719C293.252 254.637 293.197 254.524 293.188 254.403L290.454 214.34C290.45 214.277 290.458 214.213 290.478 214.153C290.498 214.092 290.53 214.037 290.572 213.989C290.614 213.941 290.664 213.902 290.721 213.873C290.778 213.845 290.84 213.828 290.903 213.823C290.967 213.819 291.031 213.827 291.091 213.847C291.151 213.867 291.207 213.899 291.255 213.941C291.303 213.983 291.342 214.033 291.37 214.09C291.399 214.147 291.416 214.209 291.42 214.273L294.153 254.335C294.157 254.398 294.149 254.462 294.128 254.522C294.107 254.582 294.075 254.638 294.033 254.685C293.991 254.733 293.939 254.771 293.882 254.799C293.825 254.827 293.763 254.843 293.699 254.847H293.671Z" fill="#263238"/>
<path d="M295.181 241.499H295.113C294.988 241.48 294.876 241.413 294.8 241.312C294.724 241.211 294.691 241.084 294.707 240.959C294.997 238.872 296.455 222.067 296.465 221.903C296.482 221.776 296.546 221.66 296.644 221.577C296.743 221.495 296.868 221.453 296.996 221.459C297.123 221.471 297.239 221.532 297.321 221.63C297.402 221.728 297.442 221.853 297.431 221.98C297.373 222.676 295.963 238.979 295.664 241.094C295.643 241.207 295.584 241.31 295.495 241.384C295.407 241.458 295.296 241.499 295.181 241.499Z" fill="#263238"/>
<path d="M297.615 252.423H297.538C297.474 252.414 297.413 252.393 297.358 252.361C297.303 252.329 297.255 252.285 297.217 252.234C297.179 252.182 297.152 252.124 297.138 252.062C297.123 252 297.121 251.935 297.132 251.872L300.474 230.624C300.483 230.56 300.505 230.5 300.538 230.445C300.571 230.39 300.615 230.342 300.666 230.304C300.718 230.266 300.777 230.238 300.839 230.222C300.901 230.207 300.966 230.204 301.029 230.213C301.093 230.223 301.153 230.245 301.208 230.278C301.263 230.311 301.311 230.355 301.349 230.406C301.387 230.458 301.415 230.516 301.431 230.578C301.446 230.641 301.449 230.705 301.44 230.769L298.098 252.017C298.081 252.132 298.023 252.237 297.934 252.312C297.845 252.387 297.731 252.426 297.615 252.423Z" fill="#263238"/>
<path d="M326.16 252.104C326.047 252.101 325.938 252.059 325.851 251.985C325.765 251.911 325.707 251.81 325.687 251.698L324.151 242.919C324.141 242.855 324.142 242.79 324.157 242.728C324.171 242.665 324.198 242.606 324.235 242.553C324.272 242.501 324.319 242.456 324.374 242.422C324.428 242.388 324.489 242.364 324.552 242.354C324.616 242.343 324.681 242.345 324.743 242.359C324.806 242.373 324.865 242.4 324.918 242.437C324.97 242.474 325.015 242.521 325.049 242.576C325.083 242.63 325.107 242.691 325.117 242.754L326.663 251.534C326.682 251.66 326.652 251.79 326.578 251.894C326.504 251.999 326.392 252.07 326.267 252.094L326.16 252.104Z" fill="#263238"/>
<path d="M317.54 247.796C317.413 247.788 317.294 247.734 317.206 247.642C317.119 247.551 317.069 247.43 317.066 247.303L317.163 241.305C317.176 241.181 317.233 241.066 317.323 240.979C317.413 240.892 317.531 240.84 317.656 240.832C317.719 240.833 317.782 240.847 317.84 240.872C317.898 240.898 317.95 240.935 317.994 240.98C318.038 241.026 318.073 241.08 318.096 241.139C318.119 241.198 318.13 241.261 318.129 241.325L318.032 247.313C318.032 247.377 318.019 247.441 317.995 247.5C317.97 247.559 317.933 247.613 317.887 247.658C317.842 247.703 317.787 247.738 317.727 247.762C317.668 247.785 317.604 247.797 317.54 247.796Z" fill="#263238"/>
<path d="M253.301 294.909C253.247 294.924 253.19 294.924 253.137 294.909C253.017 294.868 252.918 294.78 252.862 294.667C252.806 294.553 252.797 294.421 252.837 294.301C253.571 292.253 254.305 289.935 255.02 287.405C255.037 287.342 255.067 287.282 255.107 287.23C255.147 287.178 255.197 287.134 255.254 287.102C255.311 287.069 255.373 287.048 255.439 287.039C255.504 287.031 255.57 287.035 255.633 287.052C255.697 287.07 255.756 287.099 255.808 287.139C255.86 287.179 255.904 287.229 255.937 287.286C255.969 287.343 255.99 287.406 255.999 287.471C256.007 287.536 256.003 287.602 255.986 287.666C255.261 290.216 254.518 292.562 253.784 294.62C253.744 294.712 253.675 294.79 253.589 294.842C253.502 294.894 253.401 294.918 253.301 294.909Z" fill="#263238"/>
<path d="M256.78 283.367H256.654C256.532 283.335 256.427 283.257 256.362 283.148C256.297 283.04 256.277 282.91 256.307 282.788C261.445 262.505 264.613 235.877 264.999 232.777L253.11 225.051C253.029 224.998 252.966 224.921 252.929 224.831C252.893 224.742 252.885 224.643 252.907 224.548C252.924 224.453 252.97 224.366 253.04 224.298C253.109 224.23 253.198 224.186 253.293 224.172L267.346 221.873C266.38 220.617 264.043 217.691 261.773 214.291C258.77 209.791 249.121 194.975 249.024 194.859C248.963 194.752 248.945 194.625 248.975 194.505C249.004 194.384 249.079 194.28 249.183 194.213C249.287 194.147 249.412 194.122 249.534 194.145C249.655 194.168 249.763 194.237 249.836 194.337C249.932 194.482 259.581 209.259 262.575 213.75C265.569 218.242 268.592 221.873 268.621 221.902C268.673 221.97 268.708 222.049 268.721 222.134C268.735 222.218 268.727 222.304 268.698 222.385C268.669 222.466 268.619 222.537 268.553 222.592C268.486 222.646 268.406 222.681 268.322 222.694L254.684 224.915L265.781 232.13C265.857 232.18 265.916 232.25 265.954 232.332C265.991 232.413 266.005 232.504 265.994 232.594C265.994 232.874 262.729 261.472 257.302 283.019C257.27 283.13 257.2 283.226 257.105 283.289C257.009 283.353 256.894 283.381 256.78 283.367Z" fill="#263238"/>
<path d="M198.055 170.917L198.142 191.557L221.911 205.928L241.169 192.581L239.392 169.169C239.392 169.169 224.509 178.827 222.538 179.233C220.568 179.638 198.055 170.917 198.055 170.917Z" fill="white"/>
<path d="M221.913 206.41C221.824 206.412 221.737 206.389 221.661 206.343L197.864 192.01C197.792 191.966 197.733 191.905 197.691 191.832C197.649 191.76 197.625 191.678 197.622 191.595L197.535 170.955C197.537 170.877 197.557 170.801 197.594 170.732C197.631 170.663 197.683 170.605 197.748 170.56C197.812 170.516 197.885 170.487 197.963 170.477C198.04 170.467 198.118 170.475 198.192 170.501C206.884 173.862 221.043 179.078 222.424 178.798C223.806 178.517 233.164 172.645 239.124 168.801C239.195 168.759 239.277 168.736 239.36 168.736C239.443 168.736 239.525 168.759 239.597 168.801C239.672 168.839 239.736 168.895 239.783 168.964C239.831 169.033 239.86 169.114 239.867 169.197L241.615 192.609C241.621 192.694 241.605 192.778 241.568 192.855C241.53 192.931 241.473 192.996 241.403 193.043L222.154 206.391C222.076 206.417 221.993 206.424 221.913 206.41ZM198.627 191.286L221.893 205.358L240.669 192.338L238.998 170.009C235.83 172.056 224.511 179.3 222.676 179.667C220.841 180.034 203.485 173.495 198.53 171.583L198.627 191.286Z" fill="#263238"/>
<path d="M198.386 187.606L220.957 182.014L198.145 172.703L198.386 187.606Z" fill="#263238"/>
<path d="M198.385 188.08C198.277 188.082 198.171 188.048 198.085 187.983C198.028 187.939 197.981 187.881 197.949 187.816C197.918 187.751 197.901 187.679 197.902 187.606L197.66 172.694C197.66 172.614 197.679 172.536 197.716 172.465C197.753 172.394 197.807 172.334 197.873 172.288C197.942 172.25 198.02 172.23 198.1 172.23C198.179 172.23 198.257 172.25 198.327 172.288L221.139 181.599C221.234 181.638 221.314 181.705 221.368 181.792C221.421 181.879 221.446 181.98 221.439 182.082C221.429 182.183 221.388 182.279 221.323 182.356C221.257 182.434 221.17 182.49 221.072 182.517L198.5 188.099L198.385 188.08ZM198.645 173.428L198.858 186.95L219.401 181.86L198.645 173.428Z" fill="#263238"/>
<path d="M239.395 145.09C239.395 145.09 239.172 135.683 241.799 130.429C242.641 128.728 243.078 126.856 243.078 124.958C243.078 123.06 242.641 121.188 241.799 119.486L244.224 118.607C242.904 117.502 241.517 116.48 240.071 115.546C239.414 115.324 240.505 109.422 238.535 106.351C236.565 103.28 234.594 102.633 234.594 102.633L233.503 106.573C233.503 106.573 227.592 99.571 224.308 98.2575C221.025 96.944 211.627 90.5985 211.386 93.8823C211.144 97.1661 212.487 98.4796 212.487 98.4796C212.487 98.4796 205.919 94.7515 200.897 96.0651C195.874 97.3786 191.045 100.45 192.137 101.541C193.228 102.633 198.048 107.23 198.048 107.23C198.048 107.23 186.892 107.665 185.579 108.978C184.697 109.999 184.039 111.193 183.647 112.484L189.993 115.768C189.993 115.768 184.304 115.324 182.111 118.83C179.919 122.335 179.484 123.659 181.02 124.296C182.538 125.069 183.999 125.947 185.395 126.923C185.395 126.923 183.86 129.55 185.617 133.925C187.375 138.301 191.519 147.94 191.519 147.94C191.519 147.94 193.054 132.177 194.146 129.116C195.237 126.054 208.816 118.83 210.777 118.173C212.738 117.516 226.539 121.234 227.418 121.234C228.297 121.234 233.976 143.342 235.29 144.211C236.603 145.081 239.395 145.09 239.395 145.09Z" fill="#263238"/>
<path d="M191.49 148.423C191.396 148.42 191.305 148.391 191.228 148.337C191.151 148.284 191.091 148.21 191.055 148.123C191.055 148.027 186.873 138.465 185.135 134.109C183.696 130.516 184.381 128.034 184.758 127.097C183.496 126.219 182.172 125.431 180.798 124.741C180.541 124.653 180.306 124.509 180.112 124.318C179.918 124.128 179.77 123.896 179.678 123.639C179.349 122.587 180.093 121.109 181.677 118.569C183.164 116.183 186.091 115.498 188.052 115.324L183.377 112.909C183.276 112.861 183.196 112.777 183.151 112.674C183.107 112.571 183.101 112.456 183.136 112.349C183.558 110.978 184.269 109.713 185.222 108.64C186.419 107.443 193.721 106.96 196.889 106.796C195.469 105.434 192.601 102.691 191.789 101.879C191.653 101.751 191.556 101.587 191.512 101.405C191.467 101.223 191.476 101.032 191.538 100.856C192.011 99.1075 196.802 96.635 200.762 95.6016C204.548 94.6358 209.068 96.3163 211.318 97.3497C210.943 96.2248 210.801 95.035 210.903 93.8534C210.905 93.6132 210.97 93.3776 211.092 93.1706C211.214 92.9637 211.389 92.7927 211.598 92.6751C213.057 91.8735 216.35 93.5251 220.841 95.9589C222.271 96.7316 223.623 97.4656 224.482 97.8133C227.254 98.9144 231.668 103.753 233.271 105.54L234.121 102.469C234.14 102.405 234.171 102.346 234.212 102.295C234.254 102.243 234.305 102.201 234.363 102.169C234.422 102.141 234.486 102.126 234.551 102.126C234.616 102.126 234.681 102.141 234.74 102.169C234.826 102.169 236.893 102.913 238.931 106.032C240.254 108.09 240.274 111.267 240.283 113.373C240.27 113.947 240.296 114.521 240.361 115.092C241.809 116.035 243.199 117.064 244.523 118.173C244.59 118.229 244.641 118.301 244.671 118.382C244.702 118.463 244.711 118.551 244.697 118.637C244.68 118.72 244.642 118.798 244.586 118.862C244.53 118.926 244.459 118.975 244.378 119.004L242.447 119.699C243.218 121.417 243.598 123.285 243.557 125.167C243.517 127.05 243.059 128.9 242.215 130.584C239.675 135.674 239.858 144.926 239.858 145.023C239.858 145.153 239.806 145.278 239.714 145.371C239.67 145.417 239.618 145.454 239.56 145.479C239.502 145.504 239.439 145.516 239.376 145.515C239.25 145.515 236.362 145.515 234.952 144.55C234.237 144.076 233.194 140.928 230.422 131.704C229.176 127.58 227.65 122.49 227.129 121.631C226.685 121.573 225.709 121.341 223.623 120.858C219.885 119.979 212.11 118.144 210.855 118.559C208.807 119.245 195.517 126.421 194.523 129.183C193.47 132.158 191.944 147.727 191.925 147.882C191.915 147.989 191.87 148.09 191.797 148.169C191.723 148.248 191.625 148.299 191.519 148.316L191.49 148.423ZM189.384 116.232C187.955 116.232 184.121 116.483 182.488 119.129C181.204 121.196 180.383 122.712 180.557 123.398C180.557 123.524 180.702 123.717 181.146 123.91C182.691 124.692 184.179 125.583 185.598 126.576C185.701 126.645 185.772 126.75 185.799 126.87C185.826 126.991 185.806 127.117 185.743 127.223C185.743 127.223 184.362 129.724 185.994 133.8C187.279 137.006 189.858 143.111 191.162 146.085C191.606 141.797 192.745 131.482 193.624 129C194.851 125.571 208.962 118.298 210.565 117.767C211.956 117.294 217.644 118.569 223.845 120.027C225.516 120.423 227.1 120.79 227.351 120.8C227.988 120.8 228.23 121.167 231.35 131.54C232.847 136.495 234.884 143.265 235.512 143.874C236.569 144.375 237.723 144.639 238.893 144.646C238.893 142.589 239.028 134.92 241.355 130.265C242.153 128.63 242.568 126.835 242.568 125.016C242.568 123.197 242.153 121.401 241.355 119.767C241.322 119.705 241.302 119.638 241.298 119.568C241.293 119.499 241.303 119.429 241.328 119.364C241.353 119.298 241.391 119.239 241.441 119.191C241.491 119.142 241.551 119.104 241.616 119.081L243.219 118.501C242.163 117.608 241.047 116.788 239.878 116.048C239.308 115.865 239.308 115.169 239.289 113.479C239.289 111.489 239.289 108.486 238.091 106.66C237.293 105.321 236.187 104.192 234.865 103.367L233.899 106.747C233.877 106.832 233.832 106.909 233.769 106.971C233.706 107.032 233.627 107.075 233.542 107.095C233.456 107.112 233.366 107.106 233.283 107.077C233.2 107.049 233.126 106.998 233.069 106.931C233.011 106.863 227.196 100.006 224.067 98.7502C222.786 98.1704 221.535 97.5256 220.32 96.8185C217.422 95.2636 213.115 92.9552 212.004 93.5251C211.956 93.5251 211.83 93.6216 211.811 93.9211C211.618 96.9055 212.777 98.1321 212.777 98.1514C212.853 98.2379 212.896 98.3496 212.896 98.4653C212.896 98.5809 212.853 98.6926 212.777 98.7792C212.706 98.8707 212.604 98.9337 212.491 98.9568C212.377 98.9798 212.26 98.9614 212.159 98.9047C212.101 98.9047 205.707 95.3022 200.916 96.5481C196.435 97.7167 192.649 100.131 192.378 101.126C193.46 102.285 198.241 106.844 198.289 106.921C198.358 106.987 198.405 107.071 198.426 107.164C198.446 107.257 198.439 107.353 198.405 107.442C198.371 107.531 198.312 107.607 198.235 107.662C198.157 107.717 198.065 107.748 197.971 107.752C193.412 107.926 186.632 108.544 185.821 109.365C185.062 110.207 184.477 111.192 184.101 112.262L190.08 115.353C190.177 115.405 190.254 115.489 190.298 115.591C190.341 115.693 190.35 115.806 190.321 115.913C190.289 116.02 190.222 116.113 190.131 116.178C190.04 116.242 189.931 116.275 189.819 116.27C189.819 116.27 189.713 116.232 189.384 116.232Z" fill="#263238"/>
<path d="M203.315 112.707C203.315 112.707 188.653 127.194 188.431 129.551C188.209 131.907 194.777 169.381 195.192 170.695C195.607 172.008 211.167 181.86 215.977 182.951C220.786 184.042 225.828 182.729 227.142 181.638C228.455 180.546 241.146 173.322 242.46 167.411C243.773 161.5 235.535 121.235 234.569 119.709C233.603 118.183 213.166 108.322 203.315 112.707Z" fill="white"/>
<path d="M219.809 183.84C218.494 183.845 217.182 183.705 215.898 183.425C211.31 182.382 195.306 172.501 194.756 170.869C194.157 169.072 187.734 131.927 187.947 129.532C188.159 127.136 200.502 114.812 202.975 112.379C203.015 112.336 203.065 112.303 203.12 112.282C212.855 107.955 233.881 117.478 234.992 119.487C235.9 121.071 244.264 161.471 242.921 167.537C241.801 172.588 232.857 178.441 229.042 180.942C228.26 181.454 227.652 181.85 227.439 182.034C226.348 182.951 223.238 183.84 219.809 183.84ZM203.593 113.113C197.962 118.656 189.057 127.977 188.912 129.599C188.719 131.772 195.123 168.899 195.673 170.541C196.349 171.815 211.281 181.387 216.11 182.478C220.939 183.57 225.691 182.246 226.86 181.271C227.111 181.058 227.681 180.682 228.55 180.112C232.268 177.678 240.98 171.98 242.013 167.305C243.279 161.626 235.059 121.583 234.19 119.98C233.379 118.734 213.319 108.95 203.593 113.113Z" fill="#263238"/>
<path d="M203.312 112.706C203.312 112.706 208.393 115.218 210.489 116.154C212.584 117.091 214.902 113.827 214.902 113.827C214.902 113.827 232.896 119.998 234.605 119.709C236.315 119.419 229.776 112.658 223.015 110.099C216.255 107.539 203.351 107.858 203.312 112.706Z" fill="#263238"/>
<path d="M234.511 120.192C232.183 120.192 218.633 115.614 215.078 114.397C214.402 115.227 212.335 117.497 210.249 116.599C208.163 115.701 203.112 113.16 203.063 113.131C202.982 113.092 202.914 113.03 202.866 112.953C202.818 112.876 202.793 112.787 202.793 112.697C202.813 112.127 202.976 111.571 203.268 111.082C203.56 110.592 203.972 110.184 204.464 109.896C208.327 107.279 217.841 107.617 223.191 109.654C229.121 111.905 235.496 117.729 235.322 119.477C235.308 119.653 235.234 119.819 235.113 119.947C234.992 120.075 234.83 120.158 234.656 120.182L234.511 120.192ZM214.904 113.344C214.959 113.335 215.014 113.335 215.069 113.344C221.742 115.633 232.608 119.139 234.385 119.206C233.979 117.883 228.764 112.755 222.892 110.514C217.792 108.582 208.559 108.264 205.063 110.659C204.747 110.842 204.473 111.089 204.26 111.386C204.047 111.682 203.899 112.02 203.826 112.378C204.937 112.919 208.916 114.889 210.693 115.672C212.113 116.299 213.939 114.319 214.557 113.508C214.6 113.457 214.653 113.417 214.713 113.388C214.773 113.36 214.838 113.345 214.904 113.344Z" fill="#263238"/>
<path d="M216.735 154.132C216.61 154.142 216.484 154.142 216.359 154.132L215.132 153.929C214.264 154.071 213.385 154.142 212.505 154.141C211.923 154.102 211.37 153.874 210.93 153.492C210.489 153.111 210.184 152.596 210.062 152.026C210.035 151.902 210.058 151.773 210.124 151.665C210.191 151.557 210.296 151.479 210.419 151.447C210.542 151.417 210.671 151.437 210.78 151.502C210.888 151.567 210.967 151.672 210.998 151.794C210.998 151.852 211.375 153.185 212.505 153.185C213.353 153.188 214.2 153.117 215.036 152.973H215.248L216.562 153.185C217.73 153.388 220.251 152.132 220.425 151.582C220.599 151.031 219.334 145.439 218.493 141.392C217.527 136.64 216.909 133.666 216.909 133.096C216.909 131.666 219.575 128.74 220.106 128.17C220.198 128.081 220.321 128.031 220.449 128.031C220.577 128.031 220.7 128.081 220.792 128.17C220.837 128.215 220.873 128.268 220.898 128.327C220.922 128.386 220.935 128.449 220.935 128.513C220.935 128.577 220.922 128.64 220.898 128.699C220.873 128.758 220.837 128.811 220.792 128.856C219.575 130.16 217.894 132.352 217.894 133.125C217.894 133.666 218.725 137.684 219.459 141.228C221.014 148.752 221.507 151.34 221.391 151.852C221.043 152.895 218.281 154.132 216.735 154.132Z" fill="#263238"/>
<path d="M221.599 152.208C221.308 152.206 221.017 152.18 220.73 152.131C220.668 152.118 220.609 152.094 220.556 152.058C220.504 152.023 220.459 151.977 220.424 151.924C220.389 151.871 220.365 151.812 220.353 151.75C220.341 151.688 220.341 151.623 220.354 151.561C220.365 151.499 220.389 151.439 220.424 151.385C220.459 151.332 220.505 151.287 220.558 151.251C220.611 151.216 220.671 151.192 220.734 151.181C220.797 151.169 220.861 151.171 220.923 151.185C221.466 151.305 222.033 151.254 222.546 151.04C222.658 150.959 222.734 150.838 222.758 150.702L222.971 149.388C222.994 149.262 223.066 149.151 223.171 149.077C223.275 149.003 223.405 148.972 223.531 148.992C223.594 149.002 223.654 149.023 223.708 149.056C223.762 149.089 223.808 149.133 223.845 149.184C223.882 149.235 223.908 149.293 223.922 149.355C223.937 149.417 223.938 149.481 223.927 149.543L223.705 150.856C223.673 151.05 223.603 151.235 223.498 151.401C223.394 151.567 223.257 151.71 223.096 151.822C222.646 152.095 222.126 152.229 221.599 152.208Z" fill="#263238"/>
<path d="M215.129 153.889C215.032 153.89 214.937 153.859 214.859 153.802C214.324 153.389 213.934 152.816 213.745 152.167C213.556 151.518 213.577 150.826 213.806 150.19C213.82 150.123 213.849 150.06 213.889 150.005C213.929 149.95 213.981 149.904 214.04 149.871C214.099 149.837 214.165 149.816 214.233 149.81C214.301 149.803 214.37 149.811 214.434 149.833C214.499 149.855 214.558 149.891 214.608 149.937C214.658 149.984 214.697 150.04 214.724 150.103C214.75 150.166 214.763 150.234 214.761 150.302C214.76 150.371 214.744 150.438 214.714 150.499C214.551 150.94 214.531 151.421 214.658 151.874C214.785 152.326 215.051 152.728 215.419 153.02C215.5 153.081 215.56 153.166 215.59 153.262C215.621 153.359 215.62 153.463 215.587 153.559C215.555 153.655 215.494 153.739 215.412 153.798C215.329 153.857 215.231 153.889 215.129 153.889Z" fill="#263238"/>
<path d="M211.19 167.237C211.07 167.237 210.955 167.196 210.862 167.121C210.772 167.029 210.723 166.906 210.723 166.778C210.723 166.65 210.772 166.527 210.862 166.435C210.939 166.348 218.405 158.119 226.943 161.49C227.002 161.514 227.055 161.548 227.101 161.593C227.146 161.637 227.183 161.69 227.208 161.748C227.233 161.806 227.246 161.869 227.247 161.932C227.248 161.996 227.236 162.059 227.213 162.118C227.19 162.177 227.155 162.231 227.11 162.276C227.066 162.322 227.013 162.358 226.955 162.383C226.897 162.408 226.834 162.422 226.771 162.422C226.707 162.423 226.644 162.412 226.585 162.388C218.675 159.269 211.654 166.995 211.586 167.082C211.536 167.136 211.475 167.179 211.406 167.205C211.337 167.232 211.263 167.243 211.19 167.237Z" fill="#263238"/>
<path d="M196.087 137.084C195.971 137.085 195.856 137.062 195.749 137.016C195.512 136.925 195.32 136.744 195.215 136.513C195.11 136.281 195.101 136.018 195.189 135.78C196.218 133.295 197.942 131.159 200.153 129.627C203.842 127.165 210.236 130.081 210.507 130.207C210.622 130.261 210.726 130.337 210.812 130.431C210.898 130.525 210.964 130.635 211.008 130.755C211.051 130.874 211.071 131.001 211.065 131.129C211.06 131.256 211.029 131.381 210.975 131.496C210.921 131.612 210.845 131.715 210.751 131.801C210.657 131.887 210.547 131.954 210.427 131.998C210.308 132.041 210.181 132.061 210.053 132.055C209.926 132.049 209.801 132.019 209.686 131.965C208.121 131.231 203.533 129.685 201.225 131.231C199.356 132.544 197.891 134.354 196.995 136.456C196.926 136.641 196.802 136.8 196.639 136.912C196.477 137.024 196.284 137.084 196.087 137.084Z" fill="#263238"/>
<path d="M234.391 132.93C234.215 132.932 234.042 132.885 233.89 132.794C233.738 132.704 233.615 132.574 233.532 132.419C232.437 130.554 230.766 129.097 228.77 128.265C227.909 127.953 226.981 127.873 226.08 128.032C225.178 128.191 224.334 128.585 223.632 129.173C223.538 129.26 223.427 129.326 223.307 129.37C223.187 129.413 223.06 129.432 222.932 129.426C222.805 129.419 222.68 129.388 222.564 129.333C222.449 129.278 222.346 129.201 222.26 129.106C222.089 128.916 222 128.666 222.013 128.411C222.026 128.156 222.139 127.916 222.328 127.744C223.294 126.917 224.462 126.362 225.713 126.136C226.964 125.91 228.253 126.022 229.446 126.459C231.883 127.452 233.921 129.225 235.241 131.501C235.302 131.613 235.34 131.736 235.353 131.863C235.366 131.99 235.354 132.118 235.317 132.24C235.28 132.362 235.219 132.476 235.138 132.575C235.057 132.673 234.958 132.755 234.845 132.815C234.706 132.89 234.55 132.93 234.391 132.93Z" fill="#263238"/>
<path d="M205.829 142.686C206.736 142.686 207.471 141.657 207.471 140.388C207.471 139.118 206.736 138.089 205.829 138.089C204.923 138.089 204.188 139.118 204.188 140.388C204.188 141.657 204.923 142.686 205.829 142.686Z" fill="#263238"/>
<path d="M227.061 137.103C227.061 138.369 226.317 139.402 225.419 139.402C224.521 139.402 223.777 138.369 223.777 137.103C223.777 135.838 224.511 134.805 225.419 134.805C226.327 134.805 227.061 135.838 227.061 137.103Z" fill="#263238"/>
<path d="M191.104 145.525C191.104 145.525 186.951 139.624 184.981 144.211C183.011 148.799 184.981 152.527 186.913 155.598C188.844 158.67 193.036 160.196 193.036 160.196L191.104 145.525Z" fill="white"/>
<path d="M193.036 160.679C192.981 160.689 192.926 160.689 192.871 160.679C192.698 160.621 188.535 159.057 186.507 155.85C184.295 152.412 182.527 148.607 184.498 144.019C184.647 143.506 184.935 143.044 185.331 142.684C185.726 142.324 186.213 142.081 186.738 141.981C188.931 141.759 191.21 144.879 191.461 145.246C191.51 145.307 191.54 145.38 191.548 145.458L193.48 160.119C193.489 160.203 193.477 160.287 193.445 160.365C193.413 160.442 193.362 160.511 193.296 160.564C193.223 160.627 193.132 160.667 193.036 160.679ZM186.97 142.947H186.835C186.255 143.005 185.773 143.497 185.386 144.396C183.503 148.78 185.386 152.335 187.318 155.329C188.642 157.112 190.41 158.517 192.446 159.405L190.602 145.699C189.964 144.85 188.284 142.947 186.961 142.947H186.97Z" fill="#263238"/>
<path d="M239.866 138.311C239.866 138.311 240.301 134.148 242.058 134.583C243.816 135.017 247.09 138.311 245.12 142.898C243.15 147.486 241.179 152.315 241.179 152.315L239.402 143.343L239.866 138.311Z" fill="white"/>
<path d="M241.173 152.798C241.069 152.785 240.972 152.74 240.896 152.669C240.82 152.598 240.768 152.504 240.748 152.402L239 143.429C238.995 143.384 238.995 143.339 239 143.294L239.435 138.262C239.435 137.953 239.792 135.21 241.019 134.35C241.192 134.228 241.389 134.144 241.598 134.106C241.806 134.068 242.021 134.075 242.226 134.128C242.961 134.392 243.635 134.799 244.211 135.326C244.786 135.854 245.251 136.491 245.577 137.2C246.023 138.119 246.255 139.128 246.255 140.15C246.255 141.172 246.023 142.181 245.577 143.101C243.646 147.64 241.656 152.46 241.637 152.508C241.599 152.598 241.534 152.675 241.451 152.726C241.368 152.778 241.271 152.803 241.173 152.798ZM239.908 143.313L241.337 150.644C242.081 148.857 243.375 145.718 244.669 142.714C245.05 141.92 245.247 141.05 245.247 140.169C245.247 139.289 245.05 138.419 244.669 137.625C244.135 136.443 243.156 135.52 241.946 135.055C241.874 135.034 241.798 135.029 241.724 135.043C241.65 135.056 241.58 135.087 241.521 135.133C240.874 135.587 240.458 137.344 240.352 138.349L239.908 143.313Z" fill="#263238"/>
<path d="M428.305 405.997H23.479C23.3509 405.997 23.2281 405.946 23.1375 405.856C23.047 405.765 22.9961 405.642 22.9961 405.514C22.9961 405.386 23.047 405.263 23.1375 405.173C23.2281 405.082 23.3509 405.031 23.479 405.031H428.305C428.433 405.031 428.555 405.082 428.646 405.173C428.737 405.263 428.787 405.386 428.787 405.514C428.785 405.641 428.733 405.763 428.643 405.853C428.553 405.943 428.432 405.995 428.305 405.997Z" fill="#263238"/>
</svg>
