<svg width="270" height="40" viewBox="0 0 270 40" fill="none" xmlns="http://www.w3.org/2000/svg">
<rect width="40" height="40" rx="20" fill="#1F1E17"/>
<path d="M25.5645 17.1426C25.5645 17.2064 25.5645 17.2702 25.5645 17.334C25.5645 17.3978 25.5645 17.4616 25.5645 17.5254C25.5645 18.4733 25.3867 19.4303 25.0312 20.3965C24.6758 21.3626 24.154 22.2376 23.4658 23.0215C22.7777 23.8053 21.9232 24.4479 20.9023 24.9492C19.8906 25.4414 18.724 25.6875 17.4023 25.6875C17.0013 25.6875 16.6048 25.6602 16.2129 25.6055C15.821 25.5417 15.4404 25.4551 15.0713 25.3457C14.7021 25.2363 14.3444 25.1042 13.998 24.9492C13.6517 24.7852 13.319 24.6029 13 24.4023C13.1185 24.4115 13.2347 24.4183 13.3486 24.4229C13.4626 24.4274 13.5788 24.4297 13.6973 24.4297C14.3626 24.4297 14.9984 24.3226 15.6045 24.1084C16.2106 23.8942 16.7598 23.5957 17.252 23.2129C16.623 23.1947 16.0648 22.9987 15.5771 22.625C15.0895 22.2513 14.7546 21.7819 14.5723 21.2168C14.6634 21.2259 14.7523 21.235 14.8389 21.2441C14.9255 21.2533 15.0189 21.2578 15.1191 21.2578C15.2467 21.2578 15.3743 21.251 15.502 21.2373C15.6296 21.2236 15.7526 21.1986 15.8711 21.1621C15.2148 21.0254 14.668 20.6973 14.2305 20.1777C13.793 19.6582 13.5742 19.0475 13.5742 18.3457V18.3184C13.7656 18.4186 13.9707 18.5007 14.1895 18.5645C14.4082 18.6283 14.6315 18.6647 14.8594 18.6738C14.4766 18.4186 14.1689 18.0814 13.9365 17.6621C13.7041 17.2428 13.5879 16.7826 13.5879 16.2812C13.5879 16.0169 13.6221 15.764 13.6904 15.5225C13.7588 15.2809 13.8522 15.0553 13.9707 14.8457C14.3262 15.2741 14.7227 15.666 15.1602 16.0215C15.5977 16.377 16.0671 16.6846 16.5684 16.9443C17.0697 17.2041 17.6029 17.4115 18.168 17.5664C18.724 17.7214 19.2982 17.8125 19.8906 17.8398C19.8724 17.7305 19.8564 17.6211 19.8428 17.5117C19.8291 17.4023 19.8223 17.293 19.8223 17.1836C19.8223 16.7917 19.8952 16.418 20.041 16.0625C20.196 15.7161 20.4033 15.4131 20.6631 15.1533C20.9229 14.8936 21.2259 14.6908 21.5723 14.5449C21.9186 14.39 22.2923 14.3125 22.6934 14.3125C23.1035 14.3125 23.4886 14.3945 23.8486 14.5586C24.2087 14.7227 24.5208 14.9414 24.7852 15.2148C25.1133 15.1602 25.43 15.0736 25.7354 14.9551C26.0407 14.8366 26.3301 14.6953 26.6035 14.5312C26.5033 14.8594 26.3438 15.1602 26.125 15.4336C25.9062 15.707 25.6465 15.9303 25.3457 16.1035C25.6374 16.0762 25.9222 16.0238 26.2002 15.9463C26.4782 15.8688 26.7448 15.7754 27 15.666C26.8086 15.9486 26.5898 16.2152 26.3438 16.4658C26.0977 16.7165 25.8379 16.9421 25.5645 17.1426Z" fill="white"/>
<rect x="50" width="40" height="40" rx="20" fill="#1F1E17"/>
<g clip-path="url(#clip0_386_2898)">
<path d="M76.5625 20C76.5625 20.8477 76.4167 21.6497 76.125 22.4062C75.8333 23.1628 75.43 23.8372 74.915 24.4297C74.4001 25.0221 73.7962 25.5189 73.1035 25.9199C72.4017 26.3118 71.6497 26.5716 70.8477 26.6992V21.9551H72.4199L72.7207 20H70.8477V18.7285C70.8477 18.4551 70.9251 18.209 71.0801 17.9902C71.235 17.7715 71.5221 17.6621 71.9414 17.6621H72.8027V15.9941C72.8027 15.9941 72.6432 15.9736 72.3242 15.9326C72.0052 15.8916 71.6589 15.8711 71.2852 15.8711C70.5104 15.8711 69.8883 16.0967 69.4189 16.5479C68.9495 16.999 68.7148 17.653 68.7148 18.5098V20H66.9922V21.9551H68.7148V26.6992C67.9128 26.5716 67.1608 26.3118 66.459 25.9199C65.7663 25.5189 65.1624 25.0221 64.6475 24.4297C64.1325 23.8372 63.7292 23.1628 63.4375 22.4062C63.1458 21.6497 63 20.8477 63 20C63 19.0612 63.1777 18.1816 63.5332 17.3613C63.8887 16.541 64.374 15.8232 64.9893 15.208C65.6045 14.5928 66.3223 14.1074 67.1426 13.752C67.9629 13.3965 68.8424 13.2188 69.7812 13.2188C70.7201 13.2188 71.5996 13.3965 72.4199 13.752C73.2402 14.1074 73.958 14.5928 74.5732 15.208C75.1885 15.8232 75.6738 16.541 76.0293 17.3613C76.3848 18.1816 76.5625 19.0612 76.5625 20Z" fill="white"/>
</g>
<rect x="100" width="40" height="40" rx="20" fill="#1F1E17"/>
<g clip-path="url(#clip1_386_2898)">
<path d="M120.328 13.1777C120.975 13.1777 121.595 13.2826 122.188 13.4922C122.78 13.7109 123.302 14.0163 123.753 14.4082C124.204 14.8001 124.566 15.2695 124.84 15.8164C125.113 16.3724 125.25 16.9876 125.25 17.6621C125.25 18.3001 125.168 18.9382 125.004 19.5762C124.84 20.2233 124.585 20.8021 124.238 21.3125C123.892 21.8229 123.454 22.2422 122.926 22.5703C122.397 22.8893 121.768 23.0488 121.039 23.0488C120.693 23.0488 120.333 22.9645 119.959 22.7959C119.585 22.6273 119.316 22.3835 119.152 22.0645C118.833 23.2949 118.599 24.154 118.448 24.6416C118.298 25.1292 117.881 25.8424 117.197 26.7812C117.124 26.8086 117.086 26.8223 117.081 26.8223C117.076 26.8223 117.051 26.7949 117.006 26.7402C116.979 26.485 116.951 26.2298 116.924 25.9746C116.896 25.7194 116.883 25.4642 116.883 25.209C116.883 24.7897 116.924 24.3294 117.006 23.8281C117.088 23.3359 117.19 22.8346 117.313 22.3242C117.437 21.8138 117.562 21.3171 117.689 20.834C117.826 20.3418 117.94 19.8906 118.031 19.4805C117.931 19.2708 117.863 19.0452 117.826 18.8037C117.79 18.5622 117.771 18.3275 117.771 18.0996C117.771 17.5527 117.904 17.1243 118.168 16.8145C118.432 16.5046 118.726 16.3154 119.05 16.2471C119.373 16.1787 119.667 16.2402 119.932 16.4316C120.205 16.623 120.342 16.9421 120.342 17.3887C120.342 17.9264 120.221 18.4482 119.979 18.9541C119.738 19.46 119.617 19.9727 119.617 20.4922C119.617 20.8477 119.743 21.137 119.993 21.3604C120.244 21.5837 120.538 21.6953 120.875 21.6953C121.349 21.6953 121.745 21.5449 122.064 21.2441C122.374 20.9434 122.625 20.5788 122.816 20.1504C123.008 19.722 123.145 19.2663 123.227 18.7832C123.309 18.3001 123.35 17.8763 123.35 17.5117C123.35 17.0286 123.268 16.6003 123.104 16.2266C122.939 15.8529 122.714 15.5384 122.427 15.2832C122.14 15.028 121.796 14.8366 121.395 14.709C121.003 14.5814 120.574 14.5176 120.109 14.5176C119.562 14.5176 119.057 14.6087 118.592 14.791C118.127 14.9733 117.721 15.2308 117.375 15.5635C117.029 15.8962 116.76 16.2949 116.568 16.7598C116.368 17.2155 116.268 17.7214 116.268 18.2773C116.268 18.806 116.375 19.2139 116.589 19.501C116.803 19.7881 116.91 19.9954 116.91 20.123C116.91 20.2324 116.874 20.4215 116.801 20.6904C116.728 20.9593 116.623 21.0938 116.486 21.0938C116.158 21.0938 115.787 20.8317 115.372 20.3076C114.957 19.7835 114.75 19.0384 114.75 18.0723C114.75 17.3158 114.91 16.6367 115.229 16.0352C115.548 15.4245 115.967 14.9095 116.486 14.4902C117.006 14.071 117.603 13.7474 118.277 13.5195C118.943 13.2917 119.626 13.1777 120.328 13.1777Z" fill="white"/>
</g>
<rect x="150" width="40" height="40" rx="20" fill="#1F1E17"/>
<path d="M169.125 16.8555C169.562 16.8555 169.973 16.9375 170.355 17.1016C170.738 17.2656 171.071 17.4889 171.354 17.7715C171.636 18.054 171.859 18.3867 172.023 18.7695C172.188 19.1523 172.27 19.5625 172.27 20C172.27 20.4284 172.188 20.834 172.023 21.2168C171.859 21.5996 171.636 21.9346 171.354 22.2217C171.071 22.5088 170.738 22.7344 170.355 22.8984C169.973 23.0625 169.562 23.1445 169.125 23.1445C168.697 23.1445 168.291 23.0625 167.908 22.8984C167.525 22.7344 167.19 22.5088 166.903 22.2217C166.616 21.9346 166.391 21.5996 166.227 21.2168C166.062 20.834 165.98 20.4284 165.98 20C165.98 19.5625 166.062 19.1523 166.227 18.7695C166.391 18.3867 166.616 18.054 166.903 17.7715C167.19 17.4889 167.525 17.2656 167.908 17.1016C168.291 16.9375 168.697 16.8555 169.125 16.8555ZM169.125 22.0371C169.69 22.0371 170.173 21.8389 170.574 21.4424C170.975 21.0459 171.176 20.5651 171.176 20C171.176 19.4349 170.975 18.9518 170.574 18.5508C170.173 18.1497 169.69 17.9492 169.125 17.9492C168.56 17.9492 168.079 18.1497 167.683 18.5508C167.286 18.9518 167.088 19.4349 167.088 20C167.088 20.5651 167.288 21.0459 167.689 21.4424C168.09 21.8389 168.569 22.0371 169.125 22.0371ZM173.131 16.7324C173.131 16.9329 173.06 17.1038 172.919 17.2451C172.778 17.3864 172.602 17.457 172.393 17.457C172.192 17.457 172.021 17.3864 171.88 17.2451C171.739 17.1038 171.668 16.9329 171.668 16.7324C171.668 16.5228 171.739 16.3473 171.88 16.2061C172.021 16.0648 172.192 15.9941 172.393 15.9941C172.602 15.9941 172.778 16.0648 172.919 16.2061C173.06 16.3473 173.131 16.5228 173.131 16.7324ZM175.209 17.4707C175.227 17.7259 175.241 18.0859 175.25 18.5508C175.25 19.0065 175.25 19.4873 175.25 19.9932C175.25 20.499 175.25 20.9844 175.25 21.4492C175.241 21.9141 175.227 22.2741 175.209 22.5293C175.191 23.0124 175.111 23.4704 174.97 23.9033C174.828 24.3363 174.58 24.7305 174.225 25.0859C173.869 25.4505 173.475 25.7012 173.042 25.8379C172.609 25.9746 172.146 26.0566 171.654 26.084C171.399 26.0931 171.039 26.1022 170.574 26.1113C170.118 26.1204 169.638 26.125 169.132 26.125C168.626 26.125 168.141 26.1204 167.676 26.1113C167.211 26.1022 166.851 26.0931 166.596 26.084C166.104 26.0566 165.643 25.9746 165.215 25.8379C164.786 25.7012 164.39 25.4505 164.025 25.0859C163.67 24.7305 163.424 24.3363 163.287 23.9033C163.15 23.4704 163.068 23.0124 163.041 22.5293C163.023 22.2741 163.014 21.9141 163.014 21.4492C163.005 20.9844 163 20.499 163 19.9932C163 19.4873 163.005 19.002 163.014 18.5371C163.014 18.0814 163.023 17.7259 163.041 17.4707C163.068 16.9785 163.15 16.516 163.287 16.083C163.424 15.6501 163.67 15.2559 164.025 14.9004C164.39 14.5449 164.789 14.2965 165.222 14.1553C165.655 14.014 166.113 13.9342 166.596 13.916C166.851 13.8978 167.211 13.8841 167.676 13.875C168.141 13.875 168.626 13.875 169.132 13.875C169.638 13.875 170.118 13.875 170.574 13.875C171.039 13.8841 171.399 13.8978 171.654 13.916C172.146 13.9434 172.609 14.0254 173.042 14.1621C173.475 14.2988 173.869 14.5449 174.225 14.9004C174.58 15.265 174.828 15.6615 174.97 16.0898C175.111 16.5182 175.191 16.9785 175.209 17.4707ZM173.91 23.6094C173.983 23.4089 174.038 23.1491 174.074 22.8301C174.111 22.5111 174.136 22.1784 174.149 21.832C174.163 21.4857 174.165 21.1484 174.156 20.8203C174.156 20.4922 174.156 20.2188 174.156 20C174.156 19.7721 174.156 19.4941 174.156 19.166C174.165 18.8379 174.163 18.5007 174.149 18.1543C174.136 17.8079 174.111 17.4798 174.074 17.1699C174.038 16.8509 173.983 16.5911 173.91 16.3906C173.801 16.1172 173.646 15.8802 173.445 15.6797C173.245 15.4792 173.008 15.3242 172.734 15.2148C172.534 15.1419 172.274 15.0872 171.955 15.0508C171.645 15.0143 171.317 14.9893 170.971 14.9756C170.624 14.9619 170.287 14.9596 169.959 14.9688C169.631 14.9688 169.353 14.9688 169.125 14.9688C168.906 14.9688 168.633 14.9688 168.305 14.9688C167.977 14.9596 167.639 14.9619 167.293 14.9756C166.947 14.9893 166.614 15.0143 166.295 15.0508C165.976 15.0872 165.716 15.1419 165.516 15.2148C165.242 15.3242 165.005 15.4792 164.805 15.6797C164.604 15.8802 164.454 16.1172 164.354 16.3906C164.271 16.5911 164.212 16.8509 164.176 17.1699C164.139 17.4798 164.117 17.8079 164.107 18.1543C164.098 18.5007 164.094 18.8379 164.094 19.166C164.103 19.4941 164.107 19.7721 164.107 20C164.107 20.2188 164.103 20.4922 164.094 20.8203C164.094 21.1484 164.098 21.4857 164.107 21.832C164.117 22.1784 164.139 22.5111 164.176 22.8301C164.212 23.1491 164.271 23.4089 164.354 23.6094C164.463 23.8828 164.618 24.1175 164.818 24.3135C165.019 24.5094 165.251 24.6621 165.516 24.7715C165.716 24.8535 165.976 24.9128 166.295 24.9492C166.614 24.9857 166.947 25.0085 167.293 25.0176C167.639 25.0267 167.977 25.0312 168.305 25.0312C168.633 25.0221 168.906 25.0176 169.125 25.0176C169.353 25.0176 169.631 25.0221 169.959 25.0312C170.287 25.0312 170.624 25.0267 170.971 25.0176C171.317 25.0085 171.645 24.9857 171.955 24.9492C172.274 24.9128 172.534 24.8535 172.734 24.7715C173.008 24.6621 173.245 24.5072 173.445 24.3066C173.646 24.1061 173.801 23.8737 173.91 23.6094Z" fill="white"/>
<defs>
<clipPath id="clip0_386_2898">
<rect width="14" height="14" fill="white" transform="matrix(1 0 0 -1 63 27)"/>
</clipPath>
<clipPath id="clip1_386_2898">
<rect width="10.5" height="14" fill="white" transform="matrix(1 0 0 -1 114.75 27)"/>
</clipPath>
</defs>
</svg>
