<svg width="15" height="14" viewBox="0 0 15 14" fill="none" xmlns="http://www.w3.org/2000/svg">
<g clip-path="url(#clip0_213_6471)">
<rect width="14" height="14" transform="translate(0.5)" fill="white" fill-opacity="0.01"/>
<g clip-path="url(#clip1_213_6471)">
<path fill-rule="evenodd" clip-rule="evenodd" d="M13.625 1.74927C13.625 1.5172 13.5328 1.29464 13.3687 1.13055C13.2046 0.966455 12.9821 0.874268 12.75 0.874268H2.25C2.01794 0.874268 1.79538 0.966455 1.63128 1.13055C1.46719 1.29464 1.375 1.5172 1.375 1.74927V12.2493C1.375 12.4813 1.46719 12.7039 1.63128 12.868C1.79538 13.0321 2.01794 13.1243 2.25 13.1243H12.75C12.9821 13.1243 13.2046 13.0321 13.3687 12.868C13.5328 12.7039 13.625 12.4813 13.625 12.2493V1.74927ZM0.5 1.74927C0.5 1.28514 0.684374 0.840019 1.01256 0.511831C1.34075 0.183642 1.78587 -0.000732422 2.25 -0.000732422H12.75C13.2141 -0.000732422 13.6592 0.183642 13.9874 0.511831C14.3156 0.840019 14.5 1.28514 14.5 1.74927V12.2493C14.5 12.7134 14.3156 13.1585 13.9874 13.4867C13.6592 13.8149 13.2141 13.9993 12.75 13.9993H2.25C1.78587 13.9993 1.34075 13.8149 1.01256 13.4867C0.684374 13.1585 0.5 12.7134 0.5 12.2493V1.74927ZM7.9375 10.0618C7.9375 10.1778 7.89141 10.2891 7.80936 10.3711C7.72731 10.4532 7.61603 10.4993 7.5 10.4993C7.38397 10.4993 7.27269 10.4532 7.19064 10.3711C7.10859 10.2891 7.0625 10.1778 7.0625 10.0618V4.99289L5.18475 6.87152C5.1026 6.95367 4.99118 6.99982 4.875 6.99982C4.75882 6.99982 4.6474 6.95367 4.56525 6.87152C4.4831 6.78937 4.43695 6.67795 4.43695 6.56177C4.43695 6.44559 4.4831 6.33417 4.56525 6.25202L7.19025 3.62702C7.23089 3.58627 7.27917 3.55395 7.33232 3.53189C7.38547 3.50984 7.44245 3.49849 7.5 3.49849C7.55755 3.49849 7.61453 3.50984 7.66768 3.53189C7.72083 3.55395 7.76911 3.58627 7.80975 3.62702L10.4347 6.25202C10.5169 6.33417 10.5631 6.44559 10.5631 6.56177C10.5631 6.67795 10.5169 6.78937 10.4347 6.87152C10.3526 6.95367 10.2412 6.99982 10.125 6.99982C10.0088 6.99982 9.8974 6.95367 9.81525 6.87152L7.9375 4.99289V10.0618Z" fill="#5C6F88"/>
</g>
</g>
<defs>
<clipPath id="clip0_213_6471">
<rect width="14" height="14" fill="white" transform="translate(0.5)"/>
</clipPath>
<clipPath id="clip1_213_6471">
<rect width="14" height="14" fill="white" transform="translate(0.5)"/>
</clipPath>
</defs>
</svg>
