<svg width="979" height="394" viewBox="0 0 979 394" fill="none" xmlns="http://www.w3.org/2000/svg">
<path d="M20.992 58.576C9.024 58.576 2.944 49.104 2.944 36.496C2.944 23.952 9.024 14.48 20.992 14.48C32.96 14.48 38.976 23.952 38.976 36.496C38.976 49.104 32.96 58.576 20.992 58.576ZM20.992 51.664C28.672 51.664 31.424 45.52 31.424 36.496C31.424 27.536 28.672 21.328 20.992 21.328C13.376 21.328 10.56 27.536 10.56 36.496C10.56 45.52 13.376 51.664 20.992 51.664ZM58.8335 58H51.6015V24.208H43.7935V18.96C47.3135 18.96 50.3215 17.872 52.4975 15.12H58.8335V58Z" fill="black"/>
<path d="M93.88 51.5H90.2L101 24.7H104.48L115.28 51.5H111.44L108.52 44.02H96.8L93.88 51.5ZM101.32 32.46L98 40.94H107.32L104 32.46L102.68 28.26L101.32 32.46ZM120.973 51.5H117.493V24.7H120.973V51.5ZM135.185 41.3H125.745V38.86H135.185V41.3ZM143.473 51.5H139.993V24.7H150.713C155.993 24.7 160.153 27.62 160.153 33.78C160.153 39.5 155.993 42.42 150.713 42.42H143.473V51.5ZM150.153 27.78H143.473V39.34H150.153C153.393 39.34 156.553 38.14 156.553 33.78C156.553 28.98 153.393 27.78 150.153 27.78ZM171.142 51.9C165.782 51.9 162.022 47.94 162.022 41.82C162.022 35.7 165.782 31.74 171.142 31.74C176.502 31.74 180.302 35.7 180.302 41.82C180.302 47.94 176.502 51.9 171.142 51.9ZM171.142 48.98C174.462 48.98 176.782 46.7 176.782 41.82C176.782 36.9 174.462 34.66 171.142 34.66C167.862 34.66 165.582 36.9 165.582 41.82C165.582 46.7 167.862 48.98 171.142 48.98ZM191.133 51.5H186.613L181.573 32.14H185.453L187.973 44.06L188.893 48.98L190.093 44.06L193.613 32.14H197.893L201.373 44.06L202.613 48.98L203.533 44.06L206.013 32.14H209.893L204.893 51.5H200.333L197.013 40.18L195.773 35.02L194.453 40.18L191.133 51.5ZM220.255 51.9C214.775 51.9 210.975 47.98 210.975 41.82C210.975 35.7 214.735 31.74 220.055 31.74C225.535 31.74 228.855 35.38 228.855 41.06C228.855 41.66 228.775 42.26 228.695 42.62H214.335C214.535 46.7 216.815 49.02 220.255 49.02C224.135 49.02 225.695 46.9 226.455 45.22L228.575 47.62C227.135 49.94 224.455 51.9 220.255 51.9ZM220.055 34.66C216.935 34.66 214.855 36.5 214.415 40.1H225.735C225.375 36.54 223.295 34.66 220.055 34.66ZM236.745 51.5H233.265V32.14H236.745V37.3C237.505 34.3 239.505 31.7 242.785 31.7C244.865 31.7 246.865 33.18 246.865 35.9C246.865 37.54 246.425 38.74 246.105 39.22H242.305C242.945 38.66 243.465 37.46 243.465 36.38C243.465 35.26 242.865 34.3 241.465 34.3C238.985 34.3 236.745 37.22 236.745 40.54V51.5ZM257.872 51.9C252.392 51.9 248.592 47.98 248.592 41.82C248.592 35.7 252.352 31.74 257.672 31.74C263.152 31.74 266.472 35.38 266.472 41.06C266.472 41.66 266.392 42.26 266.312 42.62H251.952C252.152 46.7 254.432 49.02 257.872 49.02C261.752 49.02 263.312 46.9 264.072 45.22L266.192 47.62C264.752 49.94 262.072 51.9 257.872 51.9ZM257.672 34.66C254.552 34.66 252.472 36.5 252.032 40.1H263.352C262.992 36.54 260.912 34.66 257.672 34.66ZM278.113 51.98C273.233 51.98 270.193 47.98 270.193 41.86C270.193 35.74 273.233 31.74 278.113 31.74C281.833 31.74 283.673 34.22 284.353 37.18V24.7H287.833V51.5H284.353V46.54C283.673 49.5 281.833 51.98 278.113 51.98ZM273.713 41.86C273.713 46.82 276.233 49.06 279.273 49.06C282.993 49.06 284.353 46.46 284.353 43.26V40.5C284.353 37.3 282.993 34.7 279.273 34.7C276.233 34.7 273.713 36.94 273.713 41.86ZM305.778 51.5H302.298V24.7H305.778V51.5ZM315.104 51.5H311.624V32.14H315.104V37.3C315.864 34.3 317.944 31.74 321.744 31.74C325.544 31.74 327.904 34.02 327.904 38.14V51.5H324.464V38.98C324.464 36.46 323.464 34.7 320.184 34.7C316.464 34.7 315.104 37.3 315.104 40.54V51.5ZM341.21 51.5H336.81L329.81 32.14H333.57L337.41 43.62L339.09 48.94L340.73 43.62L344.53 32.14H348.25L341.21 51.5ZM358.38 51.9C352.9 51.9 349.1 47.98 349.1 41.82C349.1 35.7 352.86 31.74 358.18 31.74C363.66 31.74 366.98 35.38 366.98 41.06C366.98 41.66 366.9 42.26 366.82 42.62H352.46C352.66 46.7 354.94 49.02 358.38 49.02C362.26 49.02 363.82 46.9 364.58 45.22L366.7 47.62C365.26 49.94 362.58 51.9 358.38 51.9ZM358.18 34.66C355.06 34.66 352.98 36.5 352.54 40.1H363.86C363.5 36.54 361.42 34.66 358.18 34.66ZM374.87 51.5H371.39V32.14H374.87V37.3C375.63 34.3 377.71 31.74 381.51 31.74C385.31 31.74 387.67 34.02 387.67 38.14V51.5H384.23V38.98C384.23 36.46 383.23 34.7 379.95 34.7C376.23 34.7 374.87 37.3 374.87 40.54V51.5ZM398.768 51.94C395.608 51.94 393.368 49.86 393.368 46.54V34.86H390.248V32.14H393.368V29.66L396.848 27.1V32.14H403.208V34.86H396.848V45.5C396.848 47.98 398.008 48.58 399.528 48.58C401.248 48.58 402.448 47.14 402.968 45.94L404.128 49.38C403.288 50.7 401.448 51.94 398.768 51.94ZM413.955 51.9C408.595 51.9 404.835 47.94 404.835 41.82C404.835 35.7 408.595 31.74 413.955 31.74C419.315 31.74 423.115 35.7 423.115 41.82C423.115 47.94 419.315 51.9 413.955 51.9ZM413.955 48.98C417.275 48.98 419.595 46.7 419.595 41.82C419.595 36.9 417.275 34.66 413.955 34.66C410.675 34.66 408.395 36.9 408.395 41.82C408.395 46.7 410.675 48.98 413.955 48.98ZM430.964 51.5H427.484V32.14H430.964V37.3C431.724 34.3 433.724 31.7 437.004 31.7C439.084 31.7 441.084 33.18 441.084 35.9C441.084 37.54 440.644 38.74 440.324 39.22H436.524C437.164 38.66 437.684 37.46 437.684 36.38C437.684 35.26 437.084 34.3 435.684 34.3C433.204 34.3 430.964 37.22 430.964 40.54V51.5ZM446.965 57.82C444.205 57.82 442.205 56.3 441.365 54.7L443.245 52.06C444.165 53.62 445.165 54.78 447.005 54.78C448.565 54.78 449.605 54.02 450.365 51.66L450.765 50.42L448.605 50.46L442.085 32.14H445.805L449.965 44.58L451.325 48.74L452.685 44.58L456.805 32.14H460.525L453.085 53.1C451.845 56.66 449.685 57.82 446.965 57.82ZM484.491 51.9C476.771 51.9 471.531 45.86 471.531 38.06C471.531 30.34 476.771 24.3 484.491 24.3C492.251 24.3 497.451 30.34 497.451 38.06C497.451 45.86 492.251 51.9 484.491 51.9ZM484.531 48.58C490.651 48.58 493.851 44.22 493.851 38.06C493.851 31.98 490.651 27.58 484.531 27.58C478.411 27.58 475.211 31.98 475.211 38.06C475.211 44.22 478.411 48.58 484.531 48.58ZM505.573 58.94H502.093V32.14H505.573V37.1C506.253 34.18 508.093 31.7 511.813 31.7C516.693 31.7 519.733 35.66 519.733 41.78C519.733 47.9 516.693 51.9 511.813 51.9C508.093 51.9 506.253 49.42 505.573 46.5V58.94ZM505.573 43.18C505.573 46.38 506.933 48.98 510.613 48.98C513.693 48.98 516.213 46.74 516.213 41.78C516.213 36.86 513.693 34.62 510.613 34.62C506.933 34.62 505.573 37.22 505.573 40.42V43.18ZM530.018 51.94C526.858 51.94 524.618 49.86 524.618 46.54V34.86H521.498V32.14H524.618V29.66L528.098 27.1V32.14H534.458V34.86H528.098V45.5C528.098 47.98 529.258 48.58 530.778 48.58C532.498 48.58 533.698 47.14 534.218 45.94L535.378 49.38C534.538 50.7 532.698 51.94 530.018 51.94ZM542.292 29.02H538.812V24.7H542.292V29.02ZM542.292 51.5H538.812V32.14H542.292V51.5ZM551.003 51.5H547.523V32.14H551.003V37.26C551.763 34.3 553.763 31.74 557.243 31.74C560.803 31.74 562.763 33.78 562.963 37.42C563.723 34.34 565.723 31.74 569.243 31.74C573.043 31.74 575.003 34.02 575.003 38.1V51.5H571.563V38.94C571.563 36.1 570.203 34.7 567.323 34.7C564.363 34.7 563.003 37.3 563.003 40.54V51.5H559.523V38.94C559.523 36.1 558.203 34.7 555.283 34.7C552.363 34.7 551.003 37.3 551.003 40.54V51.5ZM583.659 29.02H580.179V24.7H583.659V29.02ZM583.659 51.5H580.179V32.14H583.659V51.5ZM604.25 51.5H587.65V48.66L597.97 37.02L599.89 35.1L596.29 35.26H588.45V32.14H603.85V35.02L593.61 46.42L591.61 48.58L595.69 48.42H604.25V51.5ZM611.757 51.9C608.477 51.9 606.637 50.02 606.637 47.46C606.637 44.86 608.597 43.22 611.357 41.98L618.357 38.86C618.237 36.58 617.157 34.9 614.117 34.9C611.357 34.9 609.517 36.5 608.517 38.62L606.157 36.18C607.317 34.18 610.197 31.74 614.517 31.74C619.277 31.74 621.837 34.58 621.837 39.18V47.14C621.837 48.06 622.197 48.34 622.917 48.34H624.157V51.5H621.917C619.917 51.5 618.477 50.54 618.477 47.82V46.46C617.837 49.02 615.757 51.9 611.757 51.9ZM610.157 46.9C610.157 48.22 611.077 49.02 612.877 49.02C616.157 49.02 618.477 46.86 618.477 44.06V41.38L612.837 44.02C610.997 44.9 610.157 45.7 610.157 46.9ZM634.12 51.94C630.96 51.94 628.72 49.86 628.72 46.54V34.86H625.6V32.14H628.72V29.66L632.2 27.1V32.14H638.56V34.86H632.2V45.5C632.2 47.98 633.36 48.58 634.88 48.58C636.6 48.58 637.8 47.14 638.32 45.94L639.48 49.38C638.64 50.7 636.8 51.94 634.12 51.94ZM646.393 29.02H642.913V24.7H646.393V29.02ZM646.393 51.5H642.913V32.14H646.393V51.5ZM659.384 51.9C654.024 51.9 650.264 47.94 650.264 41.82C650.264 35.7 654.024 31.74 659.384 31.74C664.744 31.74 668.544 35.7 668.544 41.82C668.544 47.94 664.744 51.9 659.384 51.9ZM659.384 48.98C662.704 48.98 665.024 46.7 665.024 41.82C665.024 36.9 662.704 34.66 659.384 34.66C656.104 34.66 653.824 36.9 653.824 41.82C653.824 46.7 656.104 48.98 659.384 48.98ZM676.393 51.5H672.913V32.14H676.393V37.3C677.153 34.3 679.233 31.74 683.033 31.74C686.833 31.74 689.193 34.02 689.193 38.14V51.5H685.753V38.98C685.753 36.46 684.753 34.7 681.473 34.7C677.753 34.7 676.393 37.3 676.393 40.54V51.5Z" fill="black"/>
<path d="M20.992 163.576C9.024 163.576 2.944 154.104 2.944 141.496C2.944 128.952 9.024 119.48 20.992 119.48C32.96 119.48 38.976 128.952 38.976 141.496C38.976 154.104 32.96 163.576 20.992 163.576ZM20.992 156.664C28.672 156.664 31.424 150.52 31.424 141.496C31.424 132.536 28.672 126.328 20.992 126.328C13.376 126.328 10.56 132.536 10.56 141.496C10.56 150.52 13.376 156.664 20.992 156.664ZM75.6435 163H44.9875V157.496L59.7715 143.416C63.9315 139.384 66.8755 136.12 66.8755 132.088C66.8755 129.016 65.0835 126.392 60.9235 126.392C54.5875 126.392 50.6195 130.424 51.0035 138.68L44.9235 134.328C44.7315 125.752 51.7075 119.48 61.5635 119.48C70.2035 119.48 74.4275 124.6 74.4275 131.64C74.4275 138.552 68.2835 144.504 63.7395 148.28L57.7875 153.528L52.7955 157.24L59.1955 156.6H75.6435V163Z" fill="black"/>
<path d="M112.52 156.5H109.04V129.7H120.72C125.96 129.7 129.84 132.58 129.84 137.94C129.84 142.22 126.92 144.94 122.8 145.5C124.04 145.9 125.04 146.74 125.88 148.22L130.68 156.5H126.6L121.88 148.26C120.88 146.46 119.44 145.82 116.8 145.82H112.52V156.5ZM120.16 132.78H112.52V142.9H120.16C123.36 142.9 126.24 141.74 126.24 137.94C126.24 133.94 123.36 132.78 120.16 132.78ZM141.607 156.9C136.127 156.9 132.327 152.98 132.327 146.82C132.327 140.7 136.087 136.74 141.407 136.74C146.887 136.74 150.207 140.38 150.207 146.06C150.207 146.66 150.127 147.26 150.047 147.62H135.687C135.887 151.7 138.167 154.02 141.607 154.02C145.487 154.02 147.047 151.9 147.807 150.22L149.927 152.62C148.487 154.94 145.807 156.9 141.607 156.9ZM141.407 139.66C138.287 139.66 136.207 141.5 135.767 145.1H147.087C146.727 141.54 144.647 139.66 141.407 139.66ZM158.734 156.9C155.454 156.9 153.614 155.02 153.614 152.46C153.614 149.86 155.574 148.22 158.334 146.98L165.334 143.86C165.214 141.58 164.134 139.9 161.094 139.9C158.334 139.9 156.494 141.5 155.494 143.62L153.134 141.18C154.294 139.18 157.174 136.74 161.494 136.74C166.254 136.74 168.814 139.58 168.814 144.18V152.14C168.814 153.06 169.174 153.34 169.894 153.34H171.134V156.5H168.894C166.894 156.5 165.454 155.54 165.454 152.82V151.46C164.814 154.02 162.734 156.9 158.734 156.9ZM157.134 151.9C157.134 153.22 158.054 154.02 159.854 154.02C163.134 154.02 165.454 151.86 165.454 149.06V146.38L159.814 149.02C157.974 149.9 157.134 150.7 157.134 151.9ZM178.643 156.5H175.163V129.7H178.643V156.5ZM192.474 146.3H183.034V143.86H192.474V146.3ZM204.15 156.5H200.71V132.78H192.23V129.7H212.63V132.78H204.15V156.5ZM219.542 134.02H216.062V129.7H219.542V134.02ZM219.542 156.5H216.062V137.14H219.542V156.5ZM228.253 156.5H224.773V137.14H228.253V142.26C229.013 139.3 231.013 136.74 234.493 136.74C238.053 136.74 240.013 138.78 240.213 142.42C240.973 139.34 242.973 136.74 246.493 136.74C250.293 136.74 252.253 139.02 252.253 143.1V156.5H248.813V143.94C248.813 141.1 247.453 139.7 244.573 139.7C241.613 139.7 240.253 142.3 240.253 145.54V156.5H236.773V143.94C236.773 141.1 235.453 139.7 232.533 139.7C229.613 139.7 228.253 142.3 228.253 145.54V156.5ZM265.591 156.9C260.111 156.9 256.311 152.98 256.311 146.82C256.311 140.7 260.071 136.74 265.391 136.74C270.871 136.74 274.191 140.38 274.191 146.06C274.191 146.66 274.111 147.26 274.031 147.62H259.671C259.871 151.7 262.151 154.02 265.591 154.02C269.471 154.02 271.031 151.9 271.791 150.22L273.911 152.62C272.471 154.94 269.791 156.9 265.591 156.9ZM265.391 139.66C262.271 139.66 260.191 141.5 259.751 145.1H271.071C270.711 141.54 268.631 139.66 265.391 139.66ZM291.348 156.5H287.868V129.7H291.748L298.668 142.98L301.388 148.86L304.068 142.98L311.028 129.7H314.908V156.5H311.428V141.7L311.788 134.46L308.828 141.1L303.068 152.02H299.668L293.908 141.1L290.908 134.46L291.348 141.7V156.5ZM324.984 156.9C321.704 156.9 319.864 155.02 319.864 152.46C319.864 149.86 321.824 148.22 324.584 146.98L331.584 143.86C331.464 141.58 330.384 139.9 327.344 139.9C324.584 139.9 322.744 141.5 321.744 143.62L319.384 141.18C320.544 139.18 323.424 136.74 327.744 136.74C332.504 136.74 335.064 139.58 335.064 144.18V152.14C335.064 153.06 335.424 153.34 336.144 153.34H337.384V156.5H335.144C333.144 156.5 331.704 155.54 331.704 152.82V151.46C331.064 154.02 328.984 156.9 324.984 156.9ZM323.384 151.9C323.384 153.22 324.304 154.02 326.104 154.02C329.384 154.02 331.704 151.86 331.704 149.06V146.38L326.064 149.02C324.224 149.9 323.384 150.7 323.384 151.9ZM344.893 156.5H341.413V137.14H344.893V142.3C345.653 139.3 347.653 136.7 350.933 136.7C353.013 136.7 355.013 138.18 355.013 140.9C355.013 142.54 354.573 143.74 354.253 144.22H350.453C351.093 143.66 351.613 142.46 351.613 141.38C351.613 140.26 351.013 139.3 349.613 139.3C347.133 139.3 344.893 142.22 344.893 145.54V156.5ZM361.768 156.5H358.288V129.7H361.768V143.3L361.648 146.02L364.488 143.22L370.848 137.14H375.208L367.248 144.66L375.328 156.5H371.128L364.848 146.82L361.768 149.74V156.5ZM385.591 156.9C380.111 156.9 376.311 152.98 376.311 146.82C376.311 140.7 380.071 136.74 385.391 136.74C390.871 136.74 394.191 140.38 394.191 146.06C394.191 146.66 394.111 147.26 394.031 147.62H379.671C379.871 151.7 382.151 154.02 385.591 154.02C389.471 154.02 391.031 151.9 391.791 150.22L393.911 152.62C392.471 154.94 389.791 156.9 385.591 156.9ZM385.391 139.66C382.271 139.66 380.191 141.5 379.751 145.1H391.071C390.711 141.54 388.631 139.66 385.391 139.66ZM404.768 156.94C401.608 156.94 399.368 154.86 399.368 151.54V139.86H396.248V137.14H399.368V134.66L402.848 132.1V137.14H409.208V139.86H402.848V150.5C402.848 152.98 404.008 153.58 405.528 153.58C407.248 153.58 408.448 152.14 408.968 150.94L410.128 154.38C409.288 155.7 407.448 156.94 404.768 156.94ZM426.078 156.9C422.798 156.9 420.958 155.02 420.958 152.46C420.958 149.86 422.918 148.22 425.678 146.98L432.678 143.86C432.558 141.58 431.478 139.9 428.438 139.9C425.678 139.9 423.838 141.5 422.838 143.62L420.478 141.18C421.638 139.18 424.518 136.74 428.838 136.74C433.598 136.74 436.158 139.58 436.158 144.18V152.14C436.158 153.06 436.518 153.34 437.238 153.34H438.478V156.5H436.238C434.238 156.5 432.798 155.54 432.798 152.82V151.46C432.158 154.02 430.078 156.9 426.078 156.9ZM424.478 151.9C424.478 153.22 425.398 154.02 427.198 154.02C430.478 154.02 432.798 151.86 432.798 149.06V146.38L427.158 149.02C425.317 149.9 424.478 150.7 424.478 151.9ZM445.987 156.5H442.507V137.14H445.987V142.3C446.747 139.3 448.827 136.74 452.627 136.74C456.427 136.74 458.787 139.02 458.787 143.14V156.5H455.347V143.98C455.347 141.46 454.347 139.7 451.067 139.7C447.347 139.7 445.987 142.3 445.987 145.54V156.5ZM470.714 156.98C465.834 156.98 462.794 152.98 462.794 146.86C462.794 140.74 465.834 136.74 470.714 136.74C474.434 136.74 476.274 139.22 476.954 142.18V129.7H480.434V156.5H476.954V151.54C476.274 154.5 474.434 156.98 470.714 156.98ZM466.314 146.86C466.314 151.82 468.834 154.06 471.874 154.06C475.594 154.06 476.954 151.46 476.954 148.26V145.5C476.954 142.3 475.594 139.7 471.874 139.7C468.834 139.7 466.314 141.94 466.314 146.86ZM504.379 156.5H494.899V129.7H504.379C512.819 129.7 517.019 134.62 517.019 143.1C517.019 151.58 512.819 156.5 504.379 156.5ZM503.819 132.78H498.379V153.42H503.819C509.899 153.42 513.419 150.74 513.419 143.1C513.419 135.46 509.899 132.78 503.819 132.78ZM530.044 156.9C524.564 156.9 520.764 152.98 520.764 146.82C520.764 140.7 524.524 136.74 529.844 136.74C535.324 136.74 538.644 140.38 538.644 146.06C538.644 146.66 538.564 147.26 538.484 147.62H524.124C524.324 151.7 526.604 154.02 530.044 154.02C533.924 154.02 535.484 151.9 536.244 150.22L538.364 152.62C536.924 154.94 534.244 156.9 530.044 156.9ZM529.844 139.66C526.724 139.66 524.644 141.5 524.204 145.1H535.524C535.164 141.54 533.084 139.66 529.844 139.66ZM546.534 156.5H543.054V137.14H546.534V142.26C547.294 139.3 549.294 136.74 552.774 136.74C556.334 136.74 558.294 138.78 558.494 142.42C559.254 139.34 561.254 136.74 564.774 136.74C568.574 136.74 570.534 139.02 570.534 143.1V156.5H567.094V143.94C567.094 141.1 565.734 139.7 562.854 139.7C559.894 139.7 558.534 142.3 558.534 145.54V156.5H555.054V143.94C555.054 141.1 553.734 139.7 550.814 139.7C547.894 139.7 546.534 142.3 546.534 145.54V156.5ZM579.788 156.9C576.508 156.9 574.668 155.02 574.668 152.46C574.668 149.86 576.628 148.22 579.388 146.98L586.388 143.86C586.268 141.58 585.188 139.9 582.148 139.9C579.388 139.9 577.548 141.5 576.548 143.62L574.188 141.18C575.348 139.18 578.228 136.74 582.548 136.74C587.308 136.74 589.868 139.58 589.868 144.18V152.14C589.868 153.06 590.228 153.34 590.948 153.34H592.188V156.5H589.948C587.948 156.5 586.508 155.54 586.508 152.82V151.46C585.868 154.02 583.788 156.9 579.788 156.9ZM578.188 151.9C578.188 153.22 579.108 154.02 580.908 154.02C584.188 154.02 586.508 151.86 586.508 149.06V146.38L580.868 149.02C579.028 149.9 578.188 150.7 578.188 151.9ZM599.698 156.5H596.218V137.14H599.698V142.3C600.458 139.3 602.538 136.74 606.338 136.74C610.138 136.74 612.498 139.02 612.498 143.14V156.5H609.058V143.98C609.058 141.46 608.058 139.7 604.778 139.7C601.058 139.7 599.698 142.3 599.698 145.54V156.5ZM624.425 156.98C619.545 156.98 616.505 152.98 616.505 146.86C616.505 140.74 619.545 136.74 624.425 136.74C628.145 136.74 629.985 139.22 630.665 142.18V129.7H634.145V156.5H630.665V151.54C629.985 154.5 628.145 156.98 624.425 156.98ZM620.025 146.86C620.025 151.82 622.545 154.06 625.585 154.06C629.305 154.06 630.665 151.46 630.665 148.26V145.5C630.665 142.3 629.305 139.7 625.585 139.7C622.545 139.7 620.025 141.94 620.025 146.86ZM649.45 156.5H645.77L656.57 129.7H660.05L670.85 156.5H667.01L664.09 149.02H652.37L649.45 156.5ZM656.89 137.46L653.57 145.94H662.89L659.57 137.46L658.25 133.26L656.89 137.46ZM676.612 156.5H673.132V137.14H676.612V142.3C677.372 139.3 679.452 136.74 683.252 136.74C687.052 136.74 689.412 139.02 689.412 143.14V156.5H685.972V143.98C685.972 141.46 684.972 139.7 681.692 139.7C677.972 139.7 676.612 142.3 676.612 145.54V156.5ZM698.656 156.9C695.376 156.9 693.536 155.02 693.536 152.46C693.536 149.86 695.496 148.22 698.256 146.98L705.256 143.86C705.136 141.58 704.056 139.9 701.016 139.9C698.256 139.9 696.416 141.5 695.416 143.62L693.056 141.18C694.216 139.18 697.096 136.74 701.416 136.74C706.176 136.74 708.736 139.58 708.736 144.18V152.14C708.736 153.06 709.096 153.34 709.816 153.34H711.056V156.5H708.816C706.816 156.5 705.376 155.54 705.376 152.82V151.46C704.736 154.02 702.656 156.9 698.656 156.9ZM697.056 151.9C697.056 153.22 697.976 154.02 699.776 154.02C703.056 154.02 705.376 151.86 705.376 149.06V146.38L699.736 149.02C697.896 149.9 697.056 150.7 697.056 151.9ZM718.565 156.5H715.085V129.7H718.565V156.5ZM726.676 162.82C723.916 162.82 721.916 161.3 721.076 159.7L722.956 157.06C723.876 158.62 724.876 159.78 726.716 159.78C728.276 159.78 729.316 159.02 730.076 156.66L730.476 155.42L728.316 155.46L721.796 137.14H725.516L729.676 149.58L731.036 153.74L732.396 149.58L736.516 137.14H740.236L732.796 158.1C731.556 161.66 729.396 162.82 726.676 162.82ZM749.183 156.94C746.023 156.94 743.783 154.86 743.783 151.54V139.86H740.663V137.14H743.783V134.66L747.263 132.1V137.14H753.623V139.86H747.263V150.5C747.263 152.98 748.423 153.58 749.943 153.58C751.663 153.58 752.863 152.14 753.383 150.94L754.543 154.38C753.703 155.7 751.863 156.94 749.183 156.94ZM761.456 134.02H757.976V129.7H761.456V134.02ZM761.456 156.5H757.976V137.14H761.456V156.5ZM774.727 156.9C769.167 156.9 765.607 152.98 765.607 146.82C765.607 140.7 769.167 136.74 774.727 136.74C779.767 136.74 782.727 139.66 783.647 143.54L780.247 144.94C779.847 141.86 778.247 139.66 774.767 139.66C771.247 139.66 769.127 142.26 769.127 146.82C769.127 151.38 771.247 154.02 774.767 154.02C778.247 154.02 779.847 151.78 780.247 148.7L783.647 150.1C782.727 153.98 779.767 156.9 774.727 156.9ZM794.793 156.9C790.753 156.9 787.073 155.14 785.753 151.54L788.273 149.58C788.953 151.78 791.073 153.98 794.913 153.98C797.193 153.98 798.713 153.1 798.713 151.38C798.713 149.62 796.953 149.06 794.673 148.54L792.113 147.94C789.353 147.3 786.353 145.98 786.353 142.42C786.353 138.9 789.073 136.74 793.273 136.74C797.353 136.74 800.193 138.9 801.273 141.46L798.633 143.42C797.673 141.14 795.833 139.7 793.073 139.7C791.073 139.7 789.633 140.58 789.633 142.22C789.633 143.94 790.913 144.54 793.553 145.18L796.033 145.82C800.393 146.86 801.833 148.66 801.833 151.34C801.833 155.18 798.553 156.9 794.793 156.9Z" fill="black"/>
<path d="M20.992 268.576C9.024 268.576 2.944 259.104 2.944 246.496C2.944 233.952 9.024 224.48 20.992 224.48C32.96 224.48 38.976 233.952 38.976 246.496C38.976 259.104 32.96 268.576 20.992 268.576ZM20.992 261.664C28.672 261.664 31.424 255.52 31.424 246.496C31.424 237.536 28.672 231.328 20.992 231.328C13.376 231.328 10.56 237.536 10.56 246.496C10.56 255.52 13.376 261.664 20.992 261.664ZM61.3535 268.64C51.8815 268.64 46.0575 263.328 44.4575 256.928L50.2175 251.808C51.4975 257.888 54.4415 261.792 61.6735 261.792C66.6655 261.792 69.4815 259.488 69.4815 255.712C69.4815 251.296 65.8975 249.504 60.5855 249.504H53.8015V243.552H60.8415C65.4495 243.552 68.0095 241.696 68.0095 237.792C68.0095 234.208 65.7695 231.392 60.9695 231.392C55.7855 231.392 51.8815 234.336 50.9855 239.904L45.2255 234.976C47.1455 229.152 52.9695 224.48 61.2255 224.48C71.1455 224.48 75.4335 230.368 75.4335 236.192C75.4335 241.44 71.3375 245.408 65.7055 245.984C73.8335 246.496 77.1615 251.168 77.1615 256.928C77.1615 264.096 70.7615 268.64 61.3535 268.64Z" fill="black"/>
<path d="M114.52 261.5H111.04V234.7H129V237.78H114.52V247.38H126.4V250.46H114.52V261.5ZM136.308 239.02H132.827V234.7H136.308V239.02ZM136.308 261.5H132.827V242.14H136.308V261.5ZM145.018 261.5H141.538V242.14H145.018V247.3C145.778 244.3 147.858 241.74 151.658 241.74C155.458 241.74 157.818 244.02 157.818 248.14V261.5H154.378V248.98C154.378 246.46 153.378 244.7 150.098 244.7C146.378 244.7 145.018 247.3 145.018 250.54V261.5ZM167.062 261.9C163.782 261.9 161.942 260.02 161.942 257.46C161.942 254.86 163.902 253.22 166.662 251.98L173.662 248.86C173.542 246.58 172.462 244.9 169.422 244.9C166.662 244.9 164.822 246.5 163.822 248.62L161.462 246.18C162.622 244.18 165.502 241.74 169.822 241.74C174.582 241.74 177.142 244.58 177.142 249.18V257.14C177.142 258.06 177.502 258.34 178.222 258.34H179.462V261.5H177.222C175.222 261.5 173.782 260.54 173.782 257.82V256.46C173.142 259.02 171.062 261.9 167.062 261.9ZM165.462 256.9C165.462 258.22 166.382 259.02 168.182 259.02C171.462 259.02 173.782 256.86 173.782 254.06V251.38L168.142 254.02C166.302 254.9 165.462 255.7 165.462 256.9ZM186.972 261.5H183.492V242.14H186.972V247.3C187.732 244.3 189.812 241.74 193.612 241.74C197.412 241.74 199.772 244.02 199.772 248.14V261.5H196.332V248.98C196.332 246.46 195.332 244.7 192.052 244.7C188.332 244.7 186.972 247.3 186.972 250.54V261.5ZM212.899 261.9C207.339 261.9 203.779 257.98 203.779 251.82C203.779 245.7 207.339 241.74 212.899 241.74C217.939 241.74 220.899 244.66 221.819 248.54L218.419 249.94C218.019 246.86 216.419 244.66 212.939 244.66C209.419 244.66 207.299 247.26 207.299 251.82C207.299 256.38 209.419 259.02 212.939 259.02C216.419 259.02 218.019 256.78 218.419 253.7L221.819 255.1C220.899 258.98 217.939 261.9 212.899 261.9ZM229.315 239.02H225.835V234.7H229.315V239.02ZM229.315 261.5H225.835V242.14H229.315V261.5ZM238.546 261.9C235.266 261.9 233.426 260.02 233.426 257.46C233.426 254.86 235.386 253.22 238.146 251.98L245.146 248.86C245.026 246.58 243.946 244.9 240.906 244.9C238.146 244.9 236.306 246.5 235.306 248.62L232.946 246.18C234.106 244.18 236.986 241.74 241.306 241.74C246.066 241.74 248.626 244.58 248.626 249.18V257.14C248.626 258.06 248.986 258.34 249.706 258.34H250.946V261.5H248.706C246.706 261.5 245.266 260.54 245.266 257.82V256.46C244.626 259.02 242.546 261.9 238.546 261.9ZM236.946 256.9C236.946 258.22 237.866 259.02 239.666 259.02C242.946 259.02 245.266 256.86 245.266 254.06V251.38L239.626 254.02C237.786 254.9 236.946 255.7 236.946 256.9ZM258.456 261.5H254.976V234.7H258.456V261.5ZM276.356 261.5H272.876V234.7H276.356V246.22H290.476V234.7H293.956V261.5H290.476V249.3H276.356V261.5ZM307.708 261.9C302.228 261.9 298.428 257.98 298.428 251.82C298.428 245.7 302.188 241.74 307.508 241.74C312.988 241.74 316.308 245.38 316.308 251.06C316.308 251.66 316.228 252.26 316.148 252.62H301.788C301.988 256.7 304.268 259.02 307.708 259.02C311.588 259.02 313.148 256.9 313.908 255.22L316.028 257.62C314.588 259.94 311.908 261.9 307.708 261.9ZM307.508 244.66C304.388 244.66 302.308 246.5 301.868 250.1H313.188C312.828 246.54 310.748 244.66 307.508 244.66ZM324.835 261.9C321.555 261.9 319.715 260.02 319.715 257.46C319.715 254.86 321.675 253.22 324.435 251.98L331.435 248.86C331.315 246.58 330.235 244.9 327.195 244.9C324.435 244.9 322.595 246.5 321.595 248.62L319.235 246.18C320.395 244.18 323.275 241.74 327.595 241.74C332.355 241.74 334.915 244.58 334.915 249.18V257.14C334.915 258.06 335.275 258.34 335.995 258.34H337.235V261.5H334.995C332.995 261.5 331.555 260.54 331.555 257.82V256.46C330.915 259.02 328.835 261.9 324.835 261.9ZM323.235 256.9C323.235 258.22 324.155 259.02 325.955 259.02C329.235 259.02 331.555 256.86 331.555 254.06V251.38L325.915 254.02C324.075 254.9 323.235 255.7 323.235 256.9ZM344.745 261.5H341.265V234.7H344.745V261.5ZM356.456 261.94C353.296 261.94 351.056 259.86 351.056 256.54V244.86H347.936V242.14H351.056V239.66L354.536 237.1V242.14H360.896V244.86H354.536V255.5C354.536 257.98 355.696 258.58 357.216 258.58C358.936 258.58 360.136 257.14 360.656 255.94L361.816 259.38C360.976 260.7 359.136 261.94 356.456 261.94ZM368.729 261.5H365.249V234.7H368.729V247.3C369.489 244.3 371.569 241.74 375.369 241.74C379.169 241.74 381.529 244.02 381.529 248.14V261.5H378.089V248.98C378.089 246.46 377.089 244.7 373.809 244.7C370.089 244.7 368.729 247.3 368.729 250.54V261.5ZM399.484 261.9C396.204 261.9 394.364 260.02 394.364 257.46C394.364 254.86 396.324 253.22 399.084 251.98L406.084 248.86C405.964 246.58 404.884 244.9 401.844 244.9C399.084 244.9 397.244 246.5 396.244 248.62L393.884 246.18C395.044 244.18 397.924 241.74 402.244 241.74C407.004 241.74 409.564 244.58 409.564 249.18V257.14C409.564 258.06 409.924 258.34 410.644 258.34H411.884V261.5H409.644C407.644 261.5 406.204 260.54 406.204 257.82V256.46C405.564 259.02 403.484 261.9 399.484 261.9ZM397.884 256.9C397.884 258.22 398.804 259.02 400.604 259.02C403.884 259.02 406.204 256.86 406.204 254.06V251.38L400.564 254.02C398.724 254.9 397.884 255.7 397.884 256.9ZM419.393 261.5H415.913V242.14H419.393V247.3C420.153 244.3 422.233 241.74 426.033 241.74C429.833 241.74 432.193 244.02 432.193 248.14V261.5H428.753V248.98C428.753 246.46 427.753 244.7 424.473 244.7C420.753 244.7 419.393 247.3 419.393 250.54V261.5ZM444.121 261.98C439.241 261.98 436.201 257.98 436.201 251.86C436.201 245.74 439.241 241.74 444.121 241.74C447.841 241.74 449.681 244.22 450.361 247.18V234.7H453.841V261.5H450.361V256.54C449.681 259.5 447.841 261.98 444.121 261.98ZM439.721 251.86C439.721 256.82 442.241 259.06 445.281 259.06C449.001 259.06 450.361 256.46 450.361 253.26V250.5C450.361 247.3 449.001 244.7 445.281 244.7C442.241 244.7 439.721 246.94 439.721 251.86ZM479.826 261.82C471.706 261.82 467.266 255.78 467.266 248.06C467.266 240.34 471.706 234.3 479.826 234.3C485.826 234.3 489.866 237.5 491.586 243.02L488.466 245.06C487.586 240.58 484.946 237.58 479.866 237.58C473.746 237.58 470.946 241.94 470.946 248.06C470.946 254.18 473.746 258.54 479.866 258.54C484.946 258.54 487.586 255.54 488.466 251.06L491.586 253.1C489.866 258.62 485.826 261.82 479.826 261.82ZM500.031 261.9C496.751 261.9 494.911 260.02 494.911 257.46C494.911 254.86 496.871 253.22 499.631 251.98L506.631 248.86C506.511 246.58 505.431 244.9 502.391 244.9C499.631 244.9 497.791 246.5 496.791 248.62L494.431 246.18C495.591 244.18 498.471 241.74 502.791 241.74C507.551 241.74 510.111 244.58 510.111 249.18V257.14C510.111 258.06 510.471 258.34 511.191 258.34H512.431V261.5H510.191C508.191 261.5 506.751 260.54 506.751 257.82V256.46C506.111 259.02 504.031 261.9 500.031 261.9ZM498.431 256.9C498.431 258.22 499.351 259.02 501.151 259.02C504.431 259.02 506.751 256.86 506.751 254.06V251.38L501.111 254.02C499.271 254.9 498.431 255.7 498.431 256.9ZM523.394 261.9C519.354 261.9 515.674 260.14 514.354 256.54L516.874 254.58C517.554 256.78 519.674 258.98 523.514 258.98C525.794 258.98 527.314 258.1 527.314 256.38C527.314 254.62 525.554 254.06 523.274 253.54L520.714 252.94C517.954 252.3 514.954 250.98 514.954 247.42C514.954 243.9 517.674 241.74 521.874 241.74C525.954 241.74 528.794 243.9 529.874 246.46L527.234 248.42C526.274 246.14 524.434 244.7 521.674 244.7C519.674 244.7 518.234 245.58 518.234 247.22C518.234 248.94 519.514 249.54 522.154 250.18L524.634 250.82C528.994 251.86 530.434 253.66 530.434 256.34C530.434 260.18 527.154 261.9 523.394 261.9ZM537.948 261.5H534.468V234.7H537.948V247.3C538.708 244.3 540.788 241.74 544.588 241.74C548.388 241.74 550.748 244.02 550.748 248.14V261.5H547.308V248.98C547.308 246.46 546.308 244.7 543.028 244.7C539.308 244.7 537.948 247.3 537.948 250.54V261.5ZM568.583 261.5H565.103V234.7H583.063V237.78H568.583V247.38H580.463V250.46H568.583V261.5ZM590.37 261.5H586.89V234.7H590.37V261.5ZM603.361 261.9C598.001 261.9 594.241 257.94 594.241 251.82C594.241 245.7 598.001 241.74 603.361 241.74C608.721 241.74 612.521 245.7 612.521 251.82C612.521 257.94 608.721 261.9 603.361 261.9ZM603.361 258.98C606.681 258.98 609.001 256.7 609.001 251.82C609.001 246.9 606.681 244.66 603.361 244.66C600.081 244.66 597.801 246.9 597.801 251.82C597.801 256.7 600.081 258.98 603.361 258.98ZM623.352 261.5H618.832L613.792 242.14H617.672L620.192 254.06L621.112 258.98L622.312 254.06L625.832 242.14H630.112L633.592 254.06L634.832 258.98L635.752 254.06L638.232 242.14H642.112L637.112 261.5H632.552L629.232 250.18L627.992 245.02L626.672 250.18L623.352 261.5ZM657.879 261.5H654.399V234.7H658.279L665.199 247.98L667.919 253.86L670.599 247.98L677.559 234.7H681.439V261.5H677.959V246.7L678.319 239.46L675.359 246.1L669.599 257.02H666.199L660.439 246.1L657.439 239.46L657.879 246.7V261.5ZM694.767 261.9C689.407 261.9 685.647 257.94 685.647 251.82C685.647 245.7 689.407 241.74 694.767 241.74C700.127 241.74 703.927 245.7 703.927 251.82C703.927 257.94 700.127 261.9 694.767 261.9ZM694.767 258.98C698.087 258.98 700.407 256.7 700.407 251.82C700.407 246.9 698.087 244.66 694.767 244.66C691.487 244.66 689.207 246.9 689.207 251.82C689.207 256.7 691.487 258.98 694.767 258.98ZM711.776 261.5H708.296V242.14H711.776V247.3C712.536 244.3 714.616 241.74 718.416 241.74C722.216 241.74 724.576 244.02 724.576 248.14V261.5H721.136V248.98C721.136 246.46 720.136 244.7 716.856 244.7C713.136 244.7 711.776 247.3 711.776 250.54V261.5ZM733.222 239.02H729.742V234.7H733.222V239.02ZM733.222 261.5H729.742V242.14H733.222V261.5ZM744.933 261.94C741.773 261.94 739.533 259.86 739.533 256.54V244.86H736.413V242.14H739.533V239.66L743.013 237.1V242.14H749.373V244.86H743.013V255.5C743.013 257.98 744.173 258.58 745.693 258.58C747.413 258.58 748.613 257.14 749.133 255.94L750.293 259.38C749.453 260.7 747.613 261.94 744.933 261.94ZM760.119 261.9C754.759 261.9 750.999 257.94 750.999 251.82C750.999 245.7 754.759 241.74 760.119 241.74C765.479 241.74 769.279 245.7 769.279 251.82C769.279 257.94 765.479 261.9 760.119 261.9ZM760.119 258.98C763.439 258.98 765.759 256.7 765.759 251.82C765.759 246.9 763.439 244.66 760.119 244.66C756.839 244.66 754.559 246.9 754.559 251.82C754.559 256.7 756.839 258.98 760.119 258.98ZM777.128 261.5H773.648V242.14H777.128V247.3C777.888 244.3 779.888 241.7 783.168 241.7C785.248 241.7 787.248 243.18 787.248 245.9C787.248 247.54 786.808 248.74 786.488 249.22H782.688C783.328 248.66 783.848 247.46 783.848 246.38C783.848 245.26 783.248 244.3 781.848 244.3C779.368 244.3 777.128 247.22 777.128 250.54V261.5ZM794.003 239.02H790.523V234.7H794.003V239.02ZM794.003 261.5H790.523V242.14H794.003V261.5ZM802.714 261.5H799.234V242.14H802.714V247.3C803.474 244.3 805.554 241.74 809.354 241.74C813.154 241.74 815.514 244.02 815.514 248.14V261.5H812.074V248.98C812.074 246.46 811.074 244.7 807.794 244.7C804.074 244.7 802.714 247.3 802.714 250.54V261.5ZM828.005 255.58C826.605 255.58 825.325 255.3 824.245 254.78C823.765 255.42 823.205 256.34 823.205 257.18C823.205 258.22 823.765 258.74 825.765 258.74H831.605C835.125 258.74 837.325 260.14 837.325 263.06C837.325 266.74 833.725 269.34 827.205 269.34C822.245 269.34 819.125 267.7 819.125 265.14C819.125 263.34 820.765 262.26 822.245 261.66C821.005 261.26 820.365 260.34 820.365 259.06C820.365 257.54 821.525 255.86 823.405 254.34C821.485 253.14 820.365 251.1 820.365 248.66C820.365 244.62 823.445 241.74 828.005 241.74C829.285 241.74 830.445 241.98 831.445 242.38L832.645 237.74L836.245 239.02L832.685 243.02C834.525 244.22 835.645 246.26 835.645 248.66C835.645 252.7 832.565 255.58 828.005 255.58ZM828.005 252.9C830.445 252.9 832.285 251.3 832.285 248.66C832.285 246.02 830.445 244.42 828.005 244.42C825.605 244.42 823.725 246.02 823.725 248.66C823.725 251.3 825.605 252.9 828.005 252.9ZM827.205 266.58C831.605 266.58 834.085 265.46 834.085 263.54C834.085 262.3 833.125 261.74 831.165 261.74H823.245C822.605 262.3 821.925 263.14 821.925 264.06C821.925 265.62 823.725 266.58 827.205 266.58Z" fill="black"/>
<path d="M20.992 373.576C9.024 373.576 2.944 364.104 2.944 351.496C2.944 338.952 9.024 329.48 20.992 329.48C32.96 329.48 38.976 338.952 38.976 351.496C38.976 364.104 32.96 373.576 20.992 373.576ZM20.992 366.664C28.672 366.664 31.424 360.52 31.424 351.496C31.424 342.536 28.672 336.328 20.992 336.328C13.376 336.328 10.56 342.536 10.56 351.496C10.56 360.52 13.376 366.664 20.992 366.664ZM72.3555 373H65.1875V363.336H43.7475V357.768L64.7395 330.12H72.3555V357.064H79.5875V363.336H72.3555V373ZM51.6835 357.064H65.1875V339.464L51.6835 357.064Z" fill="black"/>
<path d="M123.56 366.82C115.44 366.82 111 360.78 111 353.06C111 345.34 115.44 339.3 123.56 339.3C129.56 339.3 133.6 342.5 135.32 348.02L132.2 350.06C131.32 345.58 128.68 342.58 123.6 342.58C117.48 342.58 114.68 346.94 114.68 353.06C114.68 359.18 117.48 363.54 123.6 363.54C128.68 363.54 131.32 360.54 132.2 356.06L135.32 358.1C133.6 363.62 129.56 366.82 123.56 366.82ZM145.649 366.9C141.849 366.9 139.489 364.62 139.489 360.54V347.14H142.929V359.7C142.929 362.18 143.929 363.98 147.209 363.98C150.969 363.98 152.329 361.34 152.329 358.14V347.14H155.769V366.5H152.329V361.22C151.609 364.26 149.529 366.9 145.649 366.9ZM167.988 366.9C163.948 366.9 160.268 365.14 158.948 361.54L161.468 359.58C162.148 361.78 164.268 363.98 168.108 363.98C170.388 363.98 171.908 363.1 171.908 361.38C171.908 359.62 170.148 359.06 167.868 358.54L165.308 357.94C162.548 357.3 159.548 355.98 159.548 352.42C159.548 348.9 162.268 346.74 166.468 346.74C170.548 346.74 173.388 348.9 174.468 351.46L171.828 353.42C170.868 351.14 169.028 349.7 166.268 349.7C164.268 349.7 162.828 350.58 162.828 352.22C162.828 353.94 164.108 354.54 166.748 355.18L169.228 355.82C173.588 356.86 175.028 358.66 175.028 361.34C175.028 365.18 171.748 366.9 167.988 366.9ZM185.112 366.94C181.952 366.94 179.712 364.86 179.712 361.54V349.86H176.592V347.14H179.712V344.66L183.192 342.1V347.14H189.552V349.86H183.192V360.5C183.192 362.98 184.352 363.58 185.872 363.58C187.592 363.58 188.792 362.14 189.312 360.94L190.472 364.38C189.632 365.7 187.792 366.94 185.112 366.94ZM200.298 366.9C194.938 366.9 191.178 362.94 191.178 356.82C191.178 350.7 194.938 346.74 200.298 346.74C205.658 346.74 209.458 350.7 209.458 356.82C209.458 362.94 205.658 366.9 200.298 366.9ZM200.298 363.98C203.618 363.98 205.938 361.7 205.938 356.82C205.938 351.9 203.618 349.66 200.298 349.66C197.018 349.66 194.738 351.9 194.738 356.82C194.738 361.7 197.018 363.98 200.298 363.98ZM217.308 366.5H213.827V347.14H217.308V352.26C218.068 349.3 220.068 346.74 223.548 346.74C227.108 346.74 229.068 348.78 229.268 352.42C230.028 349.34 232.028 346.74 235.548 346.74C239.348 346.74 241.308 349.02 241.308 353.1V366.5H237.868V353.94C237.868 351.1 236.508 349.7 233.628 349.7C230.668 349.7 229.308 352.3 229.308 355.54V366.5H225.828V353.94C225.828 351.1 224.508 349.7 221.588 349.7C218.668 349.7 217.308 352.3 217.308 355.54V366.5ZM254.646 366.9C249.166 366.9 245.366 362.98 245.366 356.82C245.366 350.7 249.126 346.74 254.446 346.74C259.926 346.74 263.246 350.38 263.246 356.06C263.246 356.66 263.166 357.26 263.086 357.62H248.726C248.926 361.7 251.206 364.02 254.646 364.02C258.526 364.02 260.086 361.9 260.846 360.22L262.966 362.62C261.526 364.94 258.846 366.9 254.646 366.9ZM254.446 349.66C251.326 349.66 249.246 351.5 248.806 355.1H260.126C259.766 351.54 257.686 349.66 254.446 349.66ZM271.136 366.5H267.656V347.14H271.136V352.3C271.896 349.3 273.896 346.7 277.176 346.7C279.256 346.7 281.256 348.18 281.256 350.9C281.256 352.54 280.816 353.74 280.496 354.22H276.696C277.336 353.66 277.856 352.46 277.856 351.38C277.856 350.26 277.256 349.3 275.856 349.3C273.376 349.3 271.136 352.22 271.136 355.54V366.5ZM297.2 366.5H293.72V339.7H297.2V366.5ZM306.526 366.5H303.046V347.14H306.526V352.3C307.286 349.3 309.366 346.74 313.166 346.74C316.966 346.74 319.326 349.02 319.326 353.14V366.5H315.886V353.98C315.886 351.46 314.886 349.7 311.606 349.7C307.886 349.7 306.526 352.3 306.526 355.54V366.5ZM331.426 366.9C327.386 366.9 323.706 365.14 322.386 361.54L324.906 359.58C325.586 361.78 327.706 363.98 331.546 363.98C333.826 363.98 335.346 363.1 335.346 361.38C335.346 359.62 333.586 359.06 331.306 358.54L328.746 357.94C325.986 357.3 322.986 355.98 322.986 352.42C322.986 348.9 325.706 346.74 329.906 346.74C333.986 346.74 336.826 348.9 337.906 351.46L335.266 353.42C334.306 351.14 332.466 349.7 329.706 349.7C327.706 349.7 326.266 350.58 326.266 352.22C326.266 353.94 327.546 354.54 330.186 355.18L332.666 355.82C337.026 356.86 338.466 358.66 338.466 361.34C338.466 365.18 335.186 366.9 331.426 366.9ZM345.979 344.02H342.499V339.7H345.979V344.02ZM345.979 366.5H342.499V347.14H345.979V366.5ZM358.77 360.58C357.37 360.58 356.09 360.3 355.01 359.78C354.53 360.42 353.97 361.34 353.97 362.18C353.97 363.22 354.53 363.74 356.53 363.74H362.37C365.89 363.74 368.09 365.14 368.09 368.06C368.09 371.74 364.49 374.34 357.97 374.34C353.01 374.34 349.89 372.7 349.89 370.14C349.89 368.34 351.53 367.26 353.01 366.66C351.77 366.26 351.13 365.34 351.13 364.06C351.13 362.54 352.29 360.86 354.17 359.34C352.25 358.14 351.13 356.1 351.13 353.66C351.13 349.62 354.21 346.74 358.77 346.74C360.05 346.74 361.21 346.98 362.21 347.38L363.41 342.74L367.01 344.02L363.45 348.02C365.29 349.22 366.41 351.26 366.41 353.66C366.41 357.7 363.33 360.58 358.77 360.58ZM358.77 357.9C361.21 357.9 363.05 356.3 363.05 353.66C363.05 351.02 361.21 349.42 358.77 349.42C356.37 349.42 354.49 351.02 354.49 353.66C354.49 356.3 356.37 357.9 358.77 357.9ZM357.97 371.58C362.37 371.58 364.85 370.46 364.85 368.54C364.85 367.3 363.89 366.74 361.93 366.74H354.01C353.37 367.3 352.69 368.14 352.69 369.06C352.69 370.62 354.49 371.58 357.97 371.58ZM374.925 366.5H371.445V339.7H374.925V352.3C375.685 349.3 377.765 346.74 381.565 346.74C385.365 346.74 387.725 349.02 387.725 353.14V366.5H384.285V353.98C384.285 351.46 383.285 349.7 380.005 349.7C376.285 349.7 374.925 352.3 374.925 355.54V366.5ZM398.823 366.94C395.663 366.94 393.423 364.86 393.423 361.54V349.86H390.303V347.14H393.423V344.66L396.903 342.1V347.14H403.263V349.86H396.903V360.5C396.903 362.98 398.063 363.58 399.583 363.58C401.303 363.58 402.503 362.14 403.023 360.94L404.183 364.38C403.343 365.7 401.503 366.94 398.823 366.94ZM414.277 366.9C410.237 366.9 406.557 365.14 405.237 361.54L407.757 359.58C408.437 361.78 410.557 363.98 414.397 363.98C416.677 363.98 418.197 363.1 418.197 361.38C418.197 359.62 416.437 359.06 414.157 358.54L411.597 357.94C408.837 357.3 405.837 355.98 405.837 352.42C405.837 348.9 408.557 346.74 412.757 346.74C416.837 346.74 419.677 348.9 420.757 351.46L418.117 353.42C417.157 351.14 415.317 349.7 412.557 349.7C410.557 349.7 409.117 350.58 409.117 352.22C409.117 353.94 410.397 354.54 413.037 355.18L415.517 355.82C419.877 356.86 421.317 358.66 421.317 361.34C421.317 365.18 418.037 366.9 414.277 366.9ZM438.14 366.9C434.86 366.9 433.02 365.02 433.02 362.46C433.02 359.86 434.98 358.22 437.74 356.98L444.74 353.86C444.62 351.58 443.54 349.9 440.5 349.9C437.74 349.9 435.9 351.5 434.9 353.62L432.54 351.18C433.7 349.18 436.58 346.74 440.9 346.74C445.66 346.74 448.22 349.58 448.22 354.18V362.14C448.22 363.06 448.58 363.34 449.3 363.34H450.54V366.5H448.3C446.3 366.5 444.86 365.54 444.86 362.82V361.46C444.22 364.02 442.14 366.9 438.14 366.9ZM436.54 361.9C436.54 363.22 437.46 364.02 439.26 364.02C442.54 364.02 444.86 361.86 444.86 359.06V356.38L439.22 359.02C437.38 359.9 436.54 360.7 436.54 361.9ZM458.05 366.5H454.57V347.14H458.05V352.3C458.81 349.3 460.89 346.74 464.69 346.74C468.49 346.74 470.85 349.02 470.85 353.14V366.5H467.41V353.98C467.41 351.46 466.41 349.7 463.13 349.7C459.41 349.7 458.05 352.3 458.05 355.54V366.5ZM482.777 366.98C477.897 366.98 474.857 362.98 474.857 356.86C474.857 350.74 477.897 346.74 482.777 346.74C486.497 346.74 488.337 349.22 489.017 352.18V339.7H492.497V366.5H489.017V361.54C488.337 364.5 486.497 366.98 482.777 366.98ZM478.377 356.86C478.377 361.82 480.897 364.06 483.937 364.06C487.657 364.06 489.017 361.46 489.017 358.26V355.5C489.017 352.3 487.657 349.7 483.937 349.7C480.897 349.7 478.377 351.94 478.377 356.86ZM517.682 366.5H514.202L504.162 339.7H508.002L514.002 356.5L516.002 363.42L518.002 356.5L524.042 339.7H527.682L517.682 366.5ZM533.335 366.9C530.055 366.9 528.215 365.02 528.215 362.46C528.215 359.86 530.175 358.22 532.935 356.98L539.935 353.86C539.815 351.58 538.735 349.9 535.695 349.9C532.935 349.9 531.095 351.5 530.095 353.62L527.735 351.18C528.895 349.18 531.775 346.74 536.095 346.74C540.855 346.74 543.415 349.58 543.415 354.18V362.14C543.415 363.06 543.775 363.34 544.495 363.34H545.735V366.5H543.495C541.495 366.5 540.055 365.54 540.055 362.82V361.46C539.415 364.02 537.335 366.9 533.335 366.9ZM531.735 361.9C531.735 363.22 532.655 364.02 534.455 364.02C537.735 364.02 540.055 361.86 540.055 359.06V356.38L534.415 359.02C532.575 359.9 531.735 360.7 531.735 361.9ZM553.245 366.5H549.765V339.7H553.245V366.5ZM564.516 366.9C560.716 366.9 558.356 364.62 558.356 360.54V347.14H561.796V359.7C561.796 362.18 562.796 363.98 566.076 363.98C569.836 363.98 571.196 361.34 571.196 358.14V347.14H574.636V366.5H571.196V361.22C570.476 364.26 568.396 366.9 564.516 366.9ZM588.083 366.9C582.603 366.9 578.803 362.98 578.803 356.82C578.803 350.7 582.563 346.74 587.883 346.74C593.363 346.74 596.683 350.38 596.683 356.06C596.683 356.66 596.603 357.26 596.523 357.62H582.163C582.363 361.7 584.643 364.02 588.083 364.02C591.963 364.02 593.523 361.9 594.283 360.22L596.403 362.62C594.963 364.94 592.283 366.9 588.083 366.9ZM587.883 349.66C584.763 349.66 582.683 351.5 582.243 355.1H593.563C593.203 351.54 591.123 349.66 587.883 349.66ZM621.88 366.82C613.76 366.82 609.32 360.78 609.32 353.06C609.32 345.34 613.76 339.3 621.88 339.3C627.88 339.3 631.92 342.5 633.64 348.02L630.52 350.06C629.64 345.58 627 342.58 621.92 342.58C615.8 342.58 613 346.94 613 353.06C613 359.18 615.8 363.54 621.92 363.54C627 363.54 629.64 360.54 630.52 356.06L633.64 358.1C631.92 363.62 627.88 366.82 621.88 366.82ZM645.572 366.9C640.212 366.9 636.452 362.94 636.452 356.82C636.452 350.7 640.212 346.74 645.572 346.74C650.932 346.74 654.732 350.7 654.732 356.82C654.732 362.94 650.932 366.9 645.572 366.9ZM645.572 363.98C648.892 363.98 651.212 361.7 651.212 356.82C651.212 351.9 648.892 349.66 645.572 349.66C642.292 349.66 640.012 351.9 640.012 356.82C640.012 361.7 642.292 363.98 645.572 363.98ZM662.581 366.5H659.101V347.14H662.581V352.26C663.341 349.3 665.341 346.74 668.821 346.74C672.381 346.74 674.341 348.78 674.541 352.42C675.301 349.34 677.301 346.74 680.821 346.74C684.621 346.74 686.581 349.02 686.581 353.1V366.5H683.141V353.94C683.141 351.1 681.781 349.7 678.901 349.7C675.941 349.7 674.581 352.3 674.581 355.54V366.5H671.101V353.94C671.101 351.1 669.781 349.7 666.861 349.7C663.941 349.7 662.581 352.3 662.581 355.54V366.5ZM695.237 366.5H691.757V347.14H695.237V352.26C695.997 349.3 697.997 346.74 701.477 346.74C705.037 346.74 706.997 348.78 707.197 352.42C707.957 349.34 709.957 346.74 713.477 346.74C717.277 346.74 719.237 349.02 719.237 353.1V366.5H715.797V353.94C715.797 351.1 714.437 349.7 711.557 349.7C708.597 349.7 707.237 352.3 707.237 355.54V366.5H703.757V353.94C703.757 351.1 702.437 349.7 699.517 349.7C696.597 349.7 695.237 352.3 695.237 355.54V366.5ZM730.453 366.9C726.653 366.9 724.293 364.62 724.293 360.54V347.14H727.733V359.7C727.733 362.18 728.733 363.98 732.013 363.98C735.773 363.98 737.133 361.34 737.133 358.14V347.14H740.573V366.5H737.133V361.22C736.413 364.26 734.333 366.9 730.453 366.9ZM749.339 366.5H745.859V347.14H749.339V352.3C750.099 349.3 752.179 346.74 755.979 346.74C759.779 346.74 762.139 349.02 762.139 353.14V366.5H758.699V353.98C758.699 351.46 757.699 349.7 754.419 349.7C750.699 349.7 749.339 352.3 749.339 355.54V366.5ZM770.784 344.02H767.304V339.7H770.784V344.02ZM770.784 366.5H767.304V347.14H770.784V366.5ZM784.055 366.9C778.495 366.9 774.935 362.98 774.935 356.82C774.935 350.7 778.495 346.74 784.055 346.74C789.095 346.74 792.055 349.66 792.975 353.54L789.575 354.94C789.175 351.86 787.575 349.66 784.095 349.66C780.575 349.66 778.455 352.26 778.455 356.82C778.455 361.38 780.575 364.02 784.095 364.02C787.575 364.02 789.175 361.78 789.575 358.7L792.975 360.1C792.055 363.98 789.095 366.9 784.055 366.9ZM801.265 366.9C797.985 366.9 796.145 365.02 796.145 362.46C796.145 359.86 798.105 358.22 800.865 356.98L807.865 353.86C807.745 351.58 806.665 349.9 803.625 349.9C800.865 349.9 799.025 351.5 798.025 353.62L795.665 351.18C796.825 349.18 799.705 346.74 804.025 346.74C808.785 346.74 811.345 349.58 811.345 354.18V362.14C811.345 363.06 811.705 363.34 812.425 363.34H813.665V366.5H811.425C809.425 366.5 807.985 365.54 807.985 362.82V361.46C807.345 364.02 805.265 366.9 801.265 366.9ZM799.665 361.9C799.665 363.22 800.585 364.02 802.385 364.02C805.665 364.02 807.985 361.86 807.985 359.06V356.38L802.345 359.02C800.505 359.9 799.665 360.7 799.665 361.9ZM823.628 366.94C820.468 366.94 818.228 364.86 818.228 361.54V349.86H815.108V347.14H818.228V344.66L821.708 342.1V347.14H828.068V349.86H821.708V360.5C821.708 362.98 822.868 363.58 824.388 363.58C826.108 363.58 827.308 362.14 827.828 360.94L828.988 364.38C828.148 365.7 826.308 366.94 823.628 366.94ZM835.901 344.02H832.421V339.7H835.901V344.02ZM835.901 366.5H832.421V347.14H835.901V366.5ZM848.892 366.9C843.532 366.9 839.772 362.94 839.772 356.82C839.772 350.7 843.532 346.74 848.892 346.74C854.252 346.74 858.052 350.7 858.052 356.82C858.052 362.94 854.252 366.9 848.892 366.9ZM848.892 363.98C852.212 363.98 854.532 361.7 854.532 356.82C854.532 351.9 852.212 349.66 848.892 349.66C845.612 349.66 843.332 351.9 843.332 356.82C843.332 361.7 845.612 363.98 848.892 363.98ZM865.901 366.5H862.421V347.14H865.901V352.3C866.661 349.3 868.741 346.74 872.541 346.74C876.341 346.74 878.701 349.02 878.701 353.14V366.5H875.261V353.98C875.261 351.46 874.261 349.7 870.981 349.7C867.261 349.7 865.901 352.3 865.901 355.54V366.5ZM902.736 366.5H899.296V342.78H890.816V339.7H911.216V342.78H902.736V366.5ZM918.775 366.9C913.415 366.9 909.655 362.94 909.655 356.82C909.655 350.7 913.415 346.74 918.775 346.74C924.135 346.74 927.935 350.7 927.935 356.82C927.935 362.94 924.135 366.9 918.775 366.9ZM918.775 363.98C922.095 363.98 924.415 361.7 924.415 356.82C924.415 351.9 922.095 349.66 918.775 349.66C915.495 349.66 913.215 351.9 913.215 356.82C913.215 361.7 915.495 363.98 918.775 363.98ZM940.455 366.9C935.095 366.9 931.335 362.94 931.335 356.82C931.335 350.7 935.095 346.74 940.455 346.74C945.815 346.74 949.615 350.7 949.615 356.82C949.615 362.94 945.815 366.9 940.455 366.9ZM940.455 363.98C943.775 363.98 946.095 361.7 946.095 356.82C946.095 351.9 943.775 349.66 940.455 349.66C937.175 349.66 934.895 351.9 934.895 356.82C934.895 361.7 937.175 363.98 940.455 363.98ZM957.542 366.5H954.062V339.7H957.542V366.5ZM970.293 366.9C966.253 366.9 962.573 365.14 961.253 361.54L963.773 359.58C964.453 361.78 966.573 363.98 970.413 363.98C972.693 363.98 974.213 363.1 974.213 361.38C974.213 359.62 972.453 359.06 970.173 358.54L967.613 357.94C964.853 357.3 961.853 355.98 961.853 352.42C961.853 348.9 964.573 346.74 968.773 346.74C972.853 346.74 975.693 348.9 976.773 351.46L974.133 353.42C973.173 351.14 971.333 349.7 968.573 349.7C966.573 349.7 965.133 350.58 965.133 352.22C965.133 353.94 966.413 354.54 969.053 355.18L971.533 355.82C975.893 356.86 977.333 358.66 977.333 361.34C977.333 365.18 974.053 366.9 970.293 366.9Z" fill="black"/>
</svg>
