<svg width="35" height="27" viewBox="0 0 35 27" fill="none" xmlns="http://www.w3.org/2000/svg">
<rect x="0.0820312" y="0.640015" width="34.0376" height="25.5572" rx="12.7786" fill="#3835ED"/>
<path d="M17.1019 7.00049C20.6475 7.00049 23.5202 9.87319 23.5202 13.4188C23.5202 16.9644 20.6475 19.8371 17.1019 19.8371C13.5563 19.8371 10.6836 16.9644 10.6836 13.4188C10.6836 9.87319 13.5563 7.00049 17.1019 7.00049ZM16.3539 10.7169L18.3079 12.5906H13.5822C13.238 12.5906 12.961 12.8675 12.961 13.2117V13.6258C12.961 13.97 13.238 14.2469 13.5822 14.2469H18.3079L16.3539 16.1207C16.1029 16.3613 16.0977 16.7625 16.3436 17.0084L16.6283 17.2904C16.8715 17.5337 17.2649 17.5337 17.5056 17.2904L20.9399 13.8587C21.1832 13.6155 21.1832 13.2221 20.9399 12.9814L17.5056 9.54451C17.2623 9.30124 16.869 9.30124 16.6283 9.54451L16.3436 9.8266C16.0977 10.0751 16.1029 10.4762 16.3539 10.7169Z" fill="white"/>
</svg>
