<svg width="15" height="14" viewBox="0 0 15 14" fill="none" xmlns="http://www.w3.org/2000/svg">
<g clip-path="url(#clip0_213_6456)">
<rect width="14" height="14" transform="translate(0.5)" fill="white" fill-opacity="0.01"/>
<g clip-path="url(#clip1_213_6456)">
<path d="M7.5 5.68677C7.61603 5.68677 7.72731 5.73286 7.80936 5.81491C7.89141 5.89696 7.9375 6.00824 7.9375 6.12427V7.43677H9.25C9.36603 7.43677 9.47731 7.48286 9.55936 7.56491C9.64141 7.64696 9.6875 7.75824 9.6875 7.87427C9.6875 7.9903 9.64141 8.10158 9.55936 8.18363C9.47731 8.26567 9.36603 8.31177 9.25 8.31177H7.9375V9.62427C7.9375 9.7403 7.89141 9.85158 7.80936 9.93363C7.72731 10.0157 7.61603 10.0618 7.5 10.0618C7.38397 10.0618 7.27269 10.0157 7.19064 9.93363C7.10859 9.85158 7.0625 9.7403 7.0625 9.62427V8.31177H5.75C5.63397 8.31177 5.52269 8.26567 5.44064 8.18363C5.35859 8.10158 5.3125 7.9903 5.3125 7.87427C5.3125 7.75824 5.35859 7.64696 5.44064 7.56491C5.52269 7.48286 5.63397 7.43677 5.75 7.43677H7.0625V6.12427C7.0625 6.00824 7.10859 5.89696 7.19064 5.81491C7.27269 5.73286 7.38397 5.68677 7.5 5.68677Z" fill="#5C6F88"/>
<path d="M12.75 3.93677V12.2493C12.75 12.7134 12.5656 13.1585 12.2374 13.4867C11.9092 13.8149 11.4641 13.9993 11 13.9993H4C3.53587 13.9993 3.09075 13.8149 2.76256 13.4867C2.43437 13.1585 2.25 12.7134 2.25 12.2493V1.74927C2.25 1.28514 2.43437 0.840019 2.76256 0.511831C3.09075 0.183642 3.53587 -0.000732422 4 -0.000732422H8.8125L12.75 3.93677ZM10.125 3.93677C9.7769 3.93677 9.44306 3.79849 9.19692 3.55235C8.95078 3.3062 8.8125 2.97236 8.8125 2.62427V0.874268H4C3.76794 0.874268 3.54538 0.966455 3.38128 1.13055C3.21719 1.29464 3.125 1.5172 3.125 1.74927V12.2493C3.125 12.4813 3.21719 12.7039 3.38128 12.868C3.54538 13.0321 3.76794 13.1243 4 13.1243H11C11.2321 13.1243 11.4546 13.0321 11.6187 12.868C11.7828 12.7039 11.875 12.4813 11.875 12.2493V3.93677H10.125Z" fill="#5C6F88"/>
</g>
</g>
<defs>
<clipPath id="clip0_213_6456">
<rect width="14" height="14" fill="white" transform="translate(0.5)"/>
</clipPath>
<clipPath id="clip1_213_6456">
<rect width="14" height="14" fill="white" transform="translate(0.5)"/>
</clipPath>
</defs>
</svg>
