<svg width="15" height="14" viewBox="0 0 15 14" fill="none" xmlns="http://www.w3.org/2000/svg">
<g clip-path="url(#clip0_386_2935)">
<path d="M14.2402 5.22266C14.2858 5.17708 14.3405 5.17025 14.4043 5.20215C14.4681 5.23405 14.5 5.2819 14.5 5.3457V10.9375C14.5 11.3021 14.3724 11.612 14.1172 11.8672C13.862 12.1224 13.5521 12.25 13.1875 12.25H1.8125C1.44792 12.25 1.13802 12.1224 0.882812 11.8672C0.627604 11.612 0.5 11.3021 0.5 10.9375V5.3457C0.5 5.2819 0.529622 5.23405 0.588867 5.20215C0.648112 5.17025 0.705078 5.17708 0.759766 5.22266C1.06966 5.45964 1.5026 5.7832 2.05859 6.19336C2.61458 6.60352 3.58984 7.31445 4.98438 8.32617C5.26693 8.53581 5.63607 8.80697 6.0918 9.13965C6.54753 9.47233 7.01693 9.63411 7.5 9.625C7.99219 9.63411 8.46615 9.47005 8.92188 9.13281C9.3776 8.79557 9.74675 8.52669 10.0293 8.32617C11.4238 7.31445 12.3968 6.60352 12.9482 6.19336C13.4997 5.7832 13.9303 5.45964 14.2402 5.22266ZM7.5 8.75C7.18099 8.75911 6.82324 8.61328 6.42676 8.3125C6.03027 8.01172 5.7181 7.7793 5.49023 7.61523C3.67643 6.30273 2.53711 5.47103 2.07227 5.12012C1.60742 4.76921 1.16536 4.42969 0.746094 4.10156C0.673177 4.03776 0.613932 3.96029 0.568359 3.86914C0.522786 3.778 0.5 3.68229 0.5 3.58203V3.0625C0.5 2.69792 0.627604 2.38802 0.882812 2.13281C1.13802 1.8776 1.44792 1.75 1.8125 1.75H13.1875C13.5521 1.75 13.862 1.8776 14.1172 2.13281C14.3724 2.38802 14.5 2.69792 14.5 3.0625V3.58203C14.5 3.68229 14.4772 3.778 14.4316 3.86914C14.3861 3.96029 14.3268 4.03776 14.2539 4.10156C13.8346 4.42969 13.3926 4.76921 12.9277 5.12012C12.4629 5.47103 11.3236 6.30273 9.50977 7.61523C9.2819 7.7793 8.96973 8.01172 8.57324 8.3125C8.17676 8.61328 7.81901 8.75911 7.5 8.75Z" fill="white"/>
</g>
<defs>
<clipPath id="clip0_386_2935">
<rect width="14" height="14" fill="white" transform="matrix(1 0 0 -1 0.5 14)"/>
</clipPath>
</defs>
</svg>
