<svg width="16" height="16" viewBox="0 0 16 16" fill="none" xmlns="http://www.w3.org/2000/svg">
<path d="M9.5 12.9993C9.5 13.3971 9.34196 13.7786 9.06066 14.0599C8.77936 14.3412 8.39782 14.4993 8 14.4993C7.60218 14.4993 7.22064 14.3412 6.93934 14.0599C6.65804 13.7786 6.5 13.3971 6.5 12.9993C6.5 12.6014 6.65804 12.2199 6.93934 11.9386C7.22064 11.6573 7.60218 11.4993 8 11.4993C8.39782 11.4993 8.77936 11.6573 9.06066 11.9386C9.34196 12.2199 9.5 12.6014 9.5 12.9993ZM9.5 7.99927C9.5 8.39709 9.34196 8.77862 9.06066 9.05993C8.77936 9.34123 8.39782 9.49927 8 9.49927C7.60218 9.49927 7.22064 9.34123 6.93934 9.05993C6.65804 8.77862 6.5 8.39709 6.5 7.99927C6.5 7.60144 6.65804 7.21991 6.93934 6.93861C7.22064 6.6573 7.60218 6.49927 8 6.49927C8.39782 6.49927 8.77936 6.6573 9.06066 6.93861C9.34196 7.21991 9.5 7.60144 9.5 7.99927ZM9.5 2.99927C9.5 3.39709 9.34196 3.77862 9.06066 4.05993C8.77936 4.34123 8.39782 4.49927 8 4.49927C7.60218 4.49927 7.22064 4.34123 6.93934 4.05993C6.65804 3.77862 6.5 3.39709 6.5 2.99927C6.5 2.60144 6.65804 2.21991 6.93934 1.93861C7.22064 1.6573 7.60218 1.49927 8 1.49927C8.39782 1.49927 8.77936 1.6573 9.06066 1.93861C9.34196 2.21991 9.5 2.60144 9.5 2.99927Z" fill="#5C6F88"/>
</svg>
