<svg width="15" height="18" viewBox="0 0 15 18" fill="none" xmlns="http://www.w3.org/2000/svg">
<g clip-path="url(#clip0_386_2931)">
<path d="M14.584 12.4629C14.584 12.6387 14.5488 12.873 14.4785 13.166C14.4082 13.459 14.3379 13.6875 14.2676 13.8516C14.127 14.1914 13.7168 14.5488 13.0371 14.9238C12.4043 15.2637 11.7832 15.4336 11.1738 15.4336C10.9863 15.4336 10.8105 15.4219 10.6465 15.3984C10.4707 15.375 10.2773 15.334 10.0664 15.2754C9.85547 15.2051 9.69727 15.1523 9.5918 15.1172C9.48633 15.082 9.29883 15.0176 9.0293 14.9238C8.75977 14.8184 8.5957 14.7539 8.53711 14.7305C7.88086 14.4961 7.29492 14.2207 6.7793 13.9043C5.93555 13.377 5.05078 12.6504 4.125 11.7246C3.21094 10.8105 2.49023 9.93164 1.96289 9.08789C1.63477 8.57227 1.35352 7.98633 1.11914 7.33008C1.10742 7.25977 1.04883 7.0957 0.943359 6.83789C0.849609 6.56836 0.779297 6.38086 0.732422 6.27539C0.697266 6.16992 0.650391 6.01172 0.591797 5.80078C0.533203 5.58984 0.492188 5.39648 0.46875 5.2207C0.445312 5.04492 0.433594 4.86914 0.433594 4.69336C0.433594 4.07227 0.603516 3.45117 0.943359 2.83008C1.31836 2.15039 1.67578 1.74023 2.01562 1.59961C2.17969 1.5293 2.4082 1.45898 2.70117 1.38867C2.99414 1.31836 3.22852 1.2832 3.4043 1.2832C3.49805 1.2832 3.56836 1.29492 3.61523 1.31836C3.73242 1.35352 3.9082 1.60547 4.14258 2.07422C4.22461 2.20312 4.33008 2.38477 4.45898 2.61914C4.57617 2.85352 4.69336 3.06445 4.81055 3.25195C4.91602 3.45117 5.01562 3.63281 5.10938 3.79688C5.13281 3.82031 5.19141 3.90234 5.28516 4.04297C5.39062 4.18359 5.4668 4.30664 5.51367 4.41211C5.56055 4.50586 5.58398 4.59961 5.58398 4.69336C5.58398 4.82227 5.48438 4.98633 5.28516 5.18555C5.09766 5.39648 4.89258 5.58398 4.66992 5.74805C4.44727 5.91211 4.23633 6.08789 4.03711 6.27539C3.84961 6.46289 3.75586 6.61523 3.75586 6.73242C3.75586 6.80273 3.77344 6.87891 3.80859 6.96094C3.84375 7.05469 3.87305 7.125 3.89648 7.17188C3.91992 7.21875 3.9668 7.30078 4.03711 7.41797C4.10742 7.52344 4.14258 7.58789 4.14258 7.61133C4.6582 8.52539 5.24414 9.31055 5.90039 9.9668C6.55664 10.623 7.3418 11.2031 8.25586 11.707C8.26758 11.7188 8.33203 11.7598 8.44922 11.8301C8.56641 11.9004 8.64844 11.9473 8.69531 11.9707C8.74219 11.9941 8.80664 12.0234 8.88867 12.0586C8.98242 12.0938 9.05859 12.1113 9.11719 12.1113C9.24609 12.1113 9.4043 12.0117 9.5918 11.8125C9.7793 11.625 9.95508 11.4199 10.1191 11.1973C10.2832 10.9746 10.4648 10.7637 10.6641 10.5645C10.8633 10.377 11.0332 10.2832 11.1738 10.2832C11.2676 10.2832 11.3613 10.3066 11.4551 10.3535C11.5488 10.4004 11.666 10.4707 11.8066 10.5645C11.9473 10.6699 12.0352 10.7285 12.0703 10.7402C12.2344 10.8457 12.4102 10.9512 12.5977 11.0566C12.7969 11.1621 13.0137 11.2793 13.248 11.4082C13.4824 11.5371 13.6582 11.6367 13.7754 11.707C14.2441 11.9414 14.502 12.123 14.5488 12.252C14.5723 12.2988 14.584 12.3691 14.584 12.4629Z" fill="white"/>
</g>
<defs>
<clipPath id="clip0_386_2931">
<rect width="14.16" height="18" fill="white" transform="matrix(1 0 0 -1 0.429688 18)"/>
</clipPath>
</defs>
</svg>
