<svg width="17" height="16" viewBox="0 0 17 16" fill="none" xmlns="http://www.w3.org/2000/svg">
<g clip-path="url(#clip0_386_2939)">
<path d="M6.5 0C5.67708 0 4.90104 0.15625 4.17188 0.46875C3.44271 0.78125 2.80469 1.21094 2.25781 1.75781C1.71094 2.30469 1.28125 2.94271 0.96875 3.67188C0.65625 4.40104 0.5 5.17708 0.5 6C0.5 7.10417 0.791667 8.23438 1.375 9.39062C1.94792 10.5365 2.58854 11.5833 3.29688 12.5312C4.00521 13.4792 4.66146 14.2656 5.26562 14.8906C5.88021 15.5156 6.21354 15.8542 6.26562 15.9062C6.29688 15.9375 6.33333 15.9609 6.375 15.9766C6.41667 15.9922 6.45833 16 6.5 16C6.54167 16 6.58333 15.9922 6.625 15.9766C6.66667 15.9609 6.70312 15.9375 6.73438 15.9062C6.78646 15.8542 7.11979 15.5156 7.73438 14.8906C8.33854 14.2656 8.99479 13.4792 9.70312 12.5312C10.4115 11.5833 11.0521 10.5365 11.625 9.39062C12.2083 8.23438 12.5 7.10417 12.5 6C12.5 5.17708 12.3438 4.40104 12.0312 3.67188C11.7188 2.94271 11.2891 2.30469 10.7422 1.75781C10.1953 1.21094 9.55729 0.78125 8.82812 0.46875C8.09896 0.15625 7.32292 0 6.5 0ZM6.5 9.32812C6.04167 9.32812 5.60938 9.24479 5.20312 9.07812C4.79688 8.90104 4.44271 8.66146 4.14062 8.35938C3.83854 8.05729 3.59896 7.70312 3.42188 7.29688C3.25521 6.89062 3.17188 6.45833 3.17188 6C3.17188 5.54167 3.25521 5.10938 3.42188 4.70312C3.59896 4.29688 3.83854 3.94271 4.14062 3.64062C4.44271 3.33854 4.79688 3.09896 5.20312 2.92188C5.60938 2.75521 6.04167 2.67188 6.5 2.67188C6.95833 2.67188 7.39062 2.75521 7.79688 2.92188C8.20312 3.09896 8.55729 3.33854 8.85938 3.64062C9.16146 3.94271 9.40104 4.29688 9.57812 4.70312C9.74479 5.10938 9.82812 5.54167 9.82812 6C9.82812 6.45833 9.74479 6.89062 9.57812 7.29688C9.40104 7.70312 9.16146 8.05729 8.85938 8.35938C8.55729 8.66146 8.20312 8.90104 7.79688 9.07812C7.39062 9.24479 6.95833 9.32812 6.5 9.32812Z" fill="white"/>
</g>
<defs>
<clipPath id="clip0_386_2939">
<rect width="16" height="16" fill="white" transform="matrix(1 0 0 -1 0.5 16)"/>
</clipPath>
</defs>
</svg>
