<svg width="1324" height="943" viewBox="0 0 1324 943" fill="none" xmlns="http://www.w3.org/2000/svg">
<rect width="1324" height="943" rx="30" fill="#3835ED"/>
<path d="M494.952 89.432C485.496 89.432 479.112 82.184 479.112 72.872C479.112 63.608 485.496 56.36 494.952 56.36C504.36 56.36 510.792 63.608 510.792 72.872C510.792 82.184 504.36 89.432 494.952 89.432ZM495 84.248C501.72 84.248 505.128 79.544 505.128 72.872C505.128 66.248 501.72 61.496 495 61.496C488.28 61.496 484.824 66.248 484.824 72.872C484.824 79.544 488.28 84.248 495 84.248ZM523.078 89.48C518.566 89.48 515.782 86.744 515.782 81.896V65.624H521.158V80.264C521.158 83.144 522.118 85.112 525.718 85.112C529.654 85.112 530.998 82.568 530.998 78.728V65.624H536.422V89H530.998V82.616C530.134 86.312 527.734 89.48 523.078 89.48ZM547.458 89H542.082V65.624H547.458V72.248C548.322 68.504 550.674 65.144 554.85 65.144C557.778 65.144 559.938 67.064 559.938 70.52C559.938 72.776 559.314 74.456 558.882 75.176H553.362C554.13 74.408 554.85 72.872 554.85 71.528C554.85 70.232 554.226 69.176 552.642 69.176C549.954 69.176 547.458 72.248 547.458 76.136V89ZM579.155 89H573.73V56.84H579.155V66.584L578.963 72.872L583.619 67.592L593.795 56.84H600.371L588.419 69.608L601.043 89H594.562L584.531 73.544L579.155 79.208V89ZM612.731 89.48C605.771 89.48 601.211 84.632 601.211 77.336C601.211 69.992 605.771 65.144 612.347 65.144C619.355 65.144 623.243 69.8 623.243 76.28C623.243 77.144 623.147 78.152 623.051 78.632H606.347C606.635 82.808 609.083 85.064 612.779 85.064C616.859 85.064 618.683 82.952 619.547 80.984L622.859 84.44C621.083 87.128 617.915 89.48 612.731 89.48ZM612.347 69.464C609.035 69.464 606.827 71.384 606.395 75.176H618.395C618.011 71.48 615.899 69.464 612.347 69.464ZM631.908 97.016C628.548 97.016 625.812 95.288 624.516 93.464L627.06 89.144C628.308 90.92 629.748 92.264 631.908 92.264C633.732 92.264 634.884 91.448 635.748 88.856L636.18 87.56H632.868L625.14 65.624H631.044L635.268 78.872L636.948 85.112L638.628 78.872L642.804 65.624H648.756L640.116 90.632C638.436 95.336 635.7 97.016 631.908 97.016ZM667.561 89H662.137V56.84H684.457V61.64H667.561V71.528H681.529V76.328H667.561V89ZM696.778 89.48C689.818 89.48 685.258 84.632 685.258 77.336C685.258 69.992 689.818 65.144 696.394 65.144C703.402 65.144 707.29 69.8 707.29 76.28C707.29 77.144 707.194 78.152 707.098 78.632H690.394C690.682 82.808 693.13 85.064 696.826 85.064C700.906 85.064 702.73 82.952 703.594 80.984L706.906 84.44C705.13 87.128 701.962 89.48 696.778 89.48ZM696.394 69.464C693.082 69.464 690.874 71.384 690.442 75.176H702.442C702.058 71.48 699.946 69.464 696.394 69.464ZM717.042 89.48C713.202 89.48 710.898 87.32 710.898 83.96C710.898 80.648 713.202 78.632 716.994 77.144L724.818 73.832C724.626 71.48 723.57 69.896 720.354 69.896C717.234 69.896 714.786 71.72 713.442 74.168L710.226 70.328C712.05 67.832 715.698 65.144 720.882 65.144C726.69 65.144 729.954 68.456 729.954 74.216V83C729.954 84.056 730.338 84.392 731.202 84.392H732.69V89H729.378C726.882 89 724.914 87.848 724.914 84.488V82.76C724.194 85.832 721.938 89.48 717.042 89.48ZM716.082 83.144C716.082 84.488 716.994 85.304 718.962 85.304C722.514 85.304 724.914 83.192 724.914 80.024V77.528L718.914 80.216C716.898 81.128 716.082 81.944 716.082 83.144ZM744.639 89.528C740.223 89.528 737.679 86.744 737.679 82.616V69.8H734.031V65.624H737.679V62.792L743.055 59.384V65.624H750.207V69.8H743.055V81.32C743.055 83.864 744.255 84.488 745.839 84.488C747.663 84.488 749.007 83 749.679 81.656L751.359 86.456C750.351 87.944 748.047 89.528 744.639 89.528ZM761.109 89.48C756.597 89.48 753.813 86.744 753.813 81.896V65.624H759.189V80.264C759.189 83.144 760.149 85.112 763.749 85.112C767.685 85.112 769.029 82.568 769.029 78.728V65.624H774.453V89H769.029V82.616C768.165 86.312 765.765 89.48 761.109 89.48ZM785.489 89H780.113V65.624H785.489V72.248C786.353 68.504 788.705 65.144 792.881 65.144C795.809 65.144 797.969 67.064 797.969 70.52C797.969 72.776 797.345 74.456 796.913 75.176H791.393C792.161 74.408 792.881 72.872 792.881 71.528C792.881 70.232 792.257 69.176 790.673 69.176C787.985 69.176 785.489 72.248 785.489 76.136V89ZM811.341 89.48C804.381 89.48 799.821 84.632 799.821 77.336C799.821 69.992 804.381 65.144 810.957 65.144C817.965 65.144 821.853 69.8 821.853 76.28C821.853 77.144 821.757 78.152 821.661 78.632H804.957C805.245 82.808 807.693 85.064 811.389 85.064C815.469 85.064 817.293 82.952 818.157 80.984L821.469 84.44C819.693 87.128 816.525 89.48 811.341 89.48ZM810.957 69.464C807.645 69.464 805.437 71.384 805.005 75.176H817.005C816.621 71.48 814.509 69.464 810.957 69.464ZM835.793 89.48C830.801 89.48 826.241 87.464 824.465 83.768L827.633 80.408C828.929 82.76 831.809 85.16 835.984 85.16C838.289 85.16 839.777 84.344 839.777 82.664C839.777 80.936 838.001 80.36 835.409 79.736L832.289 78.968C828.593 78.104 825.185 76.472 825.185 72.2C825.185 67.832 828.689 65.192 834.065 65.192C839.057 65.192 842.561 67.592 844.001 70.232L840.833 73.592C839.201 71 836.705 69.464 833.681 69.464C831.617 69.464 830.225 70.328 830.225 71.912C830.225 73.592 831.473 74.216 834.641 75.032L837.473 75.752C842.705 77.096 844.625 79.208 844.625 82.568C844.625 87.176 840.737 89.48 835.793 89.48Z" fill="white"/>
<rect x="123" y="167" width="1079" height="551" rx="30" fill="#45A7F2"/>
<rect x="143" y="130" width="1039" height="726" rx="30" fill="#45A7F2" fill-opacity="0.36"/>
<rect x="108" y="207" width="1108" height="649" rx="30" fill="white"/>
</svg>
