<svg width="14" height="14" viewBox="0 0 14 14" fill="none" xmlns="http://www.w3.org/2000/svg">
<g clip-path="url(#clip0_213_6461)">
<rect width="14" height="14" fill="white" fill-opacity="0.01"/>
<g clip-path="url(#clip1_213_6461)">
<path d="M2.58125 0.349268C2.66275 0.240596 2.76844 0.152393 2.88994 0.0916438C3.01144 0.0308945 3.14541 -0.000732422 3.28125 -0.000732422H10.7188C10.8546 -0.000732422 10.9886 0.0308945 11.1101 0.0916438C11.2316 0.152393 11.3372 0.240596 11.4187 0.349268L13.9125 3.67427C13.9693 3.75 14 3.84211 14 3.93677V13.1243C14 13.3563 13.9078 13.5789 13.7437 13.743C13.5796 13.9071 13.3571 13.9993 13.125 13.9993H0.875C0.642936 13.9993 0.420376 13.9071 0.256282 13.743C0.0921872 13.5789 0 13.3563 0 13.1243V3.93677C0 3.84211 0.0307028 3.75 0.0875 3.67427L2.58125 0.349268ZM6.5625 0.874268H3.28125L1.3125 3.49927H6.5625V0.874268ZM7.4375 0.874268V3.49927H12.6875L10.7188 0.874268H7.4375ZM13.125 4.37427H0.875V13.1243H13.125V4.37427Z" fill="#5C6F88"/>
</g>
</g>
<defs>
<clipPath id="clip0_213_6461">
<rect width="14" height="14" fill="white"/>
</clipPath>
<clipPath id="clip1_213_6461">
<rect width="14" height="14" fill="white"/>
</clipPath>
</defs>
</svg>
