<svg width="14" height="14" viewBox="0 0 14 14" fill="none" xmlns="http://www.w3.org/2000/svg">
<g clip-path="url(#clip0_767_740)">
<rect width="14" height="14" fill="white" fill-opacity="0.01"/>
<g clip-path="url(#clip1_767_740)">
<path fill-rule="evenodd" clip-rule="evenodd" d="M0 -0.000976562H0.875V13.124H14V13.999H0V-0.000976562ZM8.75 3.06152C8.75 2.94549 8.79609 2.83421 8.87814 2.75216C8.96019 2.67012 9.07147 2.62402 9.1875 2.62402H12.6875C12.8035 2.62402 12.9148 2.67012 12.9969 2.75216C13.0789 2.83421 13.125 2.94549 13.125 3.06152V6.56152C13.125 6.67756 13.0789 6.78884 12.9969 6.87088C12.9148 6.95293 12.8035 6.99902 12.6875 6.99902C12.5715 6.99902 12.4602 6.95293 12.3781 6.87088C12.2961 6.78884 12.25 6.67756 12.25 6.56152V4.28652L9.08862 8.1514C9.04992 8.19864 9.00176 8.23725 8.94724 8.26475C8.89272 8.29225 8.83304 8.30804 8.77205 8.31109C8.71106 8.31414 8.65011 8.30438 8.59311 8.28246C8.53612 8.26053 8.48435 8.22691 8.44112 8.18377L6.1775 5.92015L2.9785 10.3188C2.90852 10.4078 2.80677 10.4662 2.69464 10.4817C2.5825 10.4972 2.46871 10.4687 2.37718 10.4021C2.28564 10.3355 2.22349 10.236 2.20378 10.1245C2.18408 10.013 2.20835 9.89823 2.2715 9.80427L5.7715 4.99177C5.80865 4.9406 5.85645 4.89809 5.91161 4.86716C5.96677 4.83624 6.02798 4.81764 6.09102 4.81265C6.15406 4.80766 6.21744 4.8164 6.27678 4.83826C6.33612 4.86012 6.39001 4.89458 6.43475 4.93927L8.71763 7.22302L11.7644 3.49902H9.1875C9.07147 3.49902 8.96019 3.45293 8.87814 3.37088C8.79609 3.28884 8.75 3.17756 8.75 3.06152Z" fill="#212529"/>
</g>
</g>
<defs>
<clipPath id="clip0_767_740">
<rect width="14" height="14" fill="white"/>
</clipPath>
<clipPath id="clip1_767_740">
<rect width="14" height="14" fill="white"/>
</clipPath>
</defs>
</svg>
