<svg width="33" height="32" viewBox="0 0 33 32" fill="none" xmlns="http://www.w3.org/2000/svg">
<rect x="0.332031" width="32" height="32" rx="16" fill="#FCF3EC"/>
<g clip-path="url(#clip0_213_6232)">
<rect width="16" height="16" transform="translate(8.33203 8)" fill="white" fill-opacity="0.01"/>
<path d="M12.332 18.7803C12.48 20.4473 13.845 21.6303 15.923 21.7833V22.9993H16.966V21.7833C19.236 21.6043 20.644 20.3453 20.644 18.4833C20.644 16.8933 19.697 15.9733 17.688 15.4553L16.966 15.2683V11.4663C18.088 11.5763 18.845 12.1803 19.036 13.0823H20.506C20.34 11.4823 18.966 10.3343 16.966 10.2073V8.99927H15.923V10.2323C13.984 10.4623 12.653 11.7043 12.653 13.3883C12.653 14.8423 13.619 15.8713 15.314 16.3053L15.924 16.4673V20.4983C14.775 20.3283 13.984 19.6983 13.793 18.7803H12.332ZM15.723 14.9443C14.68 14.6813 14.123 14.1193 14.123 13.3283C14.123 12.3843 14.827 11.6873 15.923 11.5003V14.9953L15.723 14.9453V14.9443ZM17.314 16.8163C18.601 17.1393 19.166 17.6753 19.166 18.5853C19.166 19.6823 18.34 20.4133 16.966 20.5243V16.7293L17.314 16.8153V16.8163Z" fill="#C8895D"/>
</g>
<defs>
<clipPath id="clip0_213_6232">
<rect width="16" height="16" fill="white" transform="translate(8.33203 8)"/>
</clipPath>
</defs>
</svg>
