<svg width="32" height="32" viewBox="0 0 32 32" fill="none" xmlns="http://www.w3.org/2000/svg">
<rect width="32" height="32" rx="16" fill="#E7F8FC"/>
<g clip-path="url(#clip0_213_6218)">
<rect width="16" height="16" transform="translate(8 8)" fill="white" fill-opacity="0.01"/>
<g clip-path="url(#clip1_213_6218)">
<path fill-rule="evenodd" clip-rule="evenodd" d="M8 7.99927H9V22.9993H24V23.9993H8V7.99927ZM22.817 11.1123C22.8679 11.1539 22.91 11.2051 22.941 11.263C22.9721 11.3209 22.9914 11.3844 22.9979 11.4498C23.0044 11.5151 22.998 11.5812 22.9789 11.6441C22.9599 11.7069 22.9287 11.7655 22.887 11.8163L18.387 17.3163C18.3428 17.3703 18.2877 17.4144 18.2254 17.4458C18.1631 17.4772 18.0949 17.4953 18.0252 17.4988C17.9555 17.5023 17.8858 17.4911 17.8207 17.466C17.7556 17.441 17.6964 17.4026 17.647 17.3533L15.06 14.7663L11.404 19.7933C11.324 19.895 11.2077 19.9617 11.0796 19.9795C10.9514 19.9972 10.8214 19.9646 10.7168 19.8885C10.6122 19.8123 10.5411 19.6986 10.5186 19.5712C10.4961 19.4438 10.5238 19.3126 10.596 19.2053L14.596 13.7053C14.6385 13.6468 14.6931 13.5982 14.7561 13.5629C14.8192 13.5275 14.8891 13.5063 14.9612 13.5006C15.0332 13.4949 15.1056 13.5048 15.1735 13.5298C15.2413 13.5548 15.3029 13.5942 15.354 13.6453L17.963 16.2553L22.113 11.1823C22.1546 11.1314 22.2058 11.0893 22.2637 11.0582C22.3217 11.0272 22.3851 11.0079 22.4505 11.0014C22.5159 10.9949 22.5819 11.0013 22.6448 11.0203C22.7077 11.0394 22.7662 11.0706 22.817 11.1123Z" fill="#04B4FC"/>
</g>
</g>
<defs>
<clipPath id="clip0_213_6218">
<rect width="16" height="16" fill="white" transform="translate(8 8)"/>
</clipPath>
<clipPath id="clip1_213_6218">
<rect width="16" height="16" fill="white" transform="translate(8 8)"/>
</clipPath>
</defs>
</svg>
