<svg width="33" height="32" viewBox="0 0 33 32" fill="none" xmlns="http://www.w3.org/2000/svg">
<rect x="0.667969" width="32" height="32" rx="16" fill="#FCE0EC"/>
<g clip-path="url(#clip0_213_6239)">
<rect width="16" height="16" transform="translate(8.66797 8)" fill="white" fill-opacity="0.01"/>
<g clip-path="url(#clip1_213_6239)">
<path d="M16.668 8.99927C17.331 8.99927 17.9669 9.26266 18.4357 9.7315C18.9046 10.2003 19.168 10.8362 19.168 11.4993V11.9993H14.168V11.4993C14.168 10.8362 14.4314 10.2003 14.9002 9.7315C15.369 9.26266 16.0049 8.99927 16.668 8.99927ZM20.168 11.9993V11.4993C20.168 10.571 19.7992 9.68077 19.1428 9.02439C18.4865 8.36802 17.5962 7.99927 16.668 7.99927C15.7397 7.99927 14.8495 8.36802 14.1931 9.02439C13.5367 9.68077 13.168 10.571 13.168 11.4993V11.9993H9.66797V21.9993C9.66797 22.5297 9.87868 23.0384 10.2538 23.4135C10.6288 23.7886 11.1375 23.9993 11.668 23.9993H21.668C22.1984 23.9993 22.7071 23.7886 23.0822 23.4135C23.4573 23.0384 23.668 22.5297 23.668 21.9993V11.9993H20.168ZM10.668 12.9993H22.668V21.9993C22.668 22.2645 22.5626 22.5188 22.3751 22.7064C22.1875 22.8939 21.9332 22.9993 21.668 22.9993H11.668C11.4028 22.9993 11.1484 22.8939 10.9609 22.7064C10.7733 22.5188 10.668 22.2645 10.668 21.9993V12.9993Z" fill="#FB407D"/>
</g>
</g>
<defs>
<clipPath id="clip0_213_6239">
<rect width="16" height="16" fill="white" transform="translate(8.66797 8)"/>
</clipPath>
<clipPath id="clip1_213_6239">
<rect width="16" height="16" fill="white" transform="translate(8.66797 8)"/>
</clipPath>
</defs>
</svg>
