<svg width="33" height="32" viewBox="0 0 33 32" fill="none" xmlns="http://www.w3.org/2000/svg">
<rect x="0.332031" width="32" height="32" rx="16" fill="#F0E8FC"/>
<g clip-path="url(#clip0_213_6225)">
<rect width="16" height="16" transform="translate(8.33203 8)" fill="white" fill-opacity="0.01"/>
<g clip-path="url(#clip1_213_6225)">
<path d="M22.332 7.99927H10.332C9.8016 7.99927 9.29289 8.20998 8.91782 8.58505C8.54274 8.96013 8.33203 9.46883 8.33203 9.99927V21.9993C8.33203 22.5297 8.54274 23.0384 8.91782 23.4135C9.29289 23.7886 9.8016 23.9993 10.332 23.9993H22.332C22.8625 23.9993 23.3712 23.7886 23.7462 23.4135C24.1213 23.0384 24.332 22.5297 24.332 21.9993V9.99927C24.332 9.46883 24.1213 8.96013 23.7462 8.58505C23.3712 8.20998 22.8625 7.99927 22.332 7.99927ZM9.33203 11.8563C9.33203 11.3833 9.78003 10.9993 10.332 10.9993H22.332C22.884 10.9993 23.332 11.3833 23.332 11.8563V22.1423C23.332 22.6153 22.884 22.9993 22.332 22.9993H10.332C9.78003 22.9993 9.33203 22.6153 9.33203 22.1423V11.8563Z" fill="#6E13DF"/>
<path d="M14.832 14.9993C15.0972 14.9993 15.3516 14.8939 15.5391 14.7064C15.7267 14.5188 15.832 14.2645 15.832 13.9993C15.832 13.7341 15.7267 13.4797 15.5391 13.2922C15.3516 13.1046 15.0972 12.9993 14.832 12.9993C14.5668 12.9993 14.3125 13.1046 14.1249 13.2922C13.9374 13.4797 13.832 13.7341 13.832 13.9993C13.832 14.2645 13.9374 14.5188 14.1249 14.7064C14.3125 14.8939 14.5668 14.9993 14.832 14.9993ZM17.832 14.9993C18.0972 14.9993 18.3516 14.8939 18.5391 14.7064C18.7267 14.5188 18.832 14.2645 18.832 13.9993C18.832 13.7341 18.7267 13.4797 18.5391 13.2922C18.3516 13.1046 18.0972 12.9993 17.832 12.9993C17.5668 12.9993 17.3125 13.1046 17.1249 13.2922C16.9374 13.4797 16.832 13.7341 16.832 13.9993C16.832 14.2645 16.9374 14.5188 17.1249 14.7064C17.3125 14.8939 17.5668 14.9993 17.832 14.9993ZM20.832 14.9993C21.0972 14.9993 21.3516 14.8939 21.5391 14.7064C21.7267 14.5188 21.832 14.2645 21.832 13.9993C21.832 13.7341 21.7267 13.4797 21.5391 13.2922C21.3516 13.1046 21.0972 12.9993 20.832 12.9993C20.5668 12.9993 20.3125 13.1046 20.1249 13.2922C19.9374 13.4797 19.832 13.7341 19.832 13.9993C19.832 14.2645 19.9374 14.5188 20.1249 14.7064C20.3125 14.8939 20.5668 14.9993 20.832 14.9993ZM11.832 17.9993C12.0972 17.9993 12.3516 17.8939 12.5391 17.7064C12.7267 17.5188 12.832 17.2645 12.832 16.9993C12.832 16.7341 12.7267 16.4797 12.5391 16.2922C12.3516 16.1046 12.0972 15.9993 11.832 15.9993C11.5668 15.9993 11.3125 16.1046 11.1249 16.2922C10.9374 16.4797 10.832 16.7341 10.832 16.9993C10.832 17.2645 10.9374 17.5188 11.1249 17.7064C11.3125 17.8939 11.5668 17.9993 11.832 17.9993ZM14.832 17.9993C15.0972 17.9993 15.3516 17.8939 15.5391 17.7064C15.7267 17.5188 15.832 17.2645 15.832 16.9993C15.832 16.7341 15.7267 16.4797 15.5391 16.2922C15.3516 16.1046 15.0972 15.9993 14.832 15.9993C14.5668 15.9993 14.3125 16.1046 14.1249 16.2922C13.9374 16.4797 13.832 16.7341 13.832 16.9993C13.832 17.2645 13.9374 17.5188 14.1249 17.7064C14.3125 17.8939 14.5668 17.9993 14.832 17.9993ZM17.832 17.9993C18.0972 17.9993 18.3516 17.8939 18.5391 17.7064C18.7267 17.5188 18.832 17.2645 18.832 16.9993C18.832 16.7341 18.7267 16.4797 18.5391 16.2922C18.3516 16.1046 18.0972 15.9993 17.832 15.9993C17.5668 15.9993 17.3125 16.1046 17.1249 16.2922C16.9374 16.4797 16.832 16.7341 16.832 16.9993C16.832 17.2645 16.9374 17.5188 17.1249 17.7064C17.3125 17.8939 17.5668 17.9993 17.832 17.9993ZM20.832 17.9993C21.0972 17.9993 21.3516 17.8939 21.5391 17.7064C21.7267 17.5188 21.832 17.2645 21.832 16.9993C21.832 16.7341 21.7267 16.4797 21.5391 16.2922C21.3516 16.1046 21.0972 15.9993 20.832 15.9993C20.5668 15.9993 20.3125 16.1046 20.1249 16.2922C19.9374 16.4797 19.832 16.7341 19.832 16.9993C19.832 17.2645 19.9374 17.5188 20.1249 17.7064C20.3125 17.8939 20.5668 17.9993 20.832 17.9993ZM11.832 20.9993C12.0972 20.9993 12.3516 20.8939 12.5391 20.7064C12.7267 20.5188 12.832 20.2645 12.832 19.9993C12.832 19.7341 12.7267 19.4797 12.5391 19.2922C12.3516 19.1046 12.0972 18.9993 11.832 18.9993C11.5668 18.9993 11.3125 19.1046 11.1249 19.2922C10.9374 19.4797 10.832 19.7341 10.832 19.9993C10.832 20.2645 10.9374 20.5188 11.1249 20.7064C11.3125 20.8939 11.5668 20.9993 11.832 20.9993ZM14.832 20.9993C15.0972 20.9993 15.3516 20.8939 15.5391 20.7064C15.7267 20.5188 15.832 20.2645 15.832 19.9993C15.832 19.7341 15.7267 19.4797 15.5391 19.2922C15.3516 19.1046 15.0972 18.9993 14.832 18.9993C14.5668 18.9993 14.3125 19.1046 14.1249 19.2922C13.9374 19.4797 13.832 19.7341 13.832 19.9993C13.832 20.2645 13.9374 20.5188 14.1249 20.7064C14.3125 20.8939 14.5668 20.9993 14.832 20.9993ZM17.832 20.9993C18.0972 20.9993 18.3516 20.8939 18.5391 20.7064C18.7267 20.5188 18.832 20.2645 18.832 19.9993C18.832 19.7341 18.7267 19.4797 18.5391 19.2922C18.3516 19.1046 18.0972 18.9993 17.832 18.9993C17.5668 18.9993 17.3125 19.1046 17.1249 19.2922C16.9374 19.4797 16.832 19.7341 16.832 19.9993C16.832 20.2645 16.9374 20.5188 17.1249 20.7064C17.3125 20.8939 17.5668 20.9993 17.832 20.9993Z" fill="#6E13DF"/>
</g>
</g>
<defs>
<clipPath id="clip0_213_6225">
<rect width="16" height="16" fill="white" transform="translate(8.33203 8)"/>
</clipPath>
<clipPath id="clip1_213_6225">
<rect width="16" height="16" fill="white" transform="translate(8.33203 8)"/>
</clipPath>
</defs>
</svg>
