<svg width="32" height="32" viewBox="0 0 32 32" fill="none" xmlns="http://www.w3.org/2000/svg">
<g clip-path="url(#clip0_387_4980)">
<path d="M27.9586 5.26539L19.9731 27.5607C19.8779 27.8243 19.6278 27.9999 19.3476 28H19.1346C18.8733 27.9999 18.6352 27.8498 18.5224 27.614L15.3814 20.9587C14.9189 19.9775 15.098 18.8138 15.834 18.017L19.8267 13.6511C20.0718 13.394 20.0718 12.9898 19.8267 12.7327L19.321 12.2269C19.0639 11.9818 18.6597 11.9818 18.4026 12.2269L14.0372 16.2201C13.2405 16.9561 12.0769 17.1352 11.0959 16.6726L4.44127 13.5313C4.18464 13.4347 4.01136 13.1931 4.00207 12.919V12.706C3.9785 12.4066 4.15846 12.1284 4.44127 12.0272L26.7342 4.0408C26.9739 3.95279 27.2428 4.00967 27.4263 4.18722L27.7723 4.5333C27.9803 4.71502 28.0545 5.00633 27.9586 5.26539Z" fill="#3835ED"/>
</g>
<defs>
<clipPath id="clip0_387_4980">
<rect width="32" height="32" fill="white"/>
</clipPath>
</defs>
</svg>
