<svg width="50" height="51" viewBox="0 0 50 51" fill="none" xmlns="http://www.w3.org/2000/svg">
<rect y="0.5" width="50" height="50" rx="25" fill="#3835ED"/>
<g clip-path="url(#clip0_386_2823)">
<path d="M39.0694 33.5625C39.7323 33.5625 40.2957 33.5716 40.7598 33.5898C41.2238 33.6081 41.4558 33.6302 41.4558 33.6562V34.125C41.4558 34.168 41.2487 34.2087 40.8344 34.2471C40.42 34.2848 39.8524 34.3179 39.1315 34.3462C38.4106 34.3745 37.5695 34.3968 36.6083 34.4131C35.6305 34.4294 34.5947 34.4375 33.5009 34.4375H33.1031C32.7717 34.4375 32.49 34.4329 32.2579 34.4238C32.0259 34.4147 31.9099 34.4036 31.9099 34.3906V34.2969C31.9099 34.2839 32.0259 34.2728 32.2579 34.2637C32.49 34.2546 32.7717 34.25 33.1031 34.25H33.5009C34.3793 34.25 35.1292 34.2378 35.7507 34.2134C36.3721 34.189 36.6829 34.1595 36.6829 34.125V34H32.7054C32.0425 34 31.479 33.9909 31.015 33.9727C30.5509 33.9544 30.3189 33.9323 30.3189 33.9062V33.6562C30.3189 33.6302 30.5509 33.6081 31.015 33.5898C31.479 33.5716 32.0425 33.5625 32.7054 33.5625H39.0694ZM24.7504 33.5625C25.4134 33.5625 25.9768 33.5716 26.4409 33.5898C26.9049 33.6081 27.1369 33.6302 27.1369 33.6562V34.125C27.1369 34.168 26.9298 34.2087 26.5155 34.2471C26.1011 34.2848 25.5335 34.3179 24.8126 34.3462C24.0917 34.3745 23.2506 34.3968 22.2894 34.4131C21.3116 34.4294 20.2758 34.4375 19.182 34.4375H18.7842C18.4528 34.4375 18.171 34.4329 17.939 34.4238C17.707 34.4147 17.591 34.4036 17.591 34.3906V34.2969C17.591 34.2839 17.707 34.2728 17.939 34.2637C18.171 34.2546 18.4528 34.25 18.7842 34.25H19.182C20.0603 34.25 20.8103 34.2378 21.4317 34.2134C22.0532 34.189 22.364 34.1595 22.364 34.125V34H18.3865C17.7236 34 17.1601 33.9909 16.6961 33.9727C16.232 33.9544 16 33.9323 16 33.9062V33.6562C16 33.6302 16.232 33.6081 16.6961 33.5898C17.1601 33.5716 17.7236 33.5625 18.3865 33.5625H24.7504Z" fill="white"/>
</g>
<defs>
<clipPath id="clip0_386_2823">
<rect width="25.4558" height="1" fill="white" transform="matrix(1 0 0 -1 16 34.5)"/>
</clipPath>
</defs>
</svg>
