<svg width="15" height="14" viewBox="0 0 15 14" fill="none" xmlns="http://www.w3.org/2000/svg">
<g clip-path="url(#clip0_213_6466)">
<rect width="14" height="14" transform="translate(0.5)" fill="white" fill-opacity="0.01"/>
<g clip-path="url(#clip1_213_6466)">
<path d="M0.5 3.06177C0.5 2.71367 0.638281 2.37983 0.884422 2.13369C1.13056 1.88755 1.4644 1.74927 1.8125 1.74927H9.6875C10.0356 1.74927 10.3694 1.88755 10.6156 2.13369C10.8617 2.37983 11 2.71367 11 3.06177V4.37427H11.8925C12.0891 4.37444 12.2832 4.4188 12.4604 4.50407C12.6376 4.58934 12.7934 4.71333 12.9162 4.86689L14.2121 6.48564C14.3986 6.71855 14.5001 7.00804 14.5 7.30639V9.18677C14.5 9.53486 14.3617 9.8687 14.1156 10.1148C13.8694 10.361 13.5356 10.4993 13.1875 10.4993H12.75C12.75 10.9634 12.5656 11.4085 12.2374 11.7367C11.9092 12.0649 11.4641 12.2493 11 12.2493C10.5359 12.2493 10.0908 12.0649 9.76256 11.7367C9.43437 11.4085 9.25 10.9634 9.25 10.4993H4.875C4.8755 10.7325 4.82937 10.9635 4.73931 11.1787C4.64925 11.3939 4.51708 11.5889 4.35057 11.7522C4.18406 11.9156 3.98657 12.044 3.76972 12.13C3.55286 12.2159 3.32102 12.2576 3.08781 12.2526C2.8546 12.2477 2.62473 12.1962 2.41173 12.1011C2.19872 12.006 2.00687 11.8693 1.84745 11.699C1.68804 11.5287 1.56428 11.3283 1.48344 11.1095C1.40261 10.8907 1.36633 10.6579 1.37675 10.4249C1.12042 10.3347 0.898408 10.1671 0.741364 9.94534C0.58432 9.72357 0.499985 9.45851 0.5 9.18677V3.06177ZM1.63225 9.58577C1.79045 9.32676 2.01332 9.11338 2.27896 8.96658C2.5446 8.81979 2.84386 8.74465 3.14734 8.74853C3.45081 8.75241 3.74805 8.83519 4.00985 8.98874C4.27164 9.14228 4.48898 9.3613 4.6405 9.62427H9.4845C9.63842 9.35851 9.85924 9.13768 10.125 8.98377V3.06177C10.125 2.94574 10.0789 2.83446 9.99686 2.75241C9.91481 2.67036 9.80353 2.62427 9.6875 2.62427H1.8125C1.69647 2.62427 1.58519 2.67036 1.50314 2.75241C1.42109 2.83446 1.375 2.94574 1.375 3.06177V9.18677C1.37493 9.27098 1.39917 9.35342 1.4448 9.42419C1.49043 9.49497 1.55552 9.55107 1.63225 9.58577ZM11 8.74927C11.3072 8.74928 11.6089 8.83014 11.875 8.98373C12.141 9.13733 12.3619 9.35824 12.5155 9.62427H13.1875C13.3035 9.62427 13.4148 9.57817 13.4969 9.49613C13.5789 9.41408 13.625 9.3028 13.625 9.18677V7.30552C13.6248 7.20623 13.5909 7.10996 13.5288 7.03252L12.2338 5.41377C12.1928 5.36253 12.1409 5.32114 12.0819 5.29267C12.0228 5.26419 11.9581 5.24936 11.8925 5.24927H11V8.74927ZM3.125 9.62427C2.89294 9.62427 2.67038 9.71645 2.50628 9.88055C2.34219 10.0446 2.25 10.2672 2.25 10.4993C2.25 10.7313 2.34219 10.9539 2.50628 11.118C2.67038 11.2821 2.89294 11.3743 3.125 11.3743C3.35706 11.3743 3.57962 11.2821 3.74372 11.118C3.90781 10.9539 4 10.7313 4 10.4993C4 10.2672 3.90781 10.0446 3.74372 9.88055C3.57962 9.71645 3.35706 9.62427 3.125 9.62427ZM11 9.62427C10.7679 9.62427 10.5454 9.71645 10.3813 9.88055C10.2172 10.0446 10.125 10.2672 10.125 10.4993C10.125 10.7313 10.2172 10.9539 10.3813 11.118C10.5454 11.2821 10.7679 11.3743 11 11.3743C11.2321 11.3743 11.4546 11.2821 11.6187 11.118C11.7828 10.9539 11.875 10.7313 11.875 10.4993C11.875 10.2672 11.7828 10.0446 11.6187 9.88055C11.4546 9.71645 11.2321 9.62427 11 9.62427Z" fill="#5C6F88"/>
</g>
</g>
<defs>
<clipPath id="clip0_213_6466">
<rect width="14" height="14" fill="white" transform="translate(0.5)"/>
</clipPath>
<clipPath id="clip1_213_6466">
<rect width="14" height="14" fill="white" transform="translate(0.5)"/>
</clipPath>
</defs>
</svg>
