<svg width="1116" height="252" viewBox="0 0 1116 252" fill="none" xmlns="http://www.w3.org/2000/svg">
<path d="M56 156L104.497 228H7.50258L56 156Z" fill="#ACF3AD"/>
<path d="M996.785 235.823L904.401 203.896L900.814 217.281L996.785 235.823Z" fill="#45A7F2"/>
<path d="M1082 19L1089.63 44.9119H1114.34L1094.35 60.9263L1101.98 86.8381L1082 70.8237L1062.02 86.8381L1069.65 60.9263L1049.66 44.9119H1074.37L1082 19Z" fill="#FA7FE4"/>
<path d="M348.4 204L352.98 219.547H367.802L355.811 229.156L360.391 244.703L348.4 235.094L336.409 244.703L340.989 229.156L328.998 219.547H343.82L348.4 204Z" fill="#FA7FE4"/>
<circle cx="56.5" cy="40.5" r="40.5" fill="#F1F79C"/>
<ellipse cx="72.1074" cy="58.4767" rx="58.8116" ry="26.0314" transform="rotate(-15.7972 72.1074 58.4767)" fill="white"/>
</svg>
